<svg width="2191" height="749" viewBox="0 0 2191 749" fill="none" xmlns="http://www.w3.org/2000/svg">
<path d="M636.999 177C636.999 171.477 641.476 167 646.999 167H851.499C958.366 167 1045 253.633 1045 360.5V573C1045 578.523 1040.52 583 1035 583H830.499C723.631 583 636.999 496.367 636.999 389.5V177Z" fill="white"/>
<path d="M715.998 212C730.999 233 814.582 210.585 828.34 259.719C772.249 247.927 724.974 260.288 715.998 212Z" fill="#087830"/>
<path d="M953.498 222C935.78 272.447 878.256 252.018 828.339 259.09C847.558 204.406 903.499 246.5 953.498 222Z" fill="#087830"/>
<path d="M822.64 174.218H832.613V259.391H822.64V174.218Z" fill="#087830"/>
<path d="M988.999 377.002C988.999 472.513 919.155 549.94 832.999 549.94C746.842 549.94 676.999 472.513 676.999 377.002C676.999 281.491 746.842 254 832.999 254C919.155 254 988.999 281.491 988.999 377.002Z" fill="#EB3C27"/>
<path d="M943.695 353.481C927.266 324.841 900.264 300.352 905.663 297.172C905.663 297.172 948.914 309.333 965.343 337.973C981.772 366.614 967.974 408.976 967.974 408.976C962.575 412.155 960.124 382.122 943.695 353.481Z" fill="white"/>
<path d="M943.695 353.481C927.266 324.841 900.264 300.352 905.663 297.172C905.663 297.172 948.914 309.333 965.343 337.973C981.772 366.614 967.974 408.976 967.974 408.976C962.575 412.155 960.124 382.122 943.695 353.481Z" fill="white"/>
<path d="M100.4 349.4C99.8 349 99 348.8 98.2 348.6C97.8 348.4 96.6 348 96.6 348.6C96.4 348.8 96.6 349 96.6 349.2C96.8 349.6 96.8 349.8 97 350C97.4 351.2 98.2 352.2 99 353C99.4 353.4 100 353.8 100.4 354C101.2 354.4 102 354.6 102.8 354.6C102.8 354.6 102.8 354.6 103 354.6V354.4C102.6 353.2 102.2 352 101.6 350.8C101.2 350.4 100.8 349.8 100.4 349.4ZM102.6 356.8C102.6 356.6 102.6 356.6 102.6 356.6C102.6 356.6 102.6 356.4 102.4 356.4C102.4 356.4 102.4 356.4 102.2 356.4C100.2 356.6 98.2 356.8 96.2 357.6C94.2 358.4 93 360 92 362C91.8 362.6 91 364 92.2 364.4C92.8 364.6 93.6 364.2 94.2 364.2C95.8 363.8 97.6 363 99 362C100.6 361 102 359 102.6 357C102.8 357 102.6 357 102.6 356.8ZM155.6 329.6C156 330.4 156.4 331 157 331.6C157.2 331.6 157.2 331.6 157.2 331.6C157.2 331.6 157.2 331.6 157.4 331.6C157.8 330.4 158.4 329.2 158.4 327.8C158.6 327.2 158.6 326.6 158.4 326C158.2 325.2 157.8 324.6 157.4 324C157.2 323.6 156.6 322.6 156 323C155.8 323 155.8 323.4 155.8 323.6C155.6 323.8 155.6 324 155.4 324.2C155.2 325.4 155 326.6 155.2 327.8C155.2 328.4 155.4 329 155.6 329.6ZM144.4 333.4C145.8 334 147.6 334.6 149.4 334.8C151.4 335 153.6 334.4 155.4 333.4C155.4 333.2 155.4 333.2 155.6 333.2C155.6 333.2 155.6 333.2 155.6 333C155.6 332.8 155.6 332.8 155.6 332.6C153.8 331.4 152 330.2 150 329.6C148 329 146 329.4 144 330.2C143.4 330.6 142 331.4 142.6 332.2C143 332.8 143.8 333 144.4 333.4ZM133 438.8C132.2 437.2 132.8 434 132.8 432.2C132.8 428.2 133 424.2 133 420.2C133 418.4 132.8 416.4 133 414.4C133.2 412.2 134 410.4 134.8 408.2C135.4 405.8 135.6 403 134 400.8C132.8 398.8 131.2 399.2 129.4 400.2C127.4 401.4 124.6 401.6 122.4 401.8C120 402 117.4 402 115 402C114 402 113 402 112 401.8C110.6 401.6 109.2 400.6 107.8 400.6C103.6 400.4 104 407.2 104.8 409.8C106.6 414.6 106.6 420.2 106.4 425.2C106.4 431.6 106 438.2 104 444.2C102.8 449.4 109.4 449.8 112.8 450.2C117.2 450.4 122.2 451 126.6 450.2C130.2 449.4 137.6 446.2 135.4 441.2C135 440 133.6 439.8 133 438.8ZM105.2 393.6C105.2 393.8 105.4 394 105.6 394C107.6 396 110.4 396.2 113.2 396.2C115.4 396.2 117.6 396.2 119.8 396.2C122.6 396 125.2 396 127.8 395.6C129.4 395.4 131.2 395 132.8 394.2C132.8 394.2 133 394.4 133 394.2C133.2 394.2 133.4 394 133.4 393.8C133.6 393.8 133.6 393.8 133.6 393.8C133.8 393.6 133.8 393.6 134 393.4C135.2 392.2 135.6 390.4 135.6 388.6C135.4 385.6 133.8 383.2 133.2 380.4C133 379.4 133.2 378.2 133.2 377.2C133.4 375.8 133.4 374.6 133.6 373.2C133.8 371.2 134 369.2 134.2 367.2C134.2 366.4 134.4 365.6 134.8 364.8C135.2 364 135.4 363 135.6 362C135.6 361.2 135.2 360.2 134.8 359.6C134 358.6 132.8 358.4 131.6 358.6C130.4 358.8 129.2 359.4 128 359.8C127.8 359.8 127.6 360 127.6 360C127.2 360 127.6 360 127.4 360C127.2 360 126.8 360 126.6 360C124.6 360.2 122.6 360.4 120.6 360.4C120.2 360.4 120 360.4 119.6 360.4C117.6 360.4 115.6 360.6 113.6 360.4C112.6 360.4 111.2 360.4 110.2 360C109.8 359.8 109.4 359.2 109 359C108.4 358.6 107.8 358.4 107 358.6C104 359.2 104 364 104.6 366.2C104.8 367.2 105.2 367.8 105.8 368.4C106.2 368.8 106.4 369.6 106.6 370.2C106.6 370.8 106.8 371.4 106.8 372.2C106.8 375.6 107.4 379.2 106.6 382.6C105.8 386 102.4 390.2 105.2 393.6ZM106.4 352.4C106.6 352.4 106.6 352.4 106.6 352.4C109.8 354.8 114.4 355 118.2 355.2C122.2 355.4 127 355.2 130.8 353.4C132.6 352.4 134.4 350.8 134.4 348.4C134.4 346.2 132.8 344.2 132.6 341.8C132 337.4 132 332.8 132.4 328.4C132.6 326 133.6 323.4 134 320.8C134.6 318.4 135.4 315.4 133.6 313C131 310 126 310 122.2 310C118.2 309.8 113.4 309.6 109.4 311C107.2 311.8 105.6 313.6 105.8 316C105.8 317.6 106.4 319 106.8 320.4C107.2 322.4 107.4 324.4 107.4 326.4C107.2 331 107.2 335.4 107 339.8C107 340.8 107 341.8 106.8 342.6C106.6 343.8 106.2 344.6 105.6 345.6C104.8 347.8 104.4 350.6 106.4 352.4ZM152.4 385C153.4 381.8 155.2 378.8 157 375.8C160.2 371 164 365.8 168.2 361.8C169.6 360.2 172.2 358.8 171 356.4C170.2 354.6 167.4 354 166 353C163.6 351.4 161.6 349.8 161 347C160.4 344.8 160 342.6 159.4 340.4C159 339.2 158.6 337.2 157.2 336.8C155.2 336 153.6 338.2 152.8 340C149.6 345.4 147.4 350.8 142.4 355C140.8 356.2 139.4 357.4 139.4 359.8C139.4 361.8 139.8 363.8 139.6 365.8C139.4 368.6 138.2 371.2 137.8 374C137.4 376.4 137.6 378.8 137.8 381.4C138.4 385.4 138.4 390.2 142 393C145.2 395.4 149.4 394.6 151 390.6C151.6 388.8 151.6 386.8 152.4 385ZM162.8 340.8C163.2 342 163.6 343.2 164 344.4C164.4 345.4 164.6 346.4 165 347.2C165.8 348.2 167.2 349.2 168.2 350C169.6 350.8 171 351.6 172.4 352.2C173.2 352.8 174.8 353.6 175.8 353C175.8 353 175.8 353 176 353C177.8 352 179 350.4 179.2 348.4C179.4 347 179.6 346 180.6 344.8C181.2 344.2 181.8 343.4 182.4 342.8C186.2 338.4 190.2 333.6 195 330.2C197.8 328 201.6 326 203.2 322.6C204 320.2 203.8 317.8 202 316C198.4 312 191.6 311.2 186.4 310.6C184.8 310.4 182.8 310.2 181.2 310.6C179.4 311 178.6 312.4 178 314C177.4 315.6 176.8 316.8 175.6 318.2C172.8 322 169.8 325.8 166.2 328.8C165.4 329.6 164.6 330 163.6 330.4C162.8 330.6 161.8 330.8 161 331.2C159.4 332 159.2 333.6 160.2 335C161.4 336.8 162 338.8 162.8 340.8ZM209 437C209 434.6 206 433 204 431.8C201.2 430 198.8 428 197 425C195.6 422.8 194.6 420.4 194 417.8C193.4 415.4 192.6 412 189.8 411.2C186.8 410.4 184.8 414 183.4 416.2C182.6 417.6 181.6 418.6 180 419.2C179 419.4 178.2 419.8 177.2 420.2C174.8 421 172.4 422 170.2 423.4C168 424.8 167.8 426 168.8 428.4C169.4 430 170.4 431.6 171.6 432.8C172.4 433.6 173 434.2 173.6 435.2C175.4 438 177.8 441.2 177.6 444.8C177.6 445 177.8 445.2 177.8 445.2C178 445.6 178.2 445.6 178.4 445.8C178.4 445.8 178.4 446 178.6 446C179.8 446.4 181.4 446.4 182.8 446.4C185.2 446.2 187.6 446 190 445.6C195 444.8 200.4 443.8 204.8 441.4C206.6 440.6 208.4 439.2 209 437.4C209 437.2 209 437.2 209 437.2V437ZM186.4 405.2C186 403 183.8 401.6 182.2 400.2C180 398.2 178.2 395.8 176.4 393.6C174.2 390.8 172 388.4 170 385.6C168.8 384 168.8 381.8 167.4 380.2C166.4 379 164.6 378.8 163.2 378.8C161.6 378.8 159.6 379 158.6 380.4C157 382.4 156 385.2 155.4 387.6C155 389.2 154.8 391 154.4 392.6C153.8 394.8 152.6 396.6 151.2 398.4C150.2 399.8 149.6 401.6 150.6 403C151.4 404.2 152.6 404.6 153.8 405.2C156.2 406.6 157 408.8 158.4 411C159.2 411.8 159.8 412.6 160.6 413.4C162.2 414.6 162.2 415.8 162.4 417.6C164.4 426.2 177.2 415.2 180.2 412.6C182.2 411 186.6 408.2 186.4 405.2ZM212.541 384.8C213.141 385.8 214.141 386.8 215.141 387.4C215.541 387.8 216.141 388 216.741 388.2C217.541 388.4 218.341 388.6 219.141 388.4C219.341 388.4 219.341 388.4 219.341 388.4V388.2C218.741 387 218.141 385.8 217.141 384.8C216.741 384.4 216.341 384 215.741 383.8C215.141 383.4 214.341 383.2 213.741 383.2C213.141 383 211.941 383 211.941 383.6C211.941 383.8 211.941 384 212.141 384.2C212.341 384.4 212.341 384.6 212.541 384.8ZM219.341 390.4C219.141 390.2 219.141 390.2 218.941 390.2C216.941 390.6 214.941 391.4 213.141 392.4C211.341 393.6 210.341 395.4 209.741 397.4C209.541 398 209.141 399.6 210.141 399.8C210.741 399.8 211.541 399.4 212.141 399.2C213.741 398.6 215.341 397.6 216.541 396.4C218.141 395 219.141 392.8 219.341 390.8V390.6C219.341 390.6 219.341 390.6 219.341 390.4ZM288.941 386.4C290.941 388.8 294.341 389 297.141 389C299.541 389 301.941 388.8 304.341 388.4C307.141 388.2 309.941 387.8 312.741 387.2C314.541 386.8 316.341 386.4 317.941 385.6C318.141 385.6 318.141 385.8 318.341 385.6C320.341 384.6 321.141 382 321.341 380C321.541 377 319.941 374.4 319.141 371.6C318.941 370.6 318.941 369.4 318.941 368.4C319.141 367 319.141 365.8 319.341 364.4C319.541 363.4 319.741 362.2 319.941 361.2C319.941 361 319.941 361 319.941 361C319.941 360 320.141 359 320.541 358.2C320.741 357.4 320.941 356.8 321.141 356C321.541 354.6 321.741 353 320.741 351.8C320.141 351 319.141 350.6 318.141 350.4C317.341 350.4 316.741 350.6 315.941 350.8C314.541 351.2 313.341 351.6 312.141 352C310.341 352.6 308.341 353.2 306.341 353C306.141 353 306.141 353.2 306.141 353.2C303.541 353.4 300.941 353.4 298.341 353.4C297.141 353.6 295.741 353.6 294.541 353.6C294.141 353.4 293.941 353.4 293.541 353.4C293.341 353.2 292.941 352.8 292.541 352.6C288.941 350.8 287.941 356.2 288.141 358.6C288.141 360.6 289.341 362.2 290.141 364C290.541 364.8 290.541 365.6 290.741 366.6C290.741 366.6 290.541 366.6 290.541 366.8C290.341 369.6 291.141 372.6 290.341 375.4C289.341 378.8 286.141 383.2 288.941 386.4ZM290.141 345.8C290.341 346 290.341 346 290.341 346C292.341 347.4 295.141 347.8 297.541 348C300.941 348.2 304.541 348 307.941 347.6C310.741 347.2 313.741 346.6 316.341 345.4C317.741 344.8 318.941 344 319.741 342.6C320.741 340.6 319.941 338.8 319.341 337C318.741 335.4 317.941 333.4 318.141 331.8C318.341 331 318.741 330.2 318.941 329.2C319.341 328 319.541 326.6 319.941 325.2C320.341 323 321.141 320.4 320.541 318.4C319.941 316.6 318.341 315.4 316.741 314.6C314.341 313.6 311.341 313.8 308.941 314C305.341 314.2 301.941 314.6 298.541 315.2C295.741 315.6 291.341 315.8 289.941 318.8C288.741 321.2 290.141 323.8 290.541 326C290.941 327.6 291.141 329.2 291.141 331C291.141 331.6 291.141 332.4 290.941 333.2V334C290.941 334.2 290.941 334.6 290.941 334.8C290.941 334.8 290.941 334.8 290.941 335C290.941 335 290.741 335.2 290.541 335.6C290.141 337 289.541 338.6 289.141 340C288.541 342 288.341 344.4 290.141 345.8ZM317.741 390.8C315.141 390.6 313.341 392.6 311.141 393.2C308.341 394 305.541 394 302.741 394C300.341 394 297.741 393.8 295.541 393.2C293.541 392.6 291.341 391.6 289.541 393C287.541 394.6 287.141 397.8 288.741 399.6C289.541 402 291.541 405.8 290.141 408.2C288.741 410.2 285.141 410.8 285.741 414C285.941 414.8 286.341 415.4 286.941 416.2C287.341 416.6 287.741 417.4 288.141 417.8C288.941 418.6 289.941 418.4 290.941 418.6C292.341 418.8 293.741 419.2 294.941 420.2C296.941 421.8 296.341 424.2 296.341 426.4C296.341 428.8 298.341 430.8 299.941 432.2C301.541 433.6 303.741 435.2 305.941 434.8C308.141 434.6 309.341 432.6 310.141 430.8C310.941 428.8 311.741 427.4 312.941 425.6C316.941 420.2 319.341 413.8 320.141 407.2C320.341 405.6 320.141 404 320.941 402.6C322.141 400.6 323.141 398.4 322.941 396.2C322.741 393.6 320.341 391.2 317.741 390.8ZM257.341 420.6C258.741 418.8 258.541 416 257.141 414.4C256.541 413.4 255.541 412.8 254.741 412.2C253.341 411 252.741 409.8 252.141 408C251.141 405 250.341 402 252.141 399.2C253.541 397.8 253.541 395.6 252.741 393.8C251.741 392 249.741 391 247.741 390.8C246.941 390.8 246.541 391 245.941 391.2C245.141 391.2 244.141 391 243.141 390.8C240.741 390.4 238.341 390 235.741 390C234.541 390 233.141 390.2 231.941 390.4C230.541 390.8 228.941 391.8 227.541 391.6C224.941 391 222.941 391 221.141 393.2C219.741 394.8 219.541 397 220.341 399C221.141 400.4 222.341 401.6 222.541 403.2C223.541 408.8 224.141 414.2 226.941 419.2C227.941 420.8 229.341 422.4 230.341 424C231.341 425.6 231.341 427.6 232.541 429.2C234.541 432 238.141 430.6 240.141 428.6C242.941 425.6 245.941 423.2 250.141 422.8C252.941 422.6 255.541 423 257.341 420.6ZM222.341 323.8C223.141 324.4 223.341 324.6 223.341 325.6C223.341 326.4 223.341 327.2 223.341 327.8C223.341 328 223.141 329.4 223.341 329.6C223.141 330 223.141 330.2 223.141 330.6C223.141 331.8 223.341 333 223.141 334.2C222.941 335.8 222.141 337.2 221.741 338.6C220.741 341 220.541 343.6 221.741 346C222.741 348 224.741 348.6 226.541 347.4C227.741 346.6 228.741 345.8 230.341 345.4C231.341 345.2 232.541 345.2 233.741 345.4C235.141 345.4 236.541 345.4 238.141 345.6C241.541 345.8 245.541 345.8 248.741 346.6C253.541 348 253.141 339.8 251.941 337.2C249.341 331.4 251.141 325 252.941 319C254.341 314.2 248.141 313.4 244.941 313.2C240.541 312.8 235.941 312.6 231.741 312.8C227.941 313.2 222.941 314.8 220.941 318.2C220.541 319 220.341 320 220.341 321C220.541 322.4 221.341 323 222.341 323.8ZM251.941 353.4C250.941 352.2 248.541 352 247.141 351.8C244.541 351.4 241.941 351.2 239.341 351C237.341 351 235.541 350.8 233.541 350.8C230.341 350.8 227.141 350.8 224.141 352.4C224.141 352.4 223.941 352.4 223.741 352.6C221.541 353.8 220.741 356.8 220.741 359.2C220.941 361 221.541 362.4 222.141 364C222.541 364.8 222.741 365.8 222.941 366.6C223.141 366.8 223.141 366.8 223.141 367C223.141 367.2 223.141 367.4 223.141 367.6C222.941 368.8 222.941 370.2 222.741 371.6C222.541 373.4 222.341 375.2 222.341 377.2H222.141C222.141 378.6 221.741 380 221.341 381.4C220.941 382.6 220.541 383.8 220.741 385C220.941 385.6 221.141 386.2 221.741 386.8C222.341 387.4 223.341 387.6 224.141 387.6C225.341 387.8 226.541 387.2 227.741 386.8C228.341 386.6 229.341 386.2 230.141 386C231.141 385.6 232.141 385.4 233.141 385.6C233.141 385.6 233.141 385.6 233.341 385.6C234.541 385.4 235.941 385.6 237.141 385.6C239.741 385.8 242.341 385.8 244.741 386C245.741 386.2 246.541 386.2 247.341 386.4L247.541 386.6C248.141 387 248.741 387.4 249.541 387.4C252.941 387.6 253.141 382.6 252.741 380.2C252.341 378.4 251.141 377 250.741 375.2C250.541 374.2 250.341 373.4 250.341 372.4C250.341 369.8 249.741 367 250.541 364.4C251.541 361 254.741 356.6 251.941 353.4ZM285.941 420C284.941 420 283.741 420 282.741 420.6C281.541 421.4 280.741 422.6 279.541 423C276.541 424.2 272.741 423 269.941 422C267.541 421.2 265.941 420 263.341 420.2C261.141 420.6 260.941 421.4 259.741 423C258.741 424.6 256.341 425.2 254.741 425.8C252.341 426.6 250.141 427.2 247.741 428C244.741 429 241.141 430.6 240.541 434.2C240.141 438.4 243.541 442 247.141 443.6C256.541 447.8 267.341 448 277.541 447.4C283.341 447.2 289.341 446 294.141 442.6C295.941 441.2 297.741 440 297.341 437.4C296.941 434.6 294.541 432.4 293.741 429.6C292.941 424.8 291.541 420.4 285.941 420ZM335.564 388.4C336.364 389.4 337.364 390.2 338.564 390.6C338.964 391 339.564 391 340.164 391.2C340.964 391.2 341.764 391.2 342.564 391.2L342.764 391C342.764 391 342.764 391 342.764 390.8C341.964 389.8 341.164 388.6 340.164 387.8C339.764 387.4 339.164 387.2 338.764 386.8C337.964 386.6 337.164 386.6 336.364 386.6C335.964 386.6 334.764 386.6 334.764 387.2C334.764 387.4 334.964 387.6 335.164 387.8C335.164 388 335.364 388.2 335.564 388.4ZM343.164 393C343.164 393 343.164 393 342.964 393C342.964 393 342.964 392.8 342.764 392.8H342.564C340.764 393.6 338.764 394.6 337.164 395.8C335.564 397.4 334.764 399.2 334.564 401.4C334.564 402 334.364 403.6 335.364 403.6C335.964 403.6 336.764 403 337.364 402.8C338.764 401.8 340.164 400.6 341.164 399.4C342.564 397.6 343.164 395.4 343.164 393.4C343.164 393.2 343.164 393.2 343.164 393.2C343.164 393.2 343.164 393.2 343.164 393ZM373.164 434C372.164 432.4 372.964 429.2 372.964 427.4C372.964 423.4 372.964 419.4 372.964 415.4C372.964 413.6 372.964 411.6 373.164 409.6C373.164 407.4 374.164 405.6 374.764 403.4C375.564 401 375.564 398.2 374.164 396C372.964 394 371.164 394.4 369.564 395.4C367.364 396.4 364.764 396.6 362.564 397C359.964 397.2 357.564 397.2 354.964 397.2C354.164 397.2 353.164 397.2 352.164 397C350.764 396.8 349.164 395.8 347.764 395.8C343.564 395.6 343.964 402.4 344.964 404.8C346.764 409.8 346.564 415.4 346.564 420.4C346.364 426.8 345.964 433.4 344.164 439.4C342.964 444.6 349.364 445 352.964 445.2C357.364 445.6 362.364 446.2 366.764 445.2C370.364 444.6 377.564 441.4 375.564 436.4C374.964 435.2 373.764 435 373.164 434ZM345.164 388.8C345.364 389 345.364 389 345.564 389.2C347.564 391 350.564 391.2 353.364 391.4C355.564 391.4 357.764 391.4 359.964 391.4C362.564 391.2 365.364 391 367.964 390.6C369.564 390.4 371.364 390.2 372.764 389.4C372.964 389.4 372.964 389.4 373.164 389.4C373.364 389.2 373.364 389.2 373.564 389H373.764C373.764 388.8 373.964 388.6 373.964 388.6C375.164 387.4 375.764 385.4 375.564 383.6C375.564 380.8 373.764 378.2 373.364 375.4C373.164 374.4 373.164 373.4 373.364 372.4C373.364 371 373.564 369.6 373.564 368.2C373.764 366.4 373.964 364.4 374.164 362.4C374.364 361.6 374.564 360.8 374.764 360C375.164 359.2 375.564 358.2 375.564 357.2C375.564 356.4 375.364 355.4 374.964 354.6C374.164 353.6 372.964 353.4 371.764 353.6C370.364 353.8 369.364 354.6 367.964 355C367.964 355 367.764 355 367.564 355C367.364 355.2 367.564 355 367.564 355C367.164 355.2 366.964 355.2 366.564 355.2C364.564 355.4 362.564 355.4 360.564 355.6C360.364 355.6 359.964 355.6 359.764 355.6C357.764 355.6 355.764 355.6 353.764 355.6C352.564 355.6 351.364 355.6 350.364 355C349.764 354.8 349.564 354.4 348.964 354C348.364 353.8 347.764 353.6 347.164 353.8C344.164 354.4 344.164 359 344.564 361.4C344.764 362.2 345.364 362.8 345.964 363.6C346.364 364 346.364 364.6 346.564 365.4C346.764 366 346.764 366.6 346.964 367.2C346.764 370.8 347.364 374.2 346.564 377.6C345.764 381 342.564 385.4 345.164 388.8ZM346.564 347.6C346.564 347.6 346.564 347.6 346.764 347.6C349.364 349.6 353.164 350 356.364 350.2C360.164 350.6 364.164 350.4 367.964 349.6C371.364 348.8 375.364 346.4 374.164 342.2C373.964 341.2 373.364 340.2 372.964 339C372.564 337.6 372.364 336.2 372.164 334.8C372.164 332.6 372.964 330.6 373.364 328.6C373.764 326.2 373.964 324 374.164 321.8C374.564 319.8 375.164 317.4 374.564 315.4C373.364 311.6 368.764 311 365.364 310.8C361.364 310.6 357.164 310.6 353.164 311C349.364 311.6 345.164 313 345.964 317.6C346.164 318.8 346.564 320.2 346.964 321.4C347.164 322.8 347.164 324 347.364 325.2C347.364 327.8 347.364 330.2 347.364 332.8C347.364 334.2 347.364 335.8 347.164 337.2C346.764 338.8 346.164 339.8 345.564 341.2C344.764 343.2 344.564 345.8 346.364 347.4C346.564 347.6 346.564 347.4 346.564 347.6ZM380.164 335.6C381.764 336.6 383.364 336.2 384.964 335.4C385.764 335 386.764 334.4 387.564 334C389.164 333.4 390.564 333.6 392.164 333.8C395.164 334 399.164 334.4 401.564 336.6C403.164 338 403.164 338 404.964 339.4C406.564 340.4 408.764 341.2 410.364 340.4C412.164 339.6 412.164 339 411.964 337.4C411.964 334.8 412.564 333.4 413.964 331C414.964 329.2 416.764 328.4 418.964 328.6C421.164 328.6 423.164 328.6 424.364 326.4C425.164 324.4 424.364 323 422.764 321.6C417.764 317.6 413.764 312.4 396.564 312C394.964 312 394.164 311.6 390.964 312C389.564 312.2 387.764 312.8 386.564 312.2C384.364 311.2 383.364 310.4 380.764 311C378.764 311.2 377.764 313.2 377.964 315C377.964 316.4 378.764 317.8 379.164 319.2C379.964 321.2 379.564 323 378.964 324.8C377.964 328.2 376.364 333.6 380.164 335.6ZM436.764 339C435.764 336.6 434.164 333.6 432.564 331.4C427.364 324.4 427.964 331.4 424.364 331.8C422.564 332 420.164 332.4 418.364 334C416.964 335.2 415.564 337.2 415.564 339.2C415.364 346.2 410.964 343 410.364 346C409.764 349.4 411.964 349.2 411.964 350.4C411.964 357.4 408.364 361.6 404.964 362.8C400.564 364.4 396.764 364.2 394.164 364C391.164 364 387.564 364 385.164 362.4C383.364 361.4 381.364 358.8 379.364 361C378.164 362.4 377.164 365 376.964 367V367.2C376.964 367.4 376.764 367.6 376.764 367.8C376.564 370.2 376.764 372.8 377.564 375C377.964 376.2 378.364 377.2 378.964 378.2C379.564 379 380.164 379.6 380.364 380.4C380.764 383 379.564 387.8 382.364 389.2C383.964 390.2 385.764 388.8 387.164 387.8C389.164 386.4 391.964 386.6 394.364 386.8C396.964 386.8 398.964 387.6 401.364 388.8C405.364 390.6 406.964 389.4 408.164 387.8C410.564 383.6 413.364 389 415.964 381.8C416.964 379.4 422.164 380 423.964 379.4C428.164 378.2 430.364 374.8 432.964 371.4C436.164 367.2 437.364 362.2 438.364 357.2C439.764 351 439.364 344.8 436.764 339ZM427.164 428.8C424.164 426.8 423.564 428 421.364 427.8C417.964 427.2 415.564 423 415.364 422.2C415.164 421.2 415.164 420.4 415.164 419.4C415.164 417.4 414.364 415.6 412.164 415.4C409.564 415.2 408.364 416.6 406.564 418.6C405.364 420.2 403.564 423.6 396.564 424C392.964 424.2 387.964 425.4 384.564 422.6C383.164 421.2 381.364 421.2 379.564 422.4C377.564 423.8 377.164 426 377.364 428.2C377.564 430 378.164 431 378.964 432.4C379.964 434.2 382.364 437 381.564 439.2C380.764 441.4 378.764 441.8 378.564 444.4C378.564 446.4 380.564 446.6 382.564 446.6C389.764 446.8 390.364 446.4 396.364 445.8C399.764 445.4 409.564 443.4 416.764 441.4C421.764 440 432.364 434 433.764 428.6C434.564 425.6 430.164 430.8 427.164 428.8ZM429.564 383.6C427.564 382.2 426.764 384.2 424.364 383.8C421.564 383.4 419.964 384.4 419.164 386C418.564 387.2 417.364 390.6 413.564 390C412.364 389.8 410.164 391 409.764 392.2C409.164 394.6 410.964 395.8 412.364 398.8C413.364 400.8 413.364 403.6 413.364 405.8C413.364 407.4 412.964 409.6 413.764 411C414.564 412.2 415.964 412.8 417.164 413.6C418.364 414.8 418.364 416.2 418.564 417.6C418.964 420.8 421.164 422.4 424.164 423C427.564 424 432.364 424 435.164 421.4C436.364 420 436.764 417.6 437.164 415.8C437.764 413.2 437.964 410.6 437.964 408.2C438.164 404.4 438.164 400.6 436.964 397C435.564 392.8 433.164 386.4 429.564 383.6ZM467.222 334.2C467.622 334.8 468.222 335.4 468.822 335.8C468.822 336 468.822 335.8 468.822 336C469.022 336 469.022 336 469.022 336C469.022 335.8 469.022 335.8 469.222 335.8C469.422 334.6 469.622 333.2 469.622 331.8C469.622 331.2 469.422 330.6 469.222 330.2C468.822 329.4 468.422 328.8 467.822 328.2C467.622 328 466.822 327.2 466.222 327.6C466.222 327.8 466.022 328 466.022 328.2C466.022 328.4 466.022 328.6 466.022 329C465.822 330.2 466.022 331.4 466.422 332.6C466.622 333.2 466.822 333.6 467.222 334.2ZM456.622 340C458.422 340.4 460.222 340.6 461.822 340.4C464.022 340.4 466.022 339.2 467.622 337.8C467.622 337.6 467.622 337.6 467.822 337.6C467.822 337.6 467.822 337.6 467.822 337.4C467.822 337.4 467.822 337.2 467.622 337.2V337C465.622 336.2 463.822 335.4 461.622 335.2C459.622 335 457.622 335.8 455.822 337C455.422 337.4 454.022 338.4 454.822 339.2C455.222 339.6 456.022 339.8 456.622 340ZM576.622 417.4C576.022 417 575.222 416.8 574.422 416.6C573.822 416.6 573.222 416.8 572.622 416.8C571.422 417.2 570.222 417.8 569.222 418.6C569.222 418.6 569.222 418.6 569.022 418.6C569.022 418.6 569.022 418.6 569.022 418.8C569.022 418.8 569.022 418.8 569.222 418.8C569.222 418.8 569.222 418.8 569.222 419C569.822 419.4 570.622 419.6 571.422 420C572.022 420.2 572.622 420.2 573.022 420.2C574.422 420.2 575.622 419.8 576.622 419.4C576.822 419.2 577.222 419.2 577.422 419C577.622 419 577.822 418.8 577.822 418.6C578.222 418 577.022 417.6 576.622 417.4ZM568.422 420.6C568.422 420.4 568.422 420.6 568.422 420.4C568.422 420.4 568.422 420.4 568.222 420.4H568.022C568.022 420.4 568.022 420.4 567.822 420.6C567.822 420.6 567.822 420.6 567.622 420.8C566.822 422.6 566.622 425 567.022 427C567.422 428.6 568.222 430.2 569.222 431.8C569.622 432.2 570.022 433 570.622 433.2C571.622 433.8 572.222 432.2 572.422 431.6C573.022 429.4 573.022 427.4 572.022 425.4C571.222 423.6 569.822 422 568.422 420.6ZM483.622 394C483.422 391 481.422 388.6 481.022 385.6C480.422 382.4 480.022 379 480.422 375.8C480.822 369.4 483.622 363.2 488.422 358.8C491.022 357.4 493.222 354.4 492.822 351.4C492.422 349.6 492.022 348 490.622 347C489.422 346.2 488.222 346.6 487.022 346.8C484.822 347 482.822 347.4 480.822 346.6C479.222 346 478.022 344.8 476.622 343.8C474.022 341.8 470.822 340.6 467.422 341.8C464.222 342.8 461.022 346.2 461.022 349.8C454.822 358.4 451.622 368.6 451.422 379.4C451.422 384.4 452.022 389.6 453.022 394.6C453.622 397.2 454.222 399.8 454.422 402.4C454.622 404.4 456.022 408.6 457.822 408.4C464.822 406.2 468.622 408.2 473.222 406C477.422 404.2 484.222 399.4 483.622 394ZM475.222 337.2C478.822 337.6 480.622 342 482.422 342.2C488.622 343.2 489.422 340.6 491.822 341C494.222 341.4 494.422 347 496.822 346.4C499.622 345.8 500.422 345.8 502.222 343.4C504.622 340 516.622 336 524.622 337.8C531.422 339.4 540.022 344.4 545.022 351.6C546.222 353.6 547.022 356.2 548.822 357.8C550.422 359 553.822 358.4 555.222 357.2C556.222 356.2 557.022 354.8 557.622 353.4C558.022 352 558.022 350.6 559.622 350C561.022 349.4 562.622 348.8 564.222 348.4C566.022 347.8 567.822 347.6 569.222 346.6C572.222 344.8 572.422 341.2 570.422 339.2C569.422 338.2 565.622 335.6 565.022 334.4C560.422 326 557.822 323.8 551.622 319.4C545.622 315.4 532.422 306 499.022 313C496.222 313.6 487.022 317.4 479.622 323.2C477.422 325 474.822 326 473.022 329C471.822 331 469.822 336.4 475.222 337.2ZM574.022 409.4C578.622 399.8 582.422 389.4 581.622 378.6C581.222 373.6 580.222 368.8 579.222 364C578.622 360.6 579.022 355.2 576.422 352.8C573.822 350.2 569.222 349.6 566.222 351.8C565.422 352.4 565.022 353 564.622 353.6C563.822 354.8 563.022 355.8 561.822 356.8C560.422 358 558.822 359 557.022 359.8C554.822 360.8 551.422 362 552.022 364.8C553.022 368.6 553.822 370.6 554.022 373C554.222 373.8 554.222 375.6 553.822 381.4C553.422 388.6 549.822 392.4 549.622 394.4C549.422 397.2 550.022 398.2 552.222 400.6C553.222 401.6 554.422 402.6 555.822 403.4C557.222 404.2 559.222 404.2 560.422 405.2C561.822 406.4 561.822 408.4 562.422 410C563.822 412.8 569.022 420.2 574.022 409.4ZM559.622 415.2C555.822 413.8 554.422 408.4 551.822 405.2C550.622 403.8 548.622 402.6 546.622 402.4C544.022 402 542.022 404.2 540.222 405.8C536.822 408.8 534.022 412.6 530.422 415.2C527.622 417.2 520.622 419.8 514.222 419.4C503.822 418.6 495.422 412.6 492.622 406.2C492.622 406 492.622 406 492.622 406C492.622 406 492.622 406 492.422 405.8C491.022 403.6 490.022 400 486.622 400.6C483.222 401.2 483.222 405.6 480.822 407.4C478.422 409.2 475.222 410.2 472.422 411.2C469.222 412 466.222 411.4 463.022 412.2C459.222 413 458.422 416 460.622 419.4C461.622 421.2 462.622 421.8 464.222 422.8C471.022 427.2 471.622 430.2 477.422 435C496.622 450.8 526.222 451.2 540.822 443.6C549.222 439.6 555.222 434.2 561.022 428.4C561.022 428.2 561.022 428.2 561.222 428.2C562.622 426 564.822 424.2 564.422 421.2C564.022 418.6 562.222 416.2 559.622 415.2Z" fill="white"/>
<path d="M1091.6 345.6C1091 345.2 1090.2 345 1089.6 344.8C1089.2 344.6 1088 344.4 1087.8 345C1087.8 345.2 1087.8 345.4 1088 345.6C1088 345.8 1088 346 1088.2 346.2C1088.8 347.4 1089.4 348.4 1090.4 349.2C1090.8 349.6 1091.2 350 1091.8 350.2C1092.6 350.4 1093.4 350.8 1094.2 350.8H1094.4V350.6C1094 349.2 1093.6 348 1092.8 347C1092.6 346.4 1092.2 346 1091.6 345.6ZM1094.2 352.8C1094.2 352.8 1094.2 352.8 1094 352.8C1094 352.6 1094 352.6 1093.8 352.6V352.4C1091.6 352.6 1089.6 353 1087.8 353.8C1085.8 354.8 1084.4 356.4 1083.6 358.4C1083.4 359 1082.8 360.4 1083.8 360.8C1084.4 360.8 1085.2 360.6 1085.8 360.4C1087.4 360 1089.2 359.2 1090.6 358.2C1092.2 357 1093.6 355.2 1094.2 353.2C1094.2 353 1094.2 353 1094.2 353V352.8ZM1123 395.6C1122 395.4 1121 395.8 1120.2 396.2C1119.2 396.8 1118.2 397.2 1117 397.4C1112.2 398.4 1106 399 1101.2 397.8C1099.2 397.2 1097.2 396 1095.8 398.2C1094.6 400 1094.4 402.6 1094.8 404.4C1095.4 406.8 1096.2 408.8 1096.6 411C1097 414.2 1097 417.4 1097 420.6C1096.8 427.2 1096.4 434.2 1094.6 440.4C1093.2 446 1100.8 446.2 1104.4 446.2C1107.2 446.4 1109.8 446.4 1112.6 446.4C1114.8 446.4 1117 446.6 1119.2 446.2C1123.2 445.6 1124.8 442.4 1124.4 438.6C1124.2 437.2 1123.8 435.8 1123.4 434.4C1122.8 432 1123.4 428.2 1123.4 425.4C1123.4 421.2 1123.4 416.8 1123.4 412.6C1123.4 410.4 1123.8 408.4 1124.4 406.4C1125 404.8 1125.8 403.2 1125.8 401.4C1125.8 399.4 1125 396.4 1123 395.6ZM1123.8 373.4C1123.8 372.2 1124 370.8 1124 369.4C1124.2 367.4 1124.4 365.4 1124.6 363.6C1124.6 363.6 1124.6 363.6 1124.6 363.4C1124.8 362.6 1125 362 1125.2 361.2C1125.6 360.2 1126 359.4 1126 358.4C1126 357.4 1125.8 356.6 1125.2 355.8C1124.6 354.8 1123.4 354.6 1122.2 354.8C1120.8 355 1119.6 355.6 1118.4 356C1118.2 356.2 1118.2 356.2 1118 356.2C1117.8 356.2 1118 356.2 1118 356.2C1117.6 356.2 1117.4 356.2 1117 356.2C1115 356.4 1113 356.6 1111 356.6C1110.8 356.6 1110.4 356.6 1110.2 356.6C1108.2 356.8 1106.2 356.8 1104.2 356.8C1103 356.6 1101.8 356.6 1100.8 356.2C1100.2 356 1100 355.4 1099.4 355.2C1098.8 354.8 1098.2 354.8 1097.6 354.8C1094.6 355.4 1094.6 360.2 1095 362.4C1095.2 363.4 1095.6 364 1096.2 364.6C1096.8 365.2 1096.8 365.8 1097 366.4C1097.2 367 1097.2 367.8 1097.2 368.4C1097.2 371.8 1097.8 375.4 1097 378.8C1096.2 382.2 1093 386.6 1095.6 390C1095.8 390 1095.8 390.2 1096 390.2C1098 392.2 1101 392.4 1103.6 392.4C1105.8 392.6 1108.2 392.6 1110.4 392.4C1113 392.4 1115.6 392.2 1118.4 391.8C1120 391.6 1121.8 391.2 1123.2 390.6C1123.4 390.4 1123.4 390.6 1123.6 390.4C1123.8 390.4 1123.8 390.2 1124 390.2C1124 390.2 1124 390 1124.2 390L1124.4 389.8C1125.6 388.4 1126.2 386.6 1126 384.8C1125.8 382 1124.2 379.4 1123.6 376.6C1123.4 375.6 1123.6 374.6 1123.8 373.4ZM1097 348.6C1097 348.6 1097 348.6 1097 348.8C1100.2 351 1105 351.4 1108.8 351.4C1112.8 351.6 1117.6 351.4 1121.2 349.6C1123.2 348.6 1124.8 347 1124.8 344.6C1124.8 342.4 1123.4 340.4 1123 338.2C1122.6 333.8 1122.4 329 1122.8 324.8C1123.2 322.2 1124 319.6 1124.6 317.2C1125 314.6 1126 311.6 1124.2 309.4C1121.6 306.2 1116.4 306.2 1112.8 306.2C1108.6 306 1103.8 306 1100 307.2C1097.6 308 1096 309.8 1096.2 312.4C1096.2 313.8 1096.8 315.2 1097.2 316.6C1097.8 318.6 1097.8 320.6 1097.8 322.8C1097.8 327.2 1097.6 331.6 1097.4 336C1097.4 337 1097.4 338 1097.4 339C1097.2 340 1096.6 340.8 1096.2 341.8C1095.2 344 1095 346.8 1096.8 348.6H1097ZM1158.8 376.2C1158.6 374.6 1158.6 373 1158.6 371.6C1158.8 369.8 1160.2 367.4 1159 365.8C1157.8 364.2 1155 365.8 1153.8 366.6C1152.4 367.2 1151.2 368.2 1149.8 368.6C1148.2 369.4 1146.6 369.6 1145 369.8C1141.4 370 1138 369.8 1134.6 368.2C1132.2 367 1129.4 367.2 1128.6 370C1128.4 370 1128.6 370.2 1128.6 370.2C1128.6 370.4 1128.4 370.4 1128.4 370.6C1128 374.4 1130.2 380.2 1130.4 384C1130.6 386.8 1128.8 388.4 1129.8 391.2C1130.6 392.6 1131.6 394 1133.4 394C1135.6 394.2 1137.2 392.4 1139.2 392C1140.6 391.8 1142.2 391.8 1143.6 391.8C1144.8 391.8 1146 391.8 1147.2 391.8C1148.6 392 1149.8 392 1151.2 392.4C1152.6 392.8 1154 393.4 1155.6 393.4C1158.8 393.2 1163.2 391.4 1161.2 387.4C1159.4 384 1159.2 379.8 1158.8 376.2ZM1165.6 336C1166 334.2 1166 332.2 1166.8 330.6C1167.6 328.6 1167.6 327 1170.4 325.4C1171.6 324.6 1172.4 325 1173.6 325C1174.8 324.8 1175.6 324.2 1176.2 323.4C1179.4 318.8 1174.4 313 1169.8 312.4C1163 311.4 1157 308 1150 307.6C1148.2 307.4 1146.2 307.6 1144.4 307.6C1143.4 307.6 1142.2 307.8 1141.2 307.8C1140.4 308 1139.2 308.4 1138.4 308C1137.4 307.8 1136.6 307 1135.8 306.6C1134.6 306 1133.4 306.2 1132 306.6C1129.8 307 1129 309.6 1129.4 311.8C1129.6 313 1130.4 314.2 1130.6 315.6C1130.8 316.8 1130.2 318.2 1130 319.4C1129.2 322.4 1127.2 325.6 1127.2 328.8C1127.2 332.4 1130.4 333 1133.4 332.4C1135.8 331.8 1138 330.2 1140.6 329.6C1143.2 329 1147 329.8 1149.6 330.8C1151.4 331.2 1153.6 332.2 1154.8 333.8C1155.6 335 1156 336.2 1156.6 337.4C1157.8 339.2 1159.6 340.4 1161.8 340C1164.2 339.8 1165 338 1165.6 336ZM1181 324.2C1179.2 328.6 1170.6 330.4 1171.4 336.2C1171.8 339.8 1165 342.2 1166.8 346C1167.8 348.2 1170.2 352.6 1170.4 354.8C1170.4 355.8 1170.2 360.4 1167.8 363.2C1167 364.4 1165.8 364.8 1164.8 365.4C1161.4 367.2 1163.6 370.2 1163.8 373.6C1164 377 1163.6 377.2 1163.4 380.6C1163 384.6 1165.8 387.4 1167.6 388.4C1169.8 389.6 1172.4 389.2 1174.6 388.6C1180 387.6 1182.4 383.6 1186 379.6C1190.8 374.4 1193.6 369.4 1194.4 356.8C1195.6 338.6 1184 316 1181 324.2ZM1215.06 334.2C1215.46 334.8 1216.06 335.4 1216.66 335.8C1216.66 336 1216.66 335.8 1216.66 336C1216.86 336 1216.86 336 1216.86 336C1216.86 335.8 1216.86 335.8 1217.06 335.8C1217.26 334.6 1217.46 333.2 1217.46 331.8C1217.46 331.2 1217.26 330.6 1217.06 330.2C1216.66 329.4 1216.26 328.8 1215.66 328.2C1215.46 328 1214.66 327.2 1214.06 327.6C1214.06 327.8 1213.86 328 1213.86 328.2C1213.86 328.4 1213.86 328.6 1213.86 329C1213.66 330.2 1213.86 331.4 1214.26 332.6C1214.46 333.2 1214.66 333.6 1215.06 334.2ZM1204.46 340C1206.26 340.4 1208.06 340.6 1209.66 340.4C1211.86 340.4 1213.86 339.2 1215.46 337.8C1215.46 337.6 1215.46 337.6 1215.66 337.6C1215.66 337.6 1215.66 337.6 1215.66 337.4C1215.66 337.4 1215.66 337.2 1215.46 337.2V337C1213.46 336.2 1211.66 335.4 1209.46 335.2C1207.46 335 1205.46 335.8 1203.66 337C1203.26 337.4 1201.86 338.4 1202.66 339.2C1203.06 339.6 1203.86 339.8 1204.46 340ZM1324.46 417.4C1323.86 417 1323.06 416.8 1322.26 416.6C1321.66 416.6 1321.06 416.8 1320.46 416.8C1319.26 417.2 1318.06 417.8 1317.06 418.6C1317.06 418.6 1317.06 418.6 1316.86 418.6C1316.86 418.6 1316.86 418.6 1316.86 418.8C1316.86 418.8 1316.86 418.8 1317.06 418.8C1317.06 418.8 1317.06 418.8 1317.06 419C1317.66 419.4 1318.46 419.6 1319.26 420C1319.86 420.2 1320.46 420.2 1320.86 420.2C1322.26 420.2 1323.46 419.8 1324.46 419.4C1324.66 419.2 1325.06 419.2 1325.26 419C1325.46 419 1325.66 418.8 1325.66 418.6C1326.06 418 1324.86 417.6 1324.46 417.4ZM1316.26 420.6C1316.26 420.4 1316.26 420.6 1316.26 420.4C1316.26 420.4 1316.26 420.4 1316.06 420.4H1315.86C1315.86 420.4 1315.86 420.4 1315.66 420.6C1315.66 420.6 1315.66 420.6 1315.46 420.8C1314.66 422.6 1314.46 425 1314.86 427C1315.26 428.6 1316.06 430.2 1317.06 431.8C1317.46 432.2 1317.86 433 1318.46 433.2C1319.46 433.8 1320.06 432.2 1320.26 431.6C1320.86 429.4 1320.86 427.4 1319.86 425.4C1319.06 423.6 1317.66 422 1316.26 420.6ZM1231.46 394C1231.26 391 1229.26 388.6 1228.86 385.6C1228.26 382.4 1227.86 379 1228.26 375.8C1228.66 369.4 1231.46 363.2 1236.26 358.8C1238.86 357.4 1241.06 354.4 1240.66 351.4C1240.26 349.6 1239.86 348 1238.46 347C1237.26 346.2 1236.06 346.6 1234.86 346.8C1232.66 347 1230.66 347.4 1228.66 346.6C1227.06 346 1225.86 344.8 1224.46 343.8C1221.86 341.8 1218.66 340.6 1215.26 341.8C1212.06 342.8 1208.86 346.2 1208.86 349.8C1202.66 358.4 1199.46 368.6 1199.26 379.4C1199.26 384.4 1199.86 389.6 1200.86 394.6C1201.46 397.2 1202.06 399.8 1202.26 402.4C1202.46 404.4 1203.86 408.6 1205.66 408.4C1212.66 406.2 1216.46 408.2 1221.06 406C1225.26 404.2 1232.06 399.4 1231.46 394ZM1223.06 337.2C1226.66 337.6 1228.46 342 1230.26 342.2C1236.46 343.2 1237.26 340.6 1239.66 341C1242.06 341.4 1242.26 347 1244.66 346.4C1247.46 345.8 1248.26 345.8 1250.06 343.4C1252.46 340 1264.46 336 1272.46 337.8C1279.26 339.4 1287.86 344.4 1292.86 351.6C1294.06 353.6 1294.86 356.2 1296.66 357.8C1298.26 359 1301.66 358.4 1303.06 357.2C1304.06 356.2 1304.86 354.8 1305.46 353.4C1305.86 352 1305.86 350.6 1307.46 350C1308.86 349.4 1310.46 348.8 1312.06 348.4C1313.86 347.8 1315.66 347.6 1317.06 346.6C1320.06 344.8 1320.26 341.2 1318.26 339.2C1317.26 338.2 1313.46 335.6 1312.86 334.4C1308.26 326 1305.66 323.8 1299.46 319.4C1293.46 315.4 1280.26 306 1246.86 313C1244.06 313.6 1234.86 317.4 1227.46 323.2C1225.26 325 1222.66 326 1220.86 329C1219.66 331 1217.66 336.4 1223.06 337.2ZM1321.86 409.4C1326.46 399.8 1330.26 389.4 1329.46 378.6C1329.06 373.6 1328.06 368.8 1327.06 364C1326.46 360.6 1326.86 355.2 1324.26 352.8C1321.66 350.2 1317.06 349.6 1314.06 351.8C1313.26 352.4 1312.86 353 1312.46 353.6C1311.66 354.8 1310.86 355.8 1309.66 356.8C1308.26 358 1306.66 359 1304.86 359.8C1302.66 360.8 1299.26 362 1299.86 364.8C1300.86 368.6 1301.66 370.6 1301.86 373C1302.06 373.8 1302.06 375.6 1301.66 381.4C1301.26 388.6 1297.66 392.4 1297.46 394.4C1297.26 397.2 1297.86 398.2 1300.06 400.6C1301.06 401.6 1302.26 402.6 1303.66 403.4C1305.06 404.2 1307.06 404.2 1308.26 405.2C1309.66 406.4 1309.66 408.4 1310.26 410C1311.66 412.8 1316.86 420.2 1321.86 409.4ZM1307.46 415.2C1303.66 413.8 1302.26 408.4 1299.66 405.2C1298.46 403.8 1296.46 402.6 1294.46 402.4C1291.86 402 1289.86 404.2 1288.06 405.8C1284.66 408.8 1281.86 412.6 1278.26 415.2C1275.46 417.2 1268.46 419.8 1262.06 419.4C1251.66 418.6 1243.26 412.6 1240.46 406.2C1240.46 406 1240.46 406 1240.46 406C1240.46 406 1240.46 406 1240.26 405.8C1238.86 403.6 1237.86 400 1234.46 400.6C1231.06 401.2 1231.06 405.6 1228.66 407.4C1226.26 409.2 1223.06 410.2 1220.26 411.2C1217.06 412 1214.06 411.4 1210.86 412.2C1207.06 413 1206.26 416 1208.46 419.4C1209.46 421.2 1210.46 421.8 1212.06 422.8C1218.86 427.2 1219.46 430.2 1225.26 435C1244.46 450.8 1274.06 451.2 1288.66 443.6C1297.06 439.6 1303.06 434.2 1308.86 428.4C1308.86 428.2 1308.86 428.2 1309.06 428.2C1310.46 426 1312.66 424.2 1312.26 421.2C1311.86 418.6 1310.06 416.2 1307.46 415.2ZM1343.69 342.4C1344.29 343.6 1344.89 344.6 1345.89 345.4C1346.29 345.8 1346.89 346 1347.29 346.4C1348.09 346.6 1348.89 347 1349.69 347H1349.89C1349.89 347 1349.89 347 1349.89 346.8C1349.49 345.4 1349.09 344.2 1348.29 343.2C1348.09 342.6 1347.69 342.2 1347.09 341.8C1346.49 341.4 1345.69 341 1345.09 341C1344.69 340.8 1343.49 340.4 1343.29 341.2C1343.29 341.4 1343.29 341.6 1343.49 341.8C1343.49 342 1343.69 342.2 1343.69 342.4ZM1346.09 354.4C1347.69 353.2 1349.09 351.2 1349.69 349.2V349C1349.69 349 1349.69 349 1349.49 348.8C1349.49 348.8 1349.49 348.8 1349.29 348.8C1349.29 348.8 1349.29 348.8 1349.29 348.6C1347.09 348.8 1345.09 349.2 1343.29 350C1341.29 351 1339.89 352.6 1339.09 354.4C1338.89 355 1338.29 356.6 1339.29 357C1339.89 357 1340.69 356.8 1341.29 356.6C1342.89 356.2 1344.69 355.4 1346.09 354.4ZM1483.09 390.8C1483.09 390.8 1483.09 390.8 1483.09 391C1483.09 391 1483.09 391 1483.29 391C1484.09 391 1484.89 390.6 1485.69 390.4C1486.29 390.2 1486.69 389.8 1487.09 389.4C1488.09 388.6 1488.69 387.6 1489.29 386.4C1489.49 386.2 1489.49 386 1489.69 385.8C1489.69 385.6 1489.89 385.4 1489.69 385.2C1489.69 384.6 1488.49 384.8 1487.89 385C1487.29 385.2 1486.49 385.4 1485.89 385.8C1485.49 386.2 1485.09 386.6 1484.69 387.2C1483.89 388.2 1483.49 389.4 1483.09 390.8ZM1493.89 398.6C1493.09 396.6 1491.89 395 1489.89 394C1487.89 393.2 1485.89 392.8 1483.89 392.6C1483.69 392.6 1483.69 392.8 1483.69 392.8C1483.49 392.8 1483.49 392.8 1483.49 393L1483.29 393.2C1483.29 393.2 1483.29 393.2 1483.29 393.4C1483.89 395.4 1485.29 397.2 1486.89 398.4C1488.49 399.4 1490.09 400.2 1491.69 400.6C1492.29 400.8 1493.09 401 1493.69 401C1494.89 400.6 1494.29 399.2 1493.89 398.6ZM1400.69 375C1402.89 374.6 1404.69 375.6 1406.89 375.4C1408.49 375.4 1408.69 374 1409.09 372.6C1409.29 371 1409.49 369.4 1410.29 368.2C1411.09 366.6 1412.49 365.4 1413.09 363.8C1414.09 361.2 1413.29 359 1412.09 356.8C1410.69 354.4 1409.09 352.2 1408.09 349.6C1407.09 347.2 1406.09 344.8 1405.29 342.4C1403.29 337.6 1400.49 331.8 1400.69 326.6C1400.69 324.6 1401.69 323 1400.89 321C1400.09 319.2 1398.69 317.8 1396.69 317.8C1394.49 318 1392.09 319 1390.09 319.8C1388.49 320.4 1386.69 321 1385.29 321.8C1383.89 322.8 1383.89 324 1384.09 325.6C1384.49 329.4 1384.69 332.2 1383.49 335.8C1382.49 338.8 1383.89 341.2 1384.29 344.2C1384.49 345.8 1383.89 346 1383.69 347.4C1383.49 348.4 1383.89 349.8 1384.29 350.8C1385.69 354.2 1387.89 357.2 1388.29 361C1388.69 365.2 1388.09 369.2 1388.49 373.4C1388.09 375.4 1387.89 378.2 1389.89 379.6C1392.09 381.4 1393.89 378.6 1395.49 377.4C1397.09 376.4 1398.69 375.4 1400.69 375ZM1445.09 324.6C1444.29 323.2 1442.09 322.8 1440.69 322.4C1438.49 321.8 1435.49 320.8 1433.29 321.6C1428.29 323 1430.49 328.4 1430.09 331.8C1429.09 337.4 1426.89 343 1424.89 348.4C1422.89 353.4 1420.89 358.2 1418.89 363.2C1416.89 368 1411.69 372 1412.89 377.8C1413.49 380.4 1416.09 380 1418.29 380C1421.89 380.2 1425.69 380.8 1429.29 381.8C1431.09 382.4 1432.89 383 1434.49 384C1435.49 384.6 1436.29 385.6 1437.49 385.4C1440.49 385 1440.49 380.8 1439.89 378.6C1441.49 371.4 1445.29 365.4 1443.69 357.8C1443.09 355.6 1443.29 354.8 1444.29 352.8C1444.69 351.8 1445.49 350.8 1445.49 349.6C1445.49 348.6 1445.09 348.4 1444.89 347.8C1444.49 346 1445.49 344.2 1445.89 342.6C1446.69 338.8 1444.69 336.2 1444.69 332.6C1444.49 330.2 1446.09 326.8 1445.09 324.6ZM1435.09 387.8C1432.29 386.6 1429.29 387 1426.49 385.8C1426.49 385.8 1426.49 385.8 1426.29 385.8V385.6C1423.09 384.4 1419.69 384.4 1416.69 386C1415.69 386.6 1414.69 387.4 1413.89 388.2C1413.49 388.6 1413.09 388.8 1412.89 389.2C1412.69 389.2 1412.49 389.2 1412.49 389.4C1412.29 389 1412.09 388.4 1411.89 388C1411.69 387.2 1411.49 386.4 1411.29 385.6C1411.09 384.8 1411.29 383.6 1410.69 382.8C1409.49 380.4 1405.49 379.6 1403.09 379.2C1399.29 378.8 1395.29 379.8 1393.69 383.8C1393.69 384 1393.49 384 1393.49 384C1390.49 391.6 1398.09 398.4 1399.49 405.2C1399.89 407 1400.09 408.4 1401.49 409.8C1402.89 411.2 1404.89 412.2 1406.69 412.6C1419.89 416.2 1432.89 405.6 1436.89 393.8C1437.69 391.4 1437.69 388.8 1435.09 387.8ZM1376.29 400.6C1375.09 394.6 1369.09 397.6 1364.89 397.8C1361.89 398 1358.89 397.8 1355.89 396.8C1353.69 396 1351.49 393.8 1348.89 394.8C1346.89 395.4 1345.69 397.4 1345.29 399.2C1344.69 402 1346.09 404.4 1347.49 406.8C1348.49 408.4 1348.09 410.2 1347.89 412.2C1347.69 414.2 1347.49 416.4 1347.29 418.6L1346.29 430.2C1346.29 431.2 1346.29 432.2 1346.09 433C1345.89 434.4 1345.09 434.4 1343.89 434.8C1342.89 435.2 1342.09 435.8 1341.69 436.8C1340.89 438.4 1341.49 440 1342.69 441.2C1346.49 444.8 1353.69 446.2 1358.69 446.4C1361.89 446.4 1375.09 447 1373.49 440.8C1371.69 436 1371.29 430.8 1371.29 425.8C1371.29 420.6 1371.69 415.4 1373.09 410.6C1374.09 407 1376.89 404.4 1376.29 400.6ZM1377.29 353.2C1376.29 353 1375.29 353.2 1374.29 353.8C1373.49 354.2 1372.69 354.4 1371.69 354.4C1370.29 354.6 1368.89 354.6 1367.49 354.6C1367.49 354.6 1367.49 354.4 1367.29 354.4C1365.09 354.4 1362.69 354 1360.49 353.2C1359.09 352.8 1357.69 352.2 1356.09 352C1354.49 351.6 1352.29 351.6 1350.89 352.6C1349.69 353.6 1349.49 355.2 1349.69 356.6C1349.89 357.4 1350.29 358.2 1350.49 359C1350.89 360 1351.09 361 1351.09 362.2C1351.29 364.4 1351.29 366.6 1351.49 368.8C1351.49 371.8 1351.89 374.4 1350.29 377C1349.09 379.4 1346.89 381.4 1347.09 384.4C1347.09 386.6 1348.49 389 1350.69 390C1350.89 390.2 1350.89 390 1351.09 390C1354.89 392 1359.29 392.2 1363.49 392.4C1367.69 392.4 1372.89 393 1376.69 390.4C1380.69 387.6 1376.89 383 1375.89 379.6C1374.49 375.6 1376.29 371.6 1376.49 367.4C1376.69 366.4 1377.09 365.4 1377.69 364.4C1378.29 363.2 1379.49 362.4 1380.29 361.2C1380.89 360.2 1381.69 359 1381.49 357.6C1381.49 355.2 1379.69 353.4 1377.29 353.2ZM1373.49 314.8C1368.89 313.8 1364.09 313.8 1359.49 315C1357.89 315.4 1355.89 316.2 1354.69 317.6C1353.49 319.4 1354.09 321.2 1354.29 323.2C1354.69 325.4 1354.89 327.4 1355.49 329.6C1355.89 331.2 1356.69 332.8 1356.29 334.6C1355.69 336.4 1354.49 338.2 1353.29 339.8C1352.29 341.2 1351.69 342.8 1352.49 344.4C1353.29 346.4 1355.49 347.4 1357.29 348C1359.49 349 1361.89 349.6 1364.29 349.8C1369.09 350.4 1374.09 349.8 1378.49 347.8C1382.49 345.8 1380.49 341.8 1379.29 338.8C1378.29 336.2 1378.89 333 1379.29 330.4C1379.49 328.8 1379.69 327.2 1380.29 325.6C1380.69 324 1382.09 322.6 1382.29 320.8C1382.89 316.2 1376.69 315.2 1373.49 314.8ZM1485.09 434.6C1483.89 434.2 1483.69 433.8 1483.49 432.6C1483.49 431.6 1483.49 430.6 1483.29 429.8C1483.09 427.6 1482.89 425.6 1482.69 423.6C1482.49 419.6 1482.09 415.8 1481.69 412C1481.49 410.2 1481.49 408.6 1481.89 406.8C1482.29 405.2 1483.09 404 1483.69 402.4C1484.29 400.2 1483.89 397.8 1482.49 396C1481.09 394.2 1479.09 393.6 1477.09 394.4C1475.69 395 1474.29 396 1472.89 396.4C1471.29 397 1469.69 397.2 1468.09 397.2C1464.89 397.6 1461.69 397.2 1458.49 396.6C1456.69 396.2 1455.09 396.2 1453.69 397.8C1452.69 399.2 1452.49 401.4 1452.89 403C1453.09 404.8 1454.29 405.8 1455.09 407.4C1457.49 412.2 1457.89 418.4 1458.09 423.6C1458.29 429.2 1458.29 435.4 1456.29 440.8C1454.89 446.2 1465.09 446.2 1467.89 446.4C1473.69 446.6 1479.69 445.6 1484.89 442.8C1486.29 442 1488.09 440.6 1488.49 438.8C1488.89 436.4 1487.09 435.4 1485.09 434.6ZM1453.09 390.4C1456.69 393 1462.09 392.4 1466.29 392.4C1470.49 392.2 1474.89 391.8 1478.69 390C1478.89 390 1478.89 390.2 1479.09 390C1481.29 389 1482.49 386.6 1482.69 384.2C1482.89 381.4 1480.69 379.4 1479.29 377C1477.89 374.4 1478.29 371.8 1478.29 368.8C1478.49 366.6 1478.49 364.4 1478.69 362.2C1478.69 361.2 1478.69 360.2 1479.09 359.4C1479.29 358.6 1479.69 357.8 1479.89 357.2C1480.29 355.8 1480.29 354.4 1479.49 353.2C1478.29 351.8 1476.09 351.6 1474.29 351.8C1472.69 352 1471.49 352.6 1470.09 353C1468.89 353.4 1467.69 353.8 1466.49 354C1466.09 354 1465.89 354 1465.69 354C1464.49 354.2 1463.49 354.4 1462.29 354.4C1461.29 354.6 1460.09 354.6 1458.89 354.4C1457.89 354.4 1456.89 354.4 1455.89 354C1454.89 353.6 1454.29 353.2 1453.09 353C1450.89 353 1448.89 354.4 1448.29 356.6C1448.09 358 1448.29 359.2 1448.89 360.4C1449.69 361.6 1450.69 362.6 1451.49 363.6C1452.49 364.6 1452.89 365.8 1453.29 367C1453.29 367.2 1453.29 367.6 1453.29 367.8C1453.49 371.8 1455.09 375.8 1453.89 379.6C1452.89 383 1449.09 387.6 1453.09 390.4ZM1448.09 343C1447.89 345 1448.89 346.4 1450.49 347.4C1457.69 350.4 1467.49 350.6 1474.29 346.4C1475.69 345.4 1477.09 344 1476.89 342.2C1476.69 340.4 1475.29 339.2 1474.49 337.8C1472.49 333.8 1474.29 329.2 1475.09 325C1475.49 323.2 1476.09 321 1475.69 319C1475.29 317.4 1473.89 316.4 1472.29 315.6C1468.49 314 1463.49 313.8 1459.29 314.2C1457.09 314.6 1454.69 315 1452.49 315.6C1450.89 316 1448.89 316.6 1447.89 318.2C1446.89 319.8 1447.49 321.6 1448.29 323.2C1449.09 324.6 1449.69 326 1449.89 327.6C1450.49 330.6 1450.89 334.2 1450.29 337C1449.69 339.2 1448.49 340.8 1448.09 343ZM1521.11 334.2C1521.51 334.8 1522.11 335.4 1522.71 335.8C1522.71 336 1522.71 335.8 1522.71 336C1522.91 336 1522.91 336 1522.91 336C1522.91 335.8 1522.91 335.8 1523.11 335.8C1523.31 334.6 1523.51 333.2 1523.51 331.8C1523.51 331.2 1523.31 330.6 1523.11 330.2C1522.71 329.4 1522.31 328.8 1521.71 328.2C1521.51 328 1520.71 327.2 1520.11 327.6C1520.11 327.8 1519.91 328 1519.91 328.2C1519.91 328.4 1519.91 328.6 1519.91 329C1519.71 330.2 1519.91 331.4 1520.31 332.6C1520.51 333.2 1520.71 333.6 1521.11 334.2ZM1510.51 340C1512.31 340.4 1514.11 340.6 1515.71 340.4C1517.91 340.4 1519.91 339.2 1521.51 337.8C1521.51 337.6 1521.51 337.6 1521.71 337.6C1521.71 337.6 1521.71 337.6 1521.71 337.4C1521.71 337.4 1521.71 337.2 1521.51 337.2V337C1519.51 336.2 1517.71 335.4 1515.51 335.2C1513.51 335 1511.51 335.8 1509.71 337C1509.31 337.4 1507.91 338.4 1508.71 339.2C1509.11 339.6 1509.91 339.8 1510.51 340ZM1630.51 417.4C1629.91 417 1629.11 416.8 1628.31 416.6C1627.71 416.6 1627.11 416.8 1626.51 416.8C1625.31 417.2 1624.11 417.8 1623.11 418.6C1623.11 418.6 1623.11 418.6 1622.91 418.6C1622.91 418.6 1622.91 418.6 1622.91 418.8C1622.91 418.8 1622.91 418.8 1623.11 418.8C1623.11 418.8 1623.11 418.8 1623.11 419C1623.71 419.4 1624.51 419.6 1625.31 420C1625.91 420.2 1626.51 420.2 1626.91 420.2C1628.31 420.2 1629.51 419.8 1630.51 419.4C1630.71 419.2 1631.11 419.2 1631.31 419C1631.51 419 1631.71 418.8 1631.71 418.6C1632.11 418 1630.91 417.6 1630.51 417.4ZM1622.31 420.6C1622.31 420.4 1622.31 420.6 1622.31 420.4C1622.31 420.4 1622.31 420.4 1622.11 420.4H1621.91C1621.91 420.4 1621.91 420.4 1621.71 420.6C1621.71 420.6 1621.71 420.6 1621.51 420.8C1620.71 422.6 1620.51 425 1620.91 427C1621.31 428.6 1622.11 430.2 1623.11 431.8C1623.51 432.2 1623.91 433 1624.51 433.2C1625.51 433.8 1626.11 432.2 1626.31 431.6C1626.91 429.4 1626.91 427.4 1625.91 425.4C1625.11 423.6 1623.71 422 1622.31 420.6ZM1537.51 394C1537.31 391 1535.31 388.6 1534.91 385.6C1534.31 382.4 1533.91 379 1534.31 375.8C1534.71 369.4 1537.51 363.2 1542.31 358.8C1544.91 357.4 1547.11 354.4 1546.71 351.4C1546.31 349.6 1545.91 348 1544.51 347C1543.31 346.2 1542.11 346.6 1540.91 346.8C1538.71 347 1536.71 347.4 1534.71 346.6C1533.11 346 1531.91 344.8 1530.51 343.8C1527.91 341.8 1524.71 340.6 1521.31 341.8C1518.11 342.8 1514.91 346.2 1514.91 349.8C1508.71 358.4 1505.51 368.6 1505.31 379.4C1505.31 384.4 1505.91 389.6 1506.91 394.6C1507.51 397.2 1508.11 399.8 1508.31 402.4C1508.51 404.4 1509.91 408.6 1511.71 408.4C1518.71 406.2 1522.51 408.2 1527.11 406C1531.31 404.2 1538.11 399.4 1537.51 394ZM1529.11 337.2C1532.71 337.6 1534.51 342 1536.31 342.2C1542.51 343.2 1543.31 340.6 1545.71 341C1548.11 341.4 1548.31 347 1550.71 346.4C1553.51 345.8 1554.31 345.8 1556.11 343.4C1558.51 340 1570.51 336 1578.51 337.8C1585.31 339.4 1593.91 344.4 1598.91 351.6C1600.11 353.6 1600.91 356.2 1602.71 357.8C1604.31 359 1607.71 358.4 1609.11 357.2C1610.11 356.2 1610.91 354.8 1611.51 353.4C1611.91 352 1611.91 350.6 1613.51 350C1614.91 349.4 1616.51 348.8 1618.11 348.4C1619.91 347.8 1621.71 347.6 1623.11 346.6C1626.11 344.8 1626.31 341.2 1624.31 339.2C1623.31 338.2 1619.51 335.6 1618.91 334.4C1614.31 326 1611.71 323.8 1605.51 319.4C1599.51 315.4 1586.31 306 1552.91 313C1550.11 313.6 1540.91 317.4 1533.51 323.2C1531.31 325 1528.71 326 1526.91 329C1525.71 331 1523.71 336.4 1529.11 337.2ZM1627.91 409.4C1632.51 399.8 1636.31 389.4 1635.51 378.6C1635.11 373.6 1634.11 368.8 1633.11 364C1632.51 360.6 1632.91 355.2 1630.31 352.8C1627.71 350.2 1623.11 349.6 1620.11 351.8C1619.31 352.4 1618.91 353 1618.51 353.6C1617.71 354.8 1616.91 355.8 1615.71 356.8C1614.31 358 1612.71 359 1610.91 359.8C1608.71 360.8 1605.31 362 1605.91 364.8C1606.91 368.6 1607.71 370.6 1607.91 373C1608.11 373.8 1608.11 375.6 1607.71 381.4C1607.31 388.6 1603.71 392.4 1603.51 394.4C1603.31 397.2 1603.91 398.2 1606.11 400.6C1607.11 401.6 1608.31 402.6 1609.71 403.4C1611.11 404.2 1613.11 404.2 1614.31 405.2C1615.71 406.4 1615.71 408.4 1616.31 410C1617.71 412.8 1622.91 420.2 1627.91 409.4ZM1613.51 415.2C1609.71 413.8 1608.31 408.4 1605.71 405.2C1604.51 403.8 1602.51 402.6 1600.51 402.4C1597.91 402 1595.91 404.2 1594.11 405.8C1590.71 408.8 1587.91 412.6 1584.31 415.2C1581.51 417.2 1574.51 419.8 1568.11 419.4C1557.71 418.6 1549.31 412.6 1546.51 406.2C1546.51 406 1546.51 406 1546.51 406C1546.51 406 1546.51 406 1546.31 405.8C1544.91 403.6 1543.91 400 1540.51 400.6C1537.11 401.2 1537.11 405.6 1534.71 407.4C1532.31 409.2 1529.11 410.2 1526.31 411.2C1523.11 412 1520.11 411.4 1516.91 412.2C1513.11 413 1512.31 416 1514.51 419.4C1515.51 421.2 1516.51 421.8 1518.11 422.8C1524.91 427.2 1525.51 430.2 1531.31 435C1550.51 450.8 1580.11 451.2 1594.71 443.6C1603.11 439.6 1609.11 434.2 1614.91 428.4C1614.91 428.2 1614.91 428.2 1615.11 428.2C1616.51 426 1618.71 424.2 1618.31 421.2C1617.91 418.6 1616.11 416.2 1613.51 415.2ZM1647.74 345.8C1648.34 346.8 1649.34 347.6 1650.34 348.2C1650.94 348.6 1651.34 348.8 1651.94 349C1652.74 349 1653.74 349.2 1654.54 349C1654.74 348.8 1654.74 348.8 1654.74 348.8C1654.54 348.8 1654.74 348.8 1654.54 348.8C1654.54 348.8 1654.74 348.8 1654.54 348.8C1653.94 347.6 1653.34 346.4 1652.34 345.6C1651.94 345.2 1651.34 344.8 1650.74 344.6C1650.14 344.2 1649.34 344.2 1648.54 344.2C1648.14 344 1646.94 344 1646.94 344.6C1646.94 344.8 1647.14 345 1647.14 345.2C1647.34 345.4 1647.54 345.6 1647.74 345.8ZM1654.74 351C1654.74 350.8 1654.54 350.8 1654.54 350.8C1654.54 350.8 1654.54 350.8 1654.34 350.8C1652.34 351.4 1650.34 352.2 1648.74 353.4C1646.94 354.8 1646.14 356.6 1645.74 358.6C1645.54 359.2 1645.34 361 1646.34 361C1646.94 361 1647.74 360.6 1648.34 360.2C1649.74 359.4 1651.34 358.4 1652.54 357.2C1653.94 355.6 1654.74 353.4 1654.94 351.4C1654.94 351.2 1654.94 351.2 1654.94 351.2C1654.94 351.2 1654.74 351.2 1654.74 351ZM1729.94 346C1729.94 345.8 1729.94 345.8 1729.94 345.8C1729.94 345.8 1729.94 345.8 1729.94 345.6C1729.94 345.6 1729.94 345.6 1729.74 345.6C1728.54 345.2 1727.34 344.8 1725.94 344.8C1725.34 344.8 1724.74 344.8 1724.14 345C1723.54 345.2 1722.74 345.8 1722.14 346.2C1721.94 346.4 1720.94 347.2 1721.34 347.8C1721.54 347.8 1721.74 348 1721.94 348C1722.14 348 1722.34 348.2 1722.74 348.2C1723.94 348.4 1725.14 348.4 1726.34 348.2C1726.94 348 1727.54 347.8 1727.94 347.4C1728.74 347 1729.34 346.6 1729.94 346ZM1731.74 360.2C1732.34 359.8 1732.54 359 1732.74 358.4C1733.34 356.8 1733.74 355 1733.74 353.4C1733.74 351.2 1732.94 349 1731.74 347.4C1731.74 347.4 1731.54 347.4 1731.54 347.2C1731.34 347.2 1731.34 347.2 1731.34 347.2H1731.14C1731.14 347.2 1731.14 347.2 1731.14 347.4C1730.94 347.4 1730.94 347.4 1730.94 347.4C1729.94 349.2 1728.94 351 1728.54 353C1728.14 355.2 1728.74 357.2 1729.74 359C1730.14 359.6 1730.94 361 1731.74 360.2ZM1683.74 434.2C1683.74 432.2 1683.74 430.2 1683.74 428.2C1683.94 424 1683.94 419.8 1683.94 415.8C1683.94 414 1683.94 412.2 1683.94 410.4C1684.14 408 1685.14 406 1685.74 403.6C1686.54 401.2 1686.54 398.2 1684.94 396.2C1683.34 394.2 1681.74 395.2 1679.74 396.2C1677.34 397.2 1674.14 397.4 1671.54 397.6C1669.14 397.6 1666.94 397.8 1664.54 397.6C1662.74 397.6 1661.14 396.8 1659.34 396.4C1658.54 396.2 1657.94 396.2 1657.14 396.6C1653.54 399 1655.74 404.4 1656.54 407.4C1657.74 413.4 1657.54 419.8 1657.34 425.8C1657.14 432 1656.74 438.4 1654.94 444.4C1653.74 450 1661.14 450.2 1664.94 450.4C1669.74 450.6 1675.14 451.2 1679.74 449.6C1683.94 448 1689.34 444 1684.94 439.8C1683.34 438.2 1683.74 436.4 1683.74 434.2ZM1656.14 389.2C1656.14 389.4 1656.34 389.6 1656.54 389.6C1658.54 391.6 1661.54 391.8 1664.14 391.8C1666.34 391.8 1668.54 391.8 1670.74 391.8C1673.54 391.8 1676.14 391.6 1678.94 391.2C1680.34 391 1682.14 390.6 1683.74 389.8C1683.74 389.8 1683.94 390 1683.94 389.8C1684.14 389.8 1684.34 389.6 1684.34 389.6C1684.54 389.4 1684.54 389.4 1684.54 389.4C1684.74 389.4 1684.74 389.2 1684.94 389C1686.14 387.8 1686.54 386 1686.54 384.2C1686.34 381.2 1684.74 378.8 1684.14 376C1683.94 375 1684.14 373.8 1684.14 372.8C1684.34 371.4 1684.34 370.2 1684.54 368.8C1684.74 366.8 1684.94 364.8 1685.14 362.8C1685.14 362 1685.34 361.2 1685.74 360.4C1686.14 359.6 1686.54 358.6 1686.54 357.8C1686.54 356.8 1686.34 355.8 1685.74 355.2C1684.94 354.2 1683.74 354 1682.54 354.2C1681.34 354.4 1680.14 355 1678.94 355.4C1678.74 355.4 1678.54 355.6 1678.54 355.6C1678.34 355.6 1678.54 355.6 1678.34 355.6C1678.14 355.6 1677.94 355.6 1677.54 355.6C1675.54 355.8 1673.54 356 1671.54 356C1671.14 356 1670.94 356 1670.74 356C1668.54 356 1666.54 356.2 1664.54 356C1663.54 356 1662.34 356 1661.34 355.6C1660.74 355.4 1660.34 354.8 1659.94 354.6C1659.34 354.2 1658.74 354.2 1658.14 354.2C1654.94 354.8 1654.94 359.6 1655.54 361.8C1655.74 362.8 1656.14 363.4 1656.74 364C1657.14 364.4 1657.34 365.2 1657.54 365.8C1657.74 366.4 1657.74 367 1657.74 367.8C1657.74 371.2 1658.34 374.8 1657.54 378.2C1656.74 381.6 1653.34 386 1656.14 389.2ZM1657.34 348C1657.54 348 1657.54 348 1657.54 348.2C1660.34 350.2 1664.34 350.6 1667.74 350.8C1671.74 351 1675.94 351 1679.74 349.8C1681.34 349.2 1682.94 348.6 1683.94 347.2C1685.74 345.4 1685.34 343.2 1684.34 341C1683.34 338.4 1682.74 335.4 1683.34 332.6C1683.74 330.6 1684.34 328.8 1684.54 326.8C1684.74 324.6 1684.94 322.4 1685.14 320C1685.34 318.2 1686.14 316 1685.34 314.2C1683.74 310.4 1679.14 310 1675.74 309.8C1671.54 309.6 1667.34 309.6 1663.14 310.2C1661.34 310.6 1659.54 311 1658.14 312.2C1656.14 314 1656.54 316.4 1657.34 318.6C1658.54 323.2 1658.34 328.4 1658.14 333.2C1658.14 334.6 1658.14 336.2 1657.94 337.8C1657.74 339.2 1656.94 340.2 1656.54 341.6C1655.74 343.6 1655.54 346.4 1657.34 348ZM1690.94 336C1692.74 336 1694.34 335.2 1695.94 334.8C1697.74 334.4 1700.94 334.8 1703.14 334.8C1706.34 335 1709.74 335 1712.74 335.6C1714.94 335.8 1717.14 336.4 1719.14 337.6C1721.14 338.8 1722.54 340.6 1724.74 341.8C1727.34 343 1731.34 344 1732.34 340.2C1732.54 339 1732.34 337.6 1732.14 336.2C1732.14 334 1732.34 332 1732.94 330C1733.54 327.6 1734.14 324.4 1736.54 323.4C1738.74 322.6 1739.74 321.8 1739.54 319C1739.54 316.8 1738.34 315 1736.34 314C1733.34 312.4 1729.94 313.4 1726.74 313.4C1724.34 313.4 1721.94 312.8 1719.74 312.6C1712.14 311.6 1704.34 310.8 1696.74 311.4C1695.54 310.4 1694.34 309.6 1692.74 309.8C1690.74 310.2 1688.94 312.6 1688.54 314.6C1687.94 316.4 1688.94 318.6 1689.34 320.4C1689.74 322 1689.94 323.4 1689.74 324.8C1689.74 327.2 1688.74 328.8 1687.94 330.8C1687.14 333 1688.74 335.6 1690.94 336ZM1772.14 362.8C1771.34 361.6 1770.34 360.6 1769.74 359.2C1768.94 357.6 1768.74 355.4 1768.34 353.6C1766.74 347.4 1764.14 341.6 1760.34 336.8C1757.94 333.8 1754.54 331.2 1752.34 328C1751.34 326.8 1751.14 325.2 1750.14 323.8C1748.94 322 1746.94 320.2 1744.74 321C1742.34 321.8 1742.74 323.4 1742.74 325.4C1742.54 327.6 1741.14 327.6 1739.74 328.6C1738.74 329.4 1737.94 330.2 1737.54 331.2C1736.34 333.6 1736.54 336.6 1736.34 339.2C1736.34 340.4 1736.34 342 1735.74 343C1735.14 344.2 1734.54 344.6 1734.74 346.2C1735.14 350 1739.14 351.8 1741.14 354.8C1742.94 357.4 1743.34 360.4 1744.34 363.2C1745.34 367.8 1746.94 371.8 1746.14 376.6C1745.54 379.4 1746.34 382.6 1748.74 384.4C1750.54 385.6 1753.74 385.8 1755.34 384.4C1757.54 382.6 1757.94 379.4 1759.54 377.2C1761.34 375.2 1765.74 377.2 1768.14 376.8C1770.74 376.2 1773.54 373.4 1774.14 370.8C1774.94 368 1773.54 365.2 1772.14 362.8ZM1765.94 381.8C1763.74 382 1761.34 382.8 1759.94 384.4C1759.14 385.6 1758.74 387 1757.54 388.2C1756.34 389.2 1754.74 389.8 1753.14 390C1749.34 390.4 1742.14 387.4 1742.34 393.4C1742.54 397.2 1741.74 400.4 1739.14 403.2C1736.54 406 1733.54 408.4 1730.94 411C1728.34 412.6 1727.74 417 1728.34 419.6C1728.54 421.4 1729.74 423 1731.34 423.8C1733.74 424.8 1736.74 423.4 1738.14 426C1739.94 429.2 1739.34 437.4 1744.94 436.6C1747.54 436.2 1750.14 434.4 1751.54 432.2C1752.74 430.6 1752.74 428.4 1753.74 427C1754.74 425.6 1756.34 424.4 1757.54 423.2C1758.74 421.6 1759.94 420 1760.94 418.4C1762.94 415.6 1764.54 412.4 1765.74 409.2C1767.94 404.2 1769.14 398.6 1771.14 393.4C1772.34 390.6 1773.74 386.8 1771.74 384C1770.34 382.2 1767.94 381.8 1765.94 381.8ZM1734.14 431.2C1733.74 431 1733.34 431.2 1732.94 431C1731.94 430.8 1730.94 430.2 1730.34 429.4C1728.14 427.6 1726.34 425.2 1725.74 422.4C1725.54 421.2 1725.94 420 1725.34 419C1724.74 418 1723.74 417.2 1722.74 416.8C1717.54 414.4 1714.94 420 1711.14 422C1705.34 425.2 1699.34 427.4 1692.74 426.2C1690.54 426 1689.34 426.4 1688.14 428C1687.14 429.2 1686.14 431 1687.34 432.6C1688.14 433.6 1689.54 434 1690.14 435C1690.94 436.2 1690.94 437.4 1690.74 438.8C1690.54 440.6 1689.74 442.4 1689.74 444.2C1689.74 449.2 1695.54 450.8 1699.54 450C1700.54 449.8 1701.54 449.4 1702.54 449.2C1704.14 449 1705.94 449.2 1707.54 449C1710.14 448.8 1712.94 448.4 1715.34 447.6C1718.74 446.6 1721.94 444.8 1725.14 444.2C1727.94 443.8 1730.74 444.8 1733.34 444.2C1737.74 443.4 1737.74 438 1736.34 434.8C1735.94 433.6 1735.14 431.8 1734.14 431.2ZM1800.41 334.2C1800.81 334.8 1801.41 335.4 1802.01 335.8C1802.01 336 1802.01 335.8 1802.01 336C1802.21 336 1802.21 336 1802.21 336C1802.21 335.8 1802.21 335.8 1802.41 335.8C1802.61 334.6 1802.81 333.2 1802.81 331.8C1802.81 331.2 1802.61 330.6 1802.41 330.2C1802.01 329.4 1801.61 328.8 1801.01 328.2C1800.81 328 1800.01 327.2 1799.41 327.6C1799.41 327.8 1799.21 328 1799.21 328.2C1799.21 328.4 1799.21 328.6 1799.21 329C1799.01 330.2 1799.21 331.4 1799.61 332.6C1799.81 333.2 1800.01 333.6 1800.41 334.2ZM1789.81 340C1791.61 340.4 1793.41 340.6 1795.01 340.4C1797.21 340.4 1799.21 339.2 1800.81 337.8C1800.81 337.6 1800.81 337.6 1801.01 337.6C1801.01 337.6 1801.01 337.6 1801.01 337.4C1801.01 337.4 1801.01 337.2 1800.81 337.2V337C1798.81 336.2 1797.01 335.4 1794.81 335.2C1792.81 335 1790.81 335.8 1789.01 337C1788.61 337.4 1787.21 338.4 1788.01 339.2C1788.41 339.6 1789.21 339.8 1789.81 340ZM1909.81 417.4C1909.21 417 1908.41 416.8 1907.61 416.6C1907.01 416.6 1906.41 416.8 1905.81 416.8C1904.61 417.2 1903.41 417.8 1902.41 418.6C1902.41 418.6 1902.41 418.6 1902.21 418.6C1902.21 418.6 1902.21 418.6 1902.21 418.8C1902.21 418.8 1902.21 418.8 1902.41 418.8C1902.41 418.8 1902.41 418.8 1902.41 419C1903.01 419.4 1903.81 419.6 1904.61 420C1905.21 420.2 1905.81 420.2 1906.21 420.2C1907.61 420.2 1908.81 419.8 1909.81 419.4C1910.01 419.2 1910.41 419.2 1910.61 419C1910.81 419 1911.01 418.8 1911.01 418.6C1911.41 418 1910.21 417.6 1909.81 417.4ZM1901.61 420.6C1901.61 420.4 1901.61 420.6 1901.61 420.4C1901.61 420.4 1901.61 420.4 1901.41 420.4H1901.21C1901.21 420.4 1901.21 420.4 1901.01 420.6C1901.01 420.6 1901.01 420.6 1900.81 420.8C1900.01 422.6 1899.81 425 1900.21 427C1900.61 428.6 1901.41 430.2 1902.41 431.8C1902.81 432.2 1903.21 433 1903.81 433.2C1904.81 433.8 1905.41 432.2 1905.61 431.6C1906.21 429.4 1906.21 427.4 1905.21 425.4C1904.41 423.6 1903.01 422 1901.61 420.6ZM1816.81 394C1816.61 391 1814.61 388.6 1814.21 385.6C1813.61 382.4 1813.21 379 1813.61 375.8C1814.01 369.4 1816.81 363.2 1821.61 358.8C1824.21 357.4 1826.41 354.4 1826.01 351.4C1825.61 349.6 1825.21 348 1823.81 347C1822.61 346.2 1821.41 346.6 1820.21 346.8C1818.01 347 1816.01 347.4 1814.01 346.6C1812.41 346 1811.21 344.8 1809.81 343.8C1807.21 341.8 1804.01 340.6 1800.61 341.8C1797.41 342.8 1794.21 346.2 1794.21 349.8C1788.01 358.4 1784.81 368.6 1784.61 379.4C1784.61 384.4 1785.21 389.6 1786.21 394.6C1786.81 397.2 1787.41 399.8 1787.61 402.4C1787.81 404.4 1789.21 408.6 1791.01 408.4C1798.01 406.2 1801.81 408.2 1806.41 406C1810.61 404.2 1817.41 399.4 1816.81 394ZM1808.41 337.2C1812.01 337.6 1813.81 342 1815.61 342.2C1821.81 343.2 1822.61 340.6 1825.01 341C1827.41 341.4 1827.61 347 1830.01 346.4C1832.81 345.8 1833.61 345.8 1835.41 343.4C1837.81 340 1849.81 336 1857.81 337.8C1864.61 339.4 1873.21 344.4 1878.21 351.6C1879.41 353.6 1880.21 356.2 1882.01 357.8C1883.61 359 1887.01 358.4 1888.41 357.2C1889.41 356.2 1890.21 354.8 1890.81 353.4C1891.21 352 1891.21 350.6 1892.81 350C1894.21 349.4 1895.81 348.8 1897.41 348.4C1899.21 347.8 1901.01 347.6 1902.41 346.6C1905.41 344.8 1905.61 341.2 1903.61 339.2C1902.61 338.2 1898.81 335.6 1898.21 334.4C1893.61 326 1891.01 323.8 1884.81 319.4C1878.81 315.4 1865.61 306 1832.21 313C1829.41 313.6 1820.21 317.4 1812.81 323.2C1810.61 325 1808.01 326 1806.21 329C1805.01 331 1803.01 336.4 1808.41 337.2ZM1907.21 409.4C1911.81 399.8 1915.61 389.4 1914.81 378.6C1914.41 373.6 1913.41 368.8 1912.41 364C1911.81 360.6 1912.21 355.2 1909.61 352.8C1907.01 350.2 1902.41 349.6 1899.41 351.8C1898.61 352.4 1898.21 353 1897.81 353.6C1897.01 354.8 1896.21 355.8 1895.01 356.8C1893.61 358 1892.01 359 1890.21 359.8C1888.01 360.8 1884.61 362 1885.21 364.8C1886.21 368.6 1887.01 370.6 1887.21 373C1887.41 373.8 1887.41 375.6 1887.01 381.4C1886.61 388.6 1883.01 392.4 1882.81 394.4C1882.61 397.2 1883.21 398.2 1885.41 400.6C1886.41 401.6 1887.61 402.6 1889.01 403.4C1890.41 404.2 1892.41 404.2 1893.61 405.2C1895.01 406.4 1895.01 408.4 1895.61 410C1897.01 412.8 1902.21 420.2 1907.21 409.4ZM1892.81 415.2C1889.01 413.8 1887.61 408.4 1885.01 405.2C1883.81 403.8 1881.81 402.6 1879.81 402.4C1877.21 402 1875.21 404.2 1873.41 405.8C1870.01 408.8 1867.21 412.6 1863.61 415.2C1860.81 417.2 1853.81 419.8 1847.41 419.4C1837.01 418.6 1828.61 412.6 1825.81 406.2C1825.81 406 1825.81 406 1825.81 406C1825.81 406 1825.81 406 1825.61 405.8C1824.21 403.6 1823.21 400 1819.81 400.6C1816.41 401.2 1816.41 405.6 1814.01 407.4C1811.61 409.2 1808.41 410.2 1805.61 411.2C1802.41 412 1799.41 411.4 1796.21 412.2C1792.41 413 1791.61 416 1793.81 419.4C1794.81 421.2 1795.81 421.8 1797.41 422.8C1804.21 427.2 1804.81 430.2 1810.61 435C1829.81 450.8 1859.41 451.2 1874.01 443.6C1882.41 439.6 1888.41 434.2 1894.21 428.4C1894.21 428.2 1894.21 428.2 1894.41 428.2C1895.81 426 1898.01 424.2 1897.61 421.2C1897.21 418.6 1895.41 416.2 1892.81 415.2ZM1932.01 345.6C1931.21 345.2 1930.61 345 1929.81 344.8C1929.41 344.6 1928.21 344.4 1928.01 345C1928.01 345.2 1928.21 345.4 1928.21 345.6C1928.41 346 1928.41 346.2 1928.61 346.4C1929.21 347.4 1930.01 348.4 1931.01 349.2C1931.41 349.6 1931.81 349.8 1932.41 350C1933.21 350.2 1934.01 350.6 1934.81 350.6C1934.81 350.6 1934.81 350.6 1934.81 350.4C1935.01 350.4 1935.01 350.4 1935.01 350.4V350.2C1934.61 349 1934.01 347.8 1933.21 346.8C1932.81 346.2 1932.41 345.8 1932.01 345.6ZM1934.81 352.6V352.4L1934.61 352.2H1934.41C1932.41 352.6 1930.41 353 1928.61 354C1926.61 355 1925.41 356.6 1924.81 358.6C1924.41 359.2 1924.01 360.8 1925.01 361C1925.61 361.2 1926.41 360.8 1927.01 360.6C1928.61 360.2 1930.21 359.4 1931.61 358.2C1933.21 357 1934.41 354.8 1935.01 352.8C1935.01 352.8 1935.01 352.8 1935.01 352.6H1934.81ZM2019.61 322.8H2019.81C2019.81 323 2019.81 322.8 2019.81 322.8H2020.01C2020.61 322.4 2021.21 321.8 2021.61 321.2C2022.01 320.6 2022.21 320.2 2022.41 319.6C2022.81 318.4 2023.01 317.2 2022.81 316C2022.81 315.6 2022.81 315.4 2022.81 315.2C2022.61 315 2022.61 314.6 2022.61 314.6C2022.01 314 2021.21 315 2020.81 315.2C2020.41 315.8 2019.81 316.4 2019.61 317C2019.41 317.6 2019.21 318.2 2019.21 318.8C2019.01 320.2 2019.41 321.4 2019.61 322.8ZM2021.21 324.2C2021.01 324.2 2021.01 324.4 2021.01 324.4V324.6C2021.01 324.6 2021.01 324.6 2021.21 324.8C2022.61 326.2 2024.81 327.4 2026.81 327.4C2028.61 327.6 2030.41 327.4 2032.01 327C2032.61 326.8 2033.61 326.6 2034.01 326.2C2034.81 325.4 2033.41 324.4 2033.01 324C2031.21 322.8 2029.21 322 2027.21 322.2C2025.01 322.4 2023.01 323.2 2021.21 324V324.2ZM1964.21 396C1963.21 395.6 1962.41 396 1961.41 396.6C1960.41 397 1959.41 397.4 1958.41 397.6C1953.41 398.6 1947.41 399.2 1942.61 398C1940.41 397.4 1938.61 396.2 1937.01 398.4C1936.01 400.2 1935.81 402.8 1936.21 404.8C1936.61 407 1937.61 409 1937.81 411.2C1938.21 414.4 1938.21 417.6 1938.21 420.8C1938.21 427.4 1937.81 434.4 1935.81 440.8C1934.61 446.4 1942.01 446.4 1945.61 446.6C1948.41 446.6 1951.21 446.6 1954.01 446.6C1956.01 446.6 1958.41 446.8 1960.41 446.4C1964.41 445.8 1966.21 442.6 1965.81 438.8C1965.61 437.4 1965.01 436 1964.81 434.6C1964.21 432.2 1964.61 428.6 1964.61 425.8C1964.61 421.4 1964.81 417 1964.81 412.8C1964.81 410.6 1965.01 408.8 1965.81 406.8C1966.41 405 1967.01 403.4 1967.01 401.6C1967.01 399.6 1966.41 396.6 1964.21 396ZM1965.01 373.6C1965.21 372.4 1965.21 371 1965.41 369.6C1965.61 367.6 1965.81 365.8 1966.01 363.8C1966.01 363 1966.21 362.2 1966.61 361.4C1967.01 360.4 1967.21 359.6 1967.41 358.6C1967.41 357.8 1967.01 356.8 1966.61 356C1965.81 355 1964.61 354.8 1963.41 355C1962.21 355.2 1961.01 355.8 1959.81 356.4C1959.61 356.4 1959.41 356.4 1959.41 356.4C1959.01 356.4 1959.41 356.4 1959.21 356.4C1959.01 356.4 1958.61 356.6 1958.41 356.6C1956.41 356.8 1954.41 356.8 1952.41 356.8C1952.01 356.8 1951.81 356.8 1951.41 357C1949.41 357 1947.41 357 1945.41 357C1944.41 357 1943.01 356.8 1942.01 356.4C1941.61 356.2 1941.21 355.8 1940.81 355.4C1940.21 355.2 1939.61 355 1938.81 355C1935.81 355.6 1935.81 360.4 1936.41 362.6C1936.61 363.6 1937.01 364.2 1937.61 364.8C1938.01 365.4 1938.21 366 1938.41 366.6C1938.41 367.4 1938.61 368 1938.61 368.6C1938.61 372 1939.21 375.6 1938.41 379C1937.61 382.4 1934.21 386.8 1937.01 390.2C1937.01 390.4 1937.21 390.4 1937.41 390.4C1939.41 392.4 1942.21 392.6 1945.01 392.8C1947.21 392.8 1949.41 392.8 1951.61 392.6C1954.41 392.6 1957.01 392.4 1959.61 392C1961.21 391.8 1963.01 391.4 1964.61 390.8H1964.81C1965.01 390.6 1965.21 390.4 1965.21 390.4C1965.41 390.4 1965.41 390.4 1965.41 390.2C1965.61 390.2 1965.61 390 1965.81 390C1967.01 388.6 1967.41 386.8 1967.41 385C1967.21 382.2 1965.61 379.6 1965.01 376.8C1964.81 375.8 1965.01 374.8 1965.01 373.6ZM1938.21 348.8C1938.41 348.8 1938.41 349 1938.41 349C1941.61 351.2 1946.21 351.6 1950.01 351.6C1954.01 351.8 1958.81 351.8 1962.61 349.8C1964.41 349 1966.01 347.2 1966.01 345C1966.01 342.6 1964.61 340.6 1964.41 338.4C1963.81 334 1963.61 329.4 1964.21 325C1964.41 322.4 1965.41 320 1965.81 317.4C1966.21 314.8 1967.21 311.8 1965.41 309.6C1962.81 306.4 1957.81 306.4 1954.01 306.4C1950.01 306.4 1945.21 306.2 1941.21 307.6C1939.01 308.4 1937.41 310 1937.61 312.6C1937.61 314 1938.21 315.4 1938.61 316.8C1939.01 318.8 1939.01 321 1939.01 323C1939.01 327.4 1939.01 331.8 1938.81 336.2C1938.81 337.2 1938.81 338.2 1938.61 339.2C1938.41 340.2 1937.81 341 1937.41 342C1936.61 344.2 1936.21 347 1938.21 348.8ZM2035.81 435.2C2033.41 432.8 2021.81 402.6 2020.41 399.6C2019.61 398 2019.41 396.6 2019.21 395C2019.21 392.8 2018.61 390.8 2017.21 389C2016.21 387.8 2014.41 387.6 2012.61 387.4C2009.81 387 2007.61 390.4 2006.41 390.8C2002.81 392.8 1997.21 390.6 1993.81 392.8C1993.81 393 1993.61 392.8 1993.61 393C1992.21 394.2 1991.61 395.8 1991.81 397.8C1992.21 399.8 1994.61 402.8 1995.61 403.8C1997.81 406.2 2001.01 419.2 2001.61 420.8C2002.41 422.2 2006.01 434.4 2006.41 436C2006.61 437.4 2006.61 437.8 2006.41 439.2C2006.21 441.2 2007.21 442.8 2008.61 444.2C2008.61 444.4 2008.61 444.2 2008.61 444.4C2008.81 444.4 2008.81 444.4 2008.81 444.4C2010.41 445.6 2012.81 445.6 2014.61 445.8C2017.81 446 2021.01 446 2024.21 445.8C2027.41 445.6 2030.61 445.4 2033.61 444.6C2035.61 444.2 2038.01 443.8 2039.41 442.2C2039.41 442 2039.41 442 2039.61 441.8C2039.61 441.8 2039.61 441.8 2039.61 441.6C2040.21 439.2 2037.41 436.8 2035.81 435.2ZM1973.01 334.2C1975.21 334 1977.41 333 1979.41 332.4C1982.01 331.6 1984.01 331.4 1986.81 331.6C1989.61 332 1992.01 333 1993.81 335.6C1995.01 337.4 1995.41 340.4 1997.81 341C2002.41 342.2 2004.21 335.6 2005.21 332.6C2006.01 330.8 2006.41 328.8 2007.61 327.2C2008.81 325.8 2010.01 325 2012.01 325.2C2013.21 325.2 2014.41 325.2 2015.41 324.4C2017.41 322.6 2017.21 319.6 2016.21 317.4C2015.01 315 2012.81 313.2 2010.21 312.8C2007.21 312.2 2004.21 311.8 2001.41 310.6C1998.01 309.2 1994.41 308.2 1990.61 308.2C1988.81 308.2 1986.81 308.2 1984.81 308.4C1984.01 308.6 1983.01 308.6 1982.01 308.8C1981.21 308.8 1979.81 309.2 1979.01 309C1978.01 308.6 1977.41 307.6 1976.41 307.2C1975.21 306.4 1974.01 306.4 1972.61 306.8C1971.01 307.2 1971.01 309.6 1970.81 310.8C1970.61 313 1971.21 315.2 1971.21 317.4C1971.21 321.2 1968.81 324.6 1968.61 328.4C1968.21 331.4 1969.61 334.4 1973.01 334.2ZM2021.01 371C2024.21 366.2 2025.81 359.4 2026.61 353.8C2027.41 347.4 2027.41 340.6 2024.81 334.6C2023.81 332.4 2024.21 329.6 2021.81 328.4C2019.61 327.4 2017.01 328 2014.61 329C2012.81 329.4 2011.21 330.4 2010.01 331.8C2008.21 334 2007.81 337.2 2006.21 339.8C2004.81 342.2 2001.01 345 2001.41 348.2C2001.61 350.6 2001.21 352.4 2001.01 355C2001.01 356.8 2000.41 358.8 1999.61 360.4C1999.21 361.4 1997.21 364.2 1995.21 365.2C1990.61 367.4 1978.21 368.6 1977.01 368.6C1975.61 368.6 1974.81 368 1973.81 367.2C1971.81 366 1969.61 367 1969.21 369.2C1969.21 369.4 1969.21 369.4 1969.21 369.4C1969.21 369.6 1969.21 369.8 1969.21 369.8C1969.21 373.4 1969.61 376.4 1970.41 379.8C1971.01 382.2 1969.61 385.2 1971.01 387.4C1972.81 390.2 1976.41 387 1978.61 387C1979.81 387 1987.61 387.8 1990.41 387.6C1995.21 387.4 2004.21 385.8 2008.41 383.8C2014.41 380.6 2018.21 375.2 2021.01 371ZM2061.93 334.2C2062.33 334.8 2062.93 335.4 2063.53 335.8C2063.53 336 2063.53 335.8 2063.53 336C2063.73 336 2063.73 336 2063.73 336C2063.73 335.8 2063.73 335.8 2063.93 335.8C2064.13 334.6 2064.33 333.2 2064.33 331.8C2064.33 331.2 2064.13 330.6 2063.93 330.2C2063.53 329.4 2063.13 328.8 2062.53 328.2C2062.33 328 2061.53 327.2 2060.93 327.6C2060.93 327.8 2060.73 328 2060.73 328.2C2060.73 328.4 2060.73 328.6 2060.73 329C2060.53 330.2 2060.73 331.4 2061.13 332.6C2061.33 333.2 2061.53 333.6 2061.93 334.2ZM2051.33 340C2053.13 340.4 2054.93 340.6 2056.53 340.4C2058.73 340.4 2060.73 339.2 2062.33 337.8C2062.33 337.6 2062.33 337.6 2062.53 337.6C2062.53 337.6 2062.53 337.6 2062.53 337.4C2062.53 337.4 2062.53 337.2 2062.33 337.2V337C2060.33 336.2 2058.53 335.4 2056.33 335.2C2054.33 335 2052.33 335.8 2050.53 337C2050.13 337.4 2048.73 338.4 2049.53 339.2C2049.93 339.6 2050.73 339.8 2051.33 340ZM2171.33 417.4C2170.73 417 2169.93 416.8 2169.13 416.6C2168.53 416.6 2167.93 416.8 2167.33 416.8C2166.13 417.2 2164.93 417.8 2163.93 418.6C2163.93 418.6 2163.93 418.6 2163.73 418.6C2163.73 418.6 2163.73 418.6 2163.73 418.8C2163.73 418.8 2163.73 418.8 2163.93 418.8C2163.93 418.8 2163.93 418.8 2163.93 419C2164.53 419.4 2165.33 419.6 2166.13 420C2166.73 420.2 2167.33 420.2 2167.73 420.2C2169.13 420.2 2170.33 419.8 2171.33 419.4C2171.53 419.2 2171.93 419.2 2172.13 419C2172.33 419 2172.53 418.8 2172.53 418.6C2172.93 418 2171.73 417.6 2171.33 417.4ZM2163.13 420.6C2163.13 420.4 2163.13 420.6 2163.13 420.4C2163.13 420.4 2163.13 420.4 2162.93 420.4H2162.73C2162.73 420.4 2162.73 420.4 2162.53 420.6C2162.53 420.6 2162.53 420.6 2162.33 420.8C2161.53 422.6 2161.33 425 2161.73 427C2162.13 428.6 2162.93 430.2 2163.93 431.8C2164.33 432.2 2164.73 433 2165.33 433.2C2166.33 433.8 2166.93 432.2 2167.13 431.6C2167.73 429.4 2167.73 427.4 2166.73 425.4C2165.93 423.6 2164.53 422 2163.13 420.6ZM2078.33 394C2078.13 391 2076.13 388.6 2075.73 385.6C2075.13 382.4 2074.73 379 2075.13 375.8C2075.53 369.4 2078.33 363.2 2083.13 358.8C2085.73 357.4 2087.93 354.4 2087.53 351.4C2087.13 349.6 2086.73 348 2085.33 347C2084.13 346.2 2082.93 346.6 2081.73 346.8C2079.53 347 2077.53 347.4 2075.53 346.6C2073.93 346 2072.73 344.8 2071.33 343.8C2068.73 341.8 2065.53 340.6 2062.13 341.8C2058.93 342.8 2055.73 346.2 2055.73 349.8C2049.53 358.4 2046.33 368.6 2046.13 379.4C2046.13 384.4 2046.73 389.6 2047.73 394.6C2048.33 397.2 2048.93 399.8 2049.13 402.4C2049.33 404.4 2050.73 408.6 2052.53 408.4C2059.53 406.2 2063.33 408.2 2067.93 406C2072.13 404.2 2078.93 399.4 2078.33 394ZM2069.93 337.2C2073.53 337.6 2075.33 342 2077.13 342.2C2083.33 343.2 2084.13 340.6 2086.53 341C2088.93 341.4 2089.13 347 2091.53 346.4C2094.33 345.8 2095.13 345.8 2096.93 343.4C2099.33 340 2111.33 336 2119.33 337.8C2126.13 339.4 2134.73 344.4 2139.73 351.6C2140.93 353.6 2141.73 356.2 2143.53 357.8C2145.13 359 2148.53 358.4 2149.93 357.2C2150.93 356.2 2151.73 354.8 2152.33 353.4C2152.73 352 2152.73 350.6 2154.33 350C2155.73 349.4 2157.33 348.8 2158.93 348.4C2160.73 347.8 2162.53 347.6 2163.93 346.6C2166.93 344.8 2167.13 341.2 2165.13 339.2C2164.13 338.2 2160.33 335.6 2159.73 334.4C2155.13 326 2152.53 323.8 2146.33 319.4C2140.33 315.4 2127.13 306 2093.73 313C2090.93 313.6 2081.73 317.4 2074.33 323.2C2072.13 325 2069.53 326 2067.73 329C2066.53 331 2064.53 336.4 2069.93 337.2ZM2168.73 409.4C2173.33 399.8 2177.13 389.4 2176.33 378.6C2175.93 373.6 2174.93 368.8 2173.93 364C2173.33 360.6 2173.73 355.2 2171.13 352.8C2168.53 350.2 2163.93 349.6 2160.93 351.8C2160.13 352.4 2159.73 353 2159.33 353.6C2158.53 354.8 2157.73 355.8 2156.53 356.8C2155.13 358 2153.53 359 2151.73 359.8C2149.53 360.8 2146.13 362 2146.73 364.8C2147.73 368.6 2148.53 370.6 2148.73 373C2148.93 373.8 2148.93 375.6 2148.53 381.4C2148.13 388.6 2144.53 392.4 2144.33 394.4C2144.13 397.2 2144.73 398.2 2146.93 400.6C2147.93 401.6 2149.13 402.6 2150.53 403.4C2151.93 404.2 2153.93 404.2 2155.13 405.2C2156.53 406.4 2156.53 408.4 2157.13 410C2158.53 412.8 2163.73 420.2 2168.73 409.4ZM2154.33 415.2C2150.53 413.8 2149.13 408.4 2146.53 405.2C2145.33 403.8 2143.33 402.6 2141.33 402.4C2138.73 402 2136.73 404.2 2134.93 405.8C2131.53 408.8 2128.73 412.6 2125.13 415.2C2122.33 417.2 2115.33 419.8 2108.93 419.4C2098.53 418.6 2090.13 412.6 2087.33 406.2C2087.33 406 2087.33 406 2087.33 406C2087.33 406 2087.33 406 2087.13 405.8C2085.73 403.6 2084.73 400 2081.33 400.6C2077.93 401.2 2077.93 405.6 2075.53 407.4C2073.13 409.2 2069.93 410.2 2067.13 411.2C2063.93 412 2060.93 411.4 2057.73 412.2C2053.93 413 2053.13 416 2055.33 419.4C2056.33 421.2 2057.33 421.8 2058.93 422.8C2065.73 427.2 2066.33 430.2 2072.13 435C2091.33 450.8 2120.93 451.2 2135.53 443.6C2143.93 439.6 2149.93 434.2 2155.73 428.4C2155.73 428.2 2155.73 428.2 2155.93 428.2C2157.33 426 2159.53 424.2 2159.13 421.2C2158.73 418.6 2156.93 416.2 2154.33 415.2Z" fill="white"/>
</svg>
