<svg width="1039" height="626" viewBox="0 0 1039 626" fill="none" xmlns="http://www.w3.org/2000/svg">
<path d="M0.978027 115C0.978027 109.477 5.45518 105 10.978 105H215.478C322.345 105 408.978 191.633 408.978 298.5V511C408.978 516.523 404.501 521 398.978 521H194.478C87.6109 521 0.978027 434.367 0.978027 327.5V115Z" fill="white"/>
<path d="M79.9777 150C94.978 171 178.562 148.585 192.319 197.719C136.228 185.927 88.9535 198.288 79.9777 150Z" fill="#087830"/>
<path d="M317.478 160C299.759 210.447 242.236 190.018 192.318 197.09C211.537 142.406 267.478 184.5 317.478 160Z" fill="#087830"/>
<path d="M186.62 112.218H196.592V197.391H186.62V112.218Z" fill="#087830"/>
<path d="M352.978 315.002C352.978 410.513 283.134 487.94 196.978 487.94C110.822 487.94 40.978 410.513 40.978 315.002C40.978 219.491 110.822 192 196.978 192C283.134 192 352.978 219.491 352.978 315.002Z" fill="#EB3C27"/>
<path d="M81.7 302.7C81.4 302.5 81 302.4 80.6 302.3C80.4 302.2 79.8 302 79.8 302.3C79.7 302.4 79.8 302.5 79.8 302.6C79.9 302.8 79.9 302.9 80 303C80.2 303.6 80.6 304.1 81 304.5C81.2 304.7 81.5 304.9 81.7 305C82.1 305.2 82.5 305.3 82.9 305.3C82.9 305.3 82.9 305.3 83 305.3V305.2C82.8 304.6 82.6 304 82.3 303.4C82.1 303.2 81.9 302.9 81.7 302.7ZM82.8 306.4C82.8 306.3 82.8 306.3 82.8 306.3C82.8 306.3 82.8 306.2 82.7 306.2C82.7 306.2 82.7 306.2 82.6 306.2C81.6 306.3 80.6 306.4 79.6 306.8C78.6 307.2 78 308 77.5 309C77.4 309.3 77 310 77.6 310.2C77.9 310.3 78.3 310.1 78.6 310.1C79.4 309.9 80.3 309.5 81 309C81.8 308.5 82.5 307.5 82.8 306.5C82.9 306.5 82.8 306.5 82.8 306.4ZM109.3 292.8C109.5 293.2 109.7 293.5 110 293.8C110.1 293.8 110.1 293.8 110.1 293.8C110.1 293.8 110.1 293.8 110.2 293.8C110.4 293.2 110.7 292.6 110.7 291.9C110.8 291.6 110.8 291.3 110.7 291C110.6 290.6 110.4 290.3 110.2 290C110.1 289.8 109.8 289.3 109.5 289.5C109.4 289.5 109.4 289.7 109.4 289.8C109.3 289.9 109.3 290 109.2 290.1C109.1 290.7 109 291.3 109.1 291.9C109.1 292.2 109.2 292.5 109.3 292.8ZM103.7 294.7C104.4 295 105.3 295.3 106.2 295.4C107.2 295.5 108.3 295.2 109.2 294.7C109.2 294.6 109.2 294.6 109.3 294.6C109.3 294.6 109.3 294.6 109.3 294.5C109.3 294.4 109.3 294.4 109.3 294.3C108.4 293.7 107.5 293.1 106.5 292.8C105.5 292.5 104.5 292.7 103.5 293.1C103.2 293.3 102.5 293.7 102.8 294.1C103 294.4 103.4 294.5 103.7 294.7ZM98 347.4C97.6 346.6 97.9 345 97.9 344.1C97.9 342.1 98 340.1 98 338.1C98 337.2 97.9 336.2 98 335.2C98.1 334.1 98.5 333.2 98.9 332.1C99.2 330.9 99.3 329.5 98.5 328.4C97.9 327.4 97.1 327.6 96.2 328.1C95.2 328.7 93.8 328.8 92.7 328.9C91.5 329 90.2 329 89 329C88.5 329 88 329 87.5 328.9C86.8 328.8 86.1 328.3 85.4 328.3C83.3 328.2 83.5 331.6 83.9 332.9C84.8 335.3 84.8 338.1 84.7 340.6C84.7 343.8 84.5 347.1 83.5 350.1C82.9 352.7 86.2 352.9 87.9 353.1C90.1 353.2 92.6 353.5 94.8 353.1C96.6 352.7 100.3 351.1 99.2 348.6C99 348 98.3 347.9 98 347.4ZM84.1 324.8C84.1 324.9 84.2 325 84.3 325C85.3 326 86.7 326.1 88.1 326.1C89.2 326.1 90.3 326.1 91.4 326.1C92.8 326 94.1 326 95.4 325.8C96.2 325.7 97.1 325.5 97.9 325.1C97.9 325.1 98 325.2 98 325.1C98.1 325.1 98.2 325 98.2 324.9C98.3 324.9 98.3 324.9 98.3 324.9C98.4 324.8 98.4 324.8 98.5 324.7C99.1 324.1 99.3 323.2 99.3 322.3C99.2 320.8 98.4 319.6 98.1 318.2C98 317.7 98.1 317.1 98.1 316.6C98.2 315.9 98.2 315.3 98.3 314.6C98.4 313.6 98.5 312.6 98.6 311.6C98.6 311.2 98.7 310.8 98.9 310.4C99.1 310 99.2 309.5 99.3 309C99.3 308.6 99.1 308.1 98.9 307.8C98.5 307.3 97.9 307.2 97.3 307.3C96.7 307.4 96.1 307.7 95.5 307.9C95.4 307.9 95.3 308 95.3 308C95.1 308 95.3 308 95.2 308C95.1 308 94.9 308 94.8 308C93.8 308.1 92.8 308.2 91.8 308.2C91.6 308.2 91.5 308.2 91.3 308.2C90.3 308.2 89.3 308.3 88.3 308.2C87.8 308.2 87.1 308.2 86.6 308C86.4 307.9 86.2 307.6 86 307.5C85.7 307.3 85.4 307.2 85 307.3C83.5 307.6 83.5 310 83.8 311.1C83.9 311.6 84.1 311.9 84.4 312.2C84.6 312.4 84.7 312.8 84.8 313.1C84.8 313.4 84.9 313.7 84.9 314.1C84.9 315.8 85.2 317.6 84.8 319.3C84.4 321 82.7 323.1 84.1 324.8ZM84.7 304.2C84.8 304.2 84.8 304.2 84.8 304.2C86.4 305.4 88.7 305.5 90.6 305.6C92.6 305.7 95 305.6 96.9 304.7C97.8 304.2 98.7 303.4 98.7 302.2C98.7 301.1 97.9 300.1 97.8 298.9C97.5 296.7 97.5 294.4 97.7 292.2C97.8 291 98.3 289.7 98.5 288.4C98.8 287.2 99.2 285.7 98.3 284.5C97 283 94.5 283 92.6 283C90.6 282.9 88.2 282.8 86.2 283.5C85.1 283.9 84.3 284.8 84.4 286C84.4 286.8 84.7 287.5 84.9 288.2C85.1 289.2 85.2 290.2 85.2 291.2C85.1 293.5 85.1 295.7 85 297.9C85 298.4 85 298.9 84.9 299.3C84.8 299.9 84.6 300.3 84.3 300.8C83.9 301.9 83.7 303.3 84.7 304.2ZM107.7 320.5C108.2 318.9 109.1 317.4 110 315.9C111.6 313.5 113.5 310.9 115.6 308.9C116.3 308.1 117.6 307.4 117 306.2C116.6 305.3 115.2 305 114.5 304.5C113.3 303.7 112.3 302.9 112 301.5C111.7 300.4 111.5 299.3 111.2 298.2C111 297.6 110.8 296.6 110.1 296.4C109.1 296 108.3 297.1 107.9 298C106.3 300.7 105.2 303.4 102.7 305.5C101.9 306.1 101.2 306.7 101.2 307.9C101.2 308.9 101.4 309.9 101.3 310.9C101.2 312.3 100.6 313.6 100.4 315C100.2 316.2 100.3 317.4 100.4 318.7C100.7 320.7 100.7 323.1 102.5 324.5C104.1 325.7 106.2 325.3 107 323.3C107.3 322.4 107.3 321.4 107.7 320.5ZM112.9 298.4C113.1 299 113.3 299.6 113.5 300.2C113.7 300.7 113.8 301.2 114 301.6C114.4 302.1 115.1 302.6 115.6 303C116.3 303.4 117 303.8 117.7 304.1C118.1 304.4 118.9 304.8 119.4 304.5C119.4 304.5 119.4 304.5 119.5 304.5C120.4 304 121 303.2 121.1 302.2C121.2 301.5 121.3 301 121.8 300.4C122.1 300.1 122.4 299.7 122.7 299.4C124.6 297.2 126.6 294.8 129 293.1C130.4 292 132.3 291 133.1 289.3C133.5 288.1 133.4 286.9 132.5 286C130.7 284 127.3 283.6 124.7 283.3C123.9 283.2 122.9 283.1 122.1 283.3C121.2 283.5 120.8 284.2 120.5 285C120.2 285.8 119.9 286.4 119.3 287.1C117.9 289 116.4 290.9 114.6 292.4C114.2 292.8 113.8 293 113.3 293.2C112.9 293.3 112.4 293.4 112 293.6C111.2 294 111.1 294.8 111.6 295.5C112.2 296.4 112.5 297.4 112.9 298.4ZM136 346.5C136 345.3 134.5 344.5 133.5 343.9C132.1 343 130.9 342 130 340.5C129.3 339.4 128.8 338.2 128.5 336.9C128.2 335.7 127.8 334 126.4 333.6C124.9 333.2 123.9 335 123.2 336.1C122.8 336.8 122.3 337.3 121.5 337.6C121 337.7 120.6 337.9 120.1 338.1C118.9 338.5 117.7 339 116.6 339.7C115.5 340.4 115.4 341 115.9 342.2C116.2 343 116.7 343.8 117.3 344.4C117.7 344.8 118 345.1 118.3 345.6C119.2 347 120.4 348.6 120.3 350.4C120.3 350.5 120.4 350.6 120.4 350.6C120.5 350.8 120.6 350.8 120.7 350.9C120.7 350.9 120.7 351 120.8 351C121.4 351.2 122.2 351.2 122.9 351.2C124.1 351.1 125.3 351 126.5 350.8C129 350.4 131.7 349.9 133.9 348.7C134.8 348.3 135.7 347.6 136 346.7C136 346.6 136 346.6 136 346.6V346.5ZM124.7 330.6C124.5 329.5 123.4 328.8 122.6 328.1C121.5 327.1 120.6 325.9 119.7 324.8C118.6 323.4 117.5 322.2 116.5 320.8C115.9 320 115.9 318.9 115.2 318.1C114.7 317.5 113.8 317.4 113.1 317.4C112.3 317.4 111.3 317.5 110.8 318.2C110 319.2 109.5 320.6 109.2 321.8C109 322.6 108.9 323.5 108.7 324.3C108.4 325.4 107.8 326.3 107.1 327.2C106.6 327.9 106.3 328.8 106.8 329.5C107.2 330.1 107.8 330.3 108.4 330.6C109.6 331.3 110 332.4 110.7 333.5C111.1 333.9 111.4 334.3 111.8 334.7C112.6 335.3 112.6 335.9 112.7 336.8C113.7 341.1 120.1 335.6 121.6 334.3C122.6 333.5 124.8 332.1 124.7 330.6ZM137.77 320.4C138.07 320.9 138.57 321.4 139.07 321.7C139.27 321.9 139.57 322 139.87 322.1C140.27 322.2 140.67 322.3 141.07 322.2C141.17 322.2 141.17 322.2 141.17 322.2V322.1C140.87 321.5 140.57 320.9 140.07 320.4C139.87 320.2 139.67 320 139.37 319.9C139.07 319.7 138.67 319.6 138.37 319.6C138.07 319.5 137.47 319.5 137.47 319.8C137.47 319.9 137.47 320 137.57 320.1C137.67 320.2 137.67 320.3 137.77 320.4ZM141.17 323.2C141.07 323.1 141.07 323.1 140.97 323.1C139.97 323.3 138.97 323.7 138.07 324.2C137.17 324.8 136.67 325.7 136.37 326.7C136.27 327 136.07 327.8 136.57 327.9C136.87 327.9 137.27 327.7 137.57 327.6C138.37 327.3 139.17 326.8 139.77 326.2C140.57 325.5 141.07 324.4 141.17 323.4V323.3C141.17 323.3 141.17 323.3 141.17 323.2ZM175.97 321.2C176.97 322.4 178.67 322.5 180.07 322.5C181.27 322.5 182.47 322.4 183.67 322.2C185.07 322.1 186.47 321.9 187.87 321.6C188.77 321.4 189.67 321.2 190.47 320.8C190.57 320.8 190.57 320.9 190.67 320.8C191.67 320.3 192.07 319 192.17 318C192.27 316.5 191.47 315.2 191.07 313.8C190.97 313.3 190.97 312.7 190.97 312.2C191.07 311.5 191.07 310.9 191.17 310.2C191.27 309.7 191.37 309.1 191.47 308.6C191.47 308.5 191.47 308.5 191.47 308.5C191.47 308 191.57 307.5 191.77 307.1C191.87 306.7 191.97 306.4 192.07 306C192.27 305.3 192.37 304.5 191.87 303.9C191.57 303.5 191.07 303.3 190.57 303.2C190.17 303.2 189.87 303.3 189.47 303.4C188.77 303.6 188.17 303.8 187.57 304C186.67 304.3 185.67 304.6 184.67 304.5C184.57 304.5 184.57 304.6 184.57 304.6C183.27 304.7 181.97 304.7 180.67 304.7C180.07 304.8 179.37 304.8 178.77 304.8C178.57 304.7 178.47 304.7 178.27 304.7C178.17 304.6 177.97 304.4 177.77 304.3C175.97 303.4 175.47 306.1 175.57 307.3C175.57 308.3 176.17 309.1 176.57 310C176.77 310.4 176.77 310.8 176.87 311.3C176.87 311.3 176.77 311.3 176.77 311.4C176.67 312.8 177.07 314.3 176.67 315.7C176.17 317.4 174.57 319.6 175.97 321.2ZM176.57 300.9C176.67 301 176.67 301 176.67 301C177.67 301.7 179.07 301.9 180.27 302C181.97 302.1 183.77 302 185.47 301.8C186.87 301.6 188.37 301.3 189.67 300.7C190.37 300.4 190.97 300 191.37 299.3C191.87 298.3 191.47 297.4 191.17 296.5C190.87 295.7 190.47 294.7 190.57 293.9C190.67 293.5 190.87 293.1 190.97 292.6C191.17 292 191.27 291.3 191.47 290.6C191.67 289.5 192.07 288.2 191.77 287.2C191.47 286.3 190.67 285.7 189.87 285.3C188.67 284.8 187.17 284.9 185.97 285C184.17 285.1 182.47 285.3 180.77 285.6C179.37 285.8 177.17 285.9 176.47 287.4C175.87 288.6 176.57 289.9 176.77 291C176.97 291.8 177.07 292.6 177.07 293.5C177.07 293.8 177.07 294.2 176.97 294.6V295C176.97 295.1 176.97 295.3 176.97 295.4C176.97 295.4 176.97 295.4 176.97 295.5C176.97 295.5 176.87 295.6 176.77 295.8C176.57 296.5 176.27 297.3 176.07 298C175.77 299 175.67 300.2 176.57 300.9ZM190.37 323.4C189.07 323.3 188.17 324.3 187.07 324.6C185.67 325 184.27 325 182.87 325C181.67 325 180.37 324.9 179.27 324.6C178.27 324.3 177.17 323.8 176.27 324.5C175.27 325.3 175.07 326.9 175.87 327.8C176.27 329 177.27 330.9 176.57 332.1C175.87 333.1 174.07 333.4 174.37 335C174.47 335.4 174.67 335.7 174.97 336.1C175.17 336.3 175.37 336.7 175.57 336.9C175.97 337.3 176.47 337.2 176.97 337.3C177.67 337.4 178.37 337.6 178.97 338.1C179.97 338.9 179.67 340.1 179.67 341.2C179.67 342.4 180.67 343.4 181.47 344.1C182.27 344.8 183.37 345.6 184.47 345.4C185.57 345.3 186.17 344.3 186.57 343.4C186.97 342.4 187.37 341.7 187.97 340.8C189.97 338.1 191.17 334.9 191.57 331.6C191.67 330.8 191.57 330 191.97 329.3C192.57 328.3 193.07 327.2 192.97 326.1C192.87 324.8 191.67 323.6 190.37 323.4ZM160.17 338.3C160.87 337.4 160.77 336 160.07 335.2C159.77 334.7 159.27 334.4 158.87 334.1C158.17 333.5 157.87 332.9 157.57 332C157.07 330.5 156.67 329 157.57 327.6C158.27 326.9 158.27 325.8 157.87 324.9C157.37 324 156.37 323.5 155.37 323.4C154.97 323.4 154.77 323.5 154.47 323.6C154.07 323.6 153.57 323.5 153.07 323.4C151.87 323.2 150.67 323 149.37 323C148.77 323 148.07 323.1 147.47 323.2C146.77 323.4 145.97 323.9 145.27 323.8C143.97 323.5 142.97 323.5 142.07 324.6C141.37 325.4 141.27 326.5 141.67 327.5C142.07 328.2 142.67 328.8 142.77 329.6C143.27 332.4 143.57 335.1 144.97 337.6C145.47 338.4 146.17 339.2 146.67 340C147.17 340.8 147.17 341.8 147.77 342.6C148.77 344 150.57 343.3 151.57 342.3C152.97 340.8 154.47 339.6 156.57 339.4C157.97 339.3 159.27 339.5 160.17 338.3ZM142.67 289.9C143.07 290.2 143.17 290.3 143.17 290.8C143.17 291.2 143.17 291.6 143.17 291.9C143.17 292 143.07 292.7 143.17 292.8C143.07 293 143.07 293.1 143.07 293.3C143.07 293.9 143.17 294.5 143.07 295.1C142.97 295.9 142.57 296.6 142.37 297.3C141.87 298.5 141.77 299.8 142.37 301C142.87 302 143.87 302.3 144.77 301.7C145.37 301.3 145.87 300.9 146.67 300.7C147.17 300.6 147.77 300.6 148.37 300.7C149.07 300.7 149.77 300.7 150.57 300.8C152.27 300.9 154.27 300.9 155.87 301.3C158.27 302 158.07 297.9 157.47 296.6C156.17 293.7 157.07 290.5 157.97 287.5C158.67 285.1 155.57 284.7 153.97 284.6C151.77 284.4 149.47 284.3 147.37 284.4C145.47 284.6 142.97 285.4 141.97 287.1C141.77 287.5 141.67 288 141.67 288.5C141.77 289.2 142.17 289.5 142.67 289.9ZM157.47 304.7C156.97 304.1 155.77 304 155.07 303.9C153.77 303.7 152.47 303.6 151.17 303.5C150.17 303.5 149.27 303.4 148.27 303.4C146.67 303.4 145.07 303.4 143.57 304.2C143.57 304.2 143.47 304.2 143.37 304.3C142.27 304.9 141.87 306.4 141.87 307.6C141.97 308.5 142.27 309.2 142.57 310C142.77 310.4 142.87 310.9 142.97 311.3C143.07 311.4 143.07 311.4 143.07 311.5C143.07 311.6 143.07 311.7 143.07 311.8C142.97 312.4 142.97 313.1 142.87 313.8C142.77 314.7 142.67 315.6 142.67 316.6H142.57C142.57 317.3 142.37 318 142.17 318.7C141.97 319.3 141.77 319.9 141.87 320.5C141.97 320.8 142.07 321.1 142.37 321.4C142.67 321.7 143.17 321.8 143.57 321.8C144.17 321.9 144.77 321.6 145.37 321.4C145.67 321.3 146.17 321.1 146.57 321C147.07 320.8 147.57 320.7 148.07 320.8C148.07 320.8 148.07 320.8 148.17 320.8C148.77 320.7 149.47 320.8 150.07 320.8C151.37 320.9 152.67 320.9 153.87 321C154.37 321.1 154.77 321.1 155.17 321.2L155.27 321.3C155.57 321.5 155.87 321.7 156.27 321.7C157.97 321.8 158.07 319.3 157.87 318.1C157.67 317.2 157.07 316.5 156.87 315.6C156.77 315.1 156.67 314.7 156.67 314.2C156.67 312.9 156.37 311.5 156.77 310.2C157.27 308.5 158.87 306.3 157.47 304.7ZM174.47 338C173.97 338 173.37 338 172.87 338.3C172.27 338.7 171.87 339.3 171.27 339.5C169.77 340.1 167.87 339.5 166.47 339C165.27 338.6 164.47 338 163.17 338.1C162.07 338.3 161.97 338.7 161.37 339.5C160.87 340.3 159.67 340.6 158.87 340.9C157.67 341.3 156.57 341.6 155.37 342C153.87 342.5 152.07 343.3 151.77 345.1C151.57 347.2 153.27 349 155.07 349.8C159.77 351.9 165.17 352 170.27 351.7C173.17 351.6 176.17 351 178.57 349.3C179.47 348.6 180.37 348 180.17 346.7C179.97 345.3 178.77 344.2 178.37 342.8C177.97 340.4 177.27 338.2 174.47 338ZM199.282 322.2C199.682 322.7 200.182 323.1 200.782 323.3C200.982 323.5 201.282 323.5 201.582 323.6C201.982 323.6 202.382 323.6 202.782 323.6L202.882 323.5C202.882 323.5 202.882 323.5 202.882 323.4C202.482 322.9 202.082 322.3 201.582 321.9C201.382 321.7 201.082 321.6 200.882 321.4C200.482 321.3 200.082 321.3 199.682 321.3C199.482 321.3 198.882 321.3 198.882 321.6C198.882 321.7 198.982 321.8 199.082 321.9C199.082 322 199.182 322.1 199.282 322.2ZM203.082 324.5C203.082 324.5 203.082 324.5 202.982 324.5C202.982 324.5 202.982 324.4 202.882 324.4H202.782C201.882 324.8 200.882 325.3 200.082 325.9C199.282 326.7 198.882 327.6 198.782 328.7C198.782 329 198.682 329.8 199.182 329.8C199.482 329.8 199.882 329.5 200.182 329.4C200.882 328.9 201.582 328.3 202.082 327.7C202.782 326.8 203.082 325.7 203.082 324.7C203.082 324.6 203.082 324.6 203.082 324.6C203.082 324.6 203.082 324.6 203.082 324.5ZM218.082 345C217.582 344.2 217.982 342.6 217.982 341.7C217.982 339.7 217.982 337.7 217.982 335.7C217.982 334.8 217.982 333.8 218.082 332.8C218.082 331.7 218.582 330.8 218.882 329.7C219.282 328.5 219.282 327.1 218.582 326C217.982 325 217.082 325.2 216.282 325.7C215.182 326.2 213.882 326.3 212.782 326.5C211.482 326.6 210.282 326.6 208.982 326.6C208.582 326.6 208.082 326.6 207.582 326.5C206.882 326.4 206.082 325.9 205.382 325.9C203.282 325.8 203.482 329.2 203.982 330.4C204.882 332.9 204.782 335.7 204.782 338.2C204.682 341.4 204.482 344.7 203.582 347.7C202.982 350.3 206.182 350.5 207.982 350.6C210.182 350.8 212.682 351.1 214.882 350.6C216.682 350.3 220.282 348.7 219.282 346.2C218.982 345.6 218.382 345.5 218.082 345ZM204.082 322.4C204.182 322.5 204.182 322.5 204.282 322.6C205.282 323.5 206.782 323.6 208.182 323.7C209.282 323.7 210.382 323.7 211.482 323.7C212.782 323.6 214.182 323.5 215.482 323.3C216.282 323.2 217.182 323.1 217.882 322.7C217.982 322.7 217.982 322.7 218.082 322.7C218.182 322.6 218.182 322.6 218.282 322.5H218.382C218.382 322.4 218.482 322.3 218.482 322.3C219.082 321.7 219.382 320.7 219.282 319.8C219.282 318.4 218.382 317.1 218.182 315.7C218.082 315.2 218.082 314.7 218.182 314.2C218.182 313.5 218.282 312.8 218.282 312.1C218.382 311.2 218.482 310.2 218.582 309.2C218.682 308.8 218.782 308.4 218.882 308C219.082 307.6 219.282 307.1 219.282 306.6C219.282 306.2 219.182 305.7 218.982 305.3C218.582 304.8 217.982 304.7 217.382 304.8C216.682 304.9 216.182 305.3 215.482 305.5C215.482 305.5 215.382 305.5 215.282 305.5C215.182 305.6 215.282 305.5 215.282 305.5C215.082 305.6 214.982 305.6 214.782 305.6C213.782 305.7 212.782 305.7 211.782 305.8C211.682 305.8 211.482 305.8 211.382 305.8C210.382 305.8 209.382 305.8 208.382 305.8C207.782 305.8 207.182 305.8 206.682 305.5C206.382 305.4 206.282 305.2 205.982 305C205.682 304.9 205.382 304.8 205.082 304.9C203.582 305.2 203.582 307.5 203.782 308.7C203.882 309.1 204.182 309.4 204.482 309.8C204.682 310 204.682 310.3 204.782 310.7C204.882 311 204.882 311.3 204.982 311.6C204.882 313.4 205.182 315.1 204.782 316.8C204.382 318.5 202.782 320.7 204.082 322.4ZM204.782 301.8C204.782 301.8 204.782 301.8 204.882 301.8C206.182 302.8 208.082 303 209.682 303.1C211.582 303.3 213.582 303.2 215.482 302.8C217.182 302.4 219.182 301.2 218.582 299.1C218.482 298.6 218.182 298.1 217.982 297.5C217.782 296.8 217.682 296.1 217.582 295.4C217.582 294.3 217.982 293.3 218.182 292.3C218.382 291.1 218.482 290 218.582 288.9C218.782 287.9 219.082 286.7 218.782 285.7C218.182 283.8 215.882 283.5 214.182 283.4C212.182 283.3 210.082 283.3 208.082 283.5C206.182 283.8 204.082 284.5 204.482 286.8C204.582 287.4 204.782 288.1 204.982 288.7C205.082 289.4 205.082 290 205.182 290.6C205.182 291.9 205.182 293.1 205.182 294.4C205.182 295.1 205.182 295.9 205.082 296.6C204.882 297.4 204.582 297.9 204.282 298.6C203.882 299.6 203.782 300.9 204.682 301.7C204.782 301.8 204.782 301.7 204.782 301.8ZM221.582 295.8C222.382 296.3 223.182 296.1 223.982 295.7C224.382 295.5 224.882 295.2 225.282 295C226.082 294.7 226.782 294.8 227.582 294.9C229.082 295 231.082 295.2 232.282 296.3C233.082 297 233.082 297 233.982 297.7C234.782 298.2 235.882 298.6 236.682 298.2C237.582 297.8 237.582 297.5 237.482 296.7C237.482 295.4 237.782 294.7 238.482 293.5C238.982 292.6 239.882 292.2 240.982 292.3C242.082 292.3 243.082 292.3 243.682 291.2C244.082 290.2 243.682 289.5 242.882 288.8C240.382 286.8 238.382 284.2 229.782 284C228.982 284 228.582 283.8 226.982 284C226.282 284.1 225.382 284.4 224.782 284.1C223.682 283.6 223.182 283.2 221.882 283.5C220.882 283.6 220.382 284.6 220.482 285.5C220.482 286.2 220.882 286.9 221.082 287.6C221.482 288.6 221.282 289.5 220.982 290.4C220.482 292.1 219.682 294.8 221.582 295.8ZM249.882 297.5C249.382 296.3 248.582 294.8 247.782 293.7C245.182 290.2 245.482 293.7 243.682 293.9C242.782 294 241.582 294.2 240.682 295C239.982 295.6 239.282 296.6 239.282 297.6C239.182 301.1 236.982 299.5 236.682 301C236.382 302.7 237.482 302.6 237.482 303.2C237.482 306.7 235.682 308.8 233.982 309.4C231.782 310.2 229.882 310.1 228.582 310C227.082 310 225.282 310 224.082 309.2C223.182 308.7 222.182 307.4 221.182 308.5C220.582 309.2 220.082 310.5 219.982 311.5V311.6C219.982 311.7 219.882 311.8 219.882 311.9C219.782 313.1 219.882 314.4 220.282 315.5C220.482 316.1 220.682 316.6 220.982 317.1C221.282 317.5 221.582 317.8 221.682 318.2C221.882 319.5 221.282 321.9 222.682 322.6C223.482 323.1 224.382 322.4 225.082 321.9C226.082 321.2 227.482 321.3 228.682 321.4C229.982 321.4 230.982 321.8 232.182 322.4C234.182 323.3 234.982 322.7 235.582 321.9C236.782 319.8 238.182 322.5 239.482 318.9C239.982 317.7 242.582 318 243.482 317.7C245.582 317.1 246.682 315.4 247.982 313.7C249.582 311.6 250.182 309.1 250.682 306.6C251.382 303.5 251.182 300.4 249.882 297.5ZM245.082 342.4C243.582 341.4 243.282 342 242.182 341.9C240.482 341.6 239.282 339.5 239.182 339.1C239.082 338.6 239.082 338.2 239.082 337.7C239.082 336.7 238.682 335.8 237.582 335.7C236.282 335.6 235.682 336.3 234.782 337.3C234.182 338.1 233.282 339.8 229.782 340C227.982 340.1 225.482 340.7 223.782 339.3C223.082 338.6 222.182 338.6 221.282 339.2C220.282 339.9 220.082 341 220.182 342.1C220.282 343 220.582 343.5 220.982 344.2C221.482 345.1 222.682 346.5 222.282 347.6C221.882 348.7 220.882 348.9 220.782 350.2C220.782 351.2 221.782 351.3 222.782 351.3C226.382 351.4 226.682 351.2 229.682 350.9C231.382 350.7 236.282 349.7 239.882 348.7C242.382 348 247.682 345 248.382 342.3C248.782 340.8 246.582 343.4 245.082 342.4ZM246.282 319.8C245.282 319.1 244.882 320.1 243.682 319.9C242.282 319.7 241.482 320.2 241.082 321C240.782 321.6 240.182 323.3 238.282 323C237.682 322.9 236.582 323.5 236.382 324.1C236.082 325.3 236.982 325.9 237.682 327.4C238.182 328.4 238.182 329.8 238.182 330.9C238.182 331.7 237.982 332.8 238.382 333.5C238.782 334.1 239.482 334.4 240.082 334.8C240.682 335.4 240.682 336.1 240.782 336.8C240.982 338.4 242.082 339.2 243.582 339.5C245.282 340 247.682 340 249.082 338.7C249.682 338 249.882 336.8 250.082 335.9C250.382 334.6 250.482 333.3 250.482 332.1C250.582 330.2 250.582 328.3 249.982 326.5C249.282 324.4 248.082 321.2 246.282 319.8ZM265.111 295.1C265.311 295.4 265.611 295.7 265.911 295.9C265.911 296 265.911 295.9 265.911 296C266.011 296 266.011 296 266.011 296C266.011 295.9 266.011 295.9 266.111 295.9C266.211 295.3 266.311 294.6 266.311 293.9C266.311 293.6 266.211 293.3 266.111 293.1C265.911 292.7 265.711 292.4 265.411 292.1C265.311 292 264.911 291.6 264.611 291.8C264.611 291.9 264.511 292 264.511 292.1C264.511 292.2 264.511 292.3 264.511 292.5C264.411 293.1 264.511 293.7 264.711 294.3C264.811 294.6 264.911 294.8 265.111 295.1ZM259.811 298C260.711 298.2 261.611 298.3 262.411 298.2C263.511 298.2 264.511 297.6 265.311 296.9C265.311 296.8 265.311 296.8 265.411 296.8C265.411 296.8 265.411 296.8 265.411 296.7C265.411 296.7 265.411 296.6 265.311 296.6V296.5C264.311 296.1 263.411 295.7 262.311 295.6C261.311 295.5 260.311 295.9 259.411 296.5C259.211 296.7 258.511 297.2 258.911 297.6C259.111 297.8 259.511 297.9 259.811 298ZM319.811 336.7C319.511 336.5 319.111 336.4 318.711 336.3C318.411 336.3 318.111 336.4 317.811 336.4C317.211 336.6 316.611 336.9 316.111 337.3C316.111 337.3 316.111 337.3 316.011 337.3C316.011 337.3 316.011 337.3 316.011 337.4C316.011 337.4 316.011 337.4 316.111 337.4C316.111 337.4 316.111 337.4 316.111 337.5C316.411 337.7 316.811 337.8 317.211 338C317.511 338.1 317.811 338.1 318.011 338.1C318.711 338.1 319.311 337.9 319.811 337.7C319.911 337.6 320.111 337.6 320.211 337.5C320.311 337.5 320.411 337.4 320.411 337.3C320.611 337 320.011 336.8 319.811 336.7ZM315.711 338.3C315.711 338.2 315.711 338.3 315.711 338.2C315.711 338.2 315.711 338.2 315.611 338.2H315.511C315.511 338.2 315.511 338.2 315.411 338.3C315.411 338.3 315.411 338.3 315.311 338.4C314.911 339.3 314.811 340.5 315.011 341.5C315.211 342.3 315.611 343.1 316.111 343.9C316.311 344.1 316.511 344.5 316.811 344.6C317.311 344.9 317.611 344.1 317.711 343.8C318.011 342.7 318.011 341.7 317.511 340.7C317.111 339.8 316.411 339 315.711 338.3ZM273.311 325C273.211 323.5 272.211 322.3 272.011 320.8C271.711 319.2 271.511 317.5 271.711 315.9C271.911 312.7 273.311 309.6 275.711 307.4C277.011 306.7 278.111 305.2 277.911 303.7C277.711 302.8 277.511 302 276.811 301.5C276.211 301.1 275.611 301.3 275.011 301.4C273.911 301.5 272.911 301.7 271.911 301.3C271.111 301 270.511 300.4 269.811 299.9C268.511 298.9 266.911 298.3 265.211 298.9C263.611 299.4 262.011 301.1 262.011 302.9C258.911 307.2 257.311 312.3 257.211 317.7C257.211 320.2 257.511 322.8 258.011 325.3C258.311 326.6 258.611 327.9 258.711 329.2C258.811 330.2 259.511 332.3 260.411 332.2C263.911 331.1 265.811 332.1 268.111 331C270.211 330.1 273.611 327.7 273.311 325ZM269.111 296.6C270.911 296.8 271.811 299 272.711 299.1C275.811 299.6 276.211 298.3 277.411 298.5C278.611 298.7 278.711 301.5 279.911 301.2C281.311 300.9 281.711 300.9 282.611 299.7C283.811 298 289.811 296 293.811 296.9C297.211 297.7 301.511 300.2 304.011 303.8C304.611 304.8 305.011 306.1 305.911 306.9C306.711 307.5 308.411 307.2 309.111 306.6C309.611 306.1 310.011 305.4 310.311 304.7C310.511 304 310.511 303.3 311.311 303C312.011 302.7 312.811 302.4 313.611 302.2C314.511 301.9 315.411 301.8 316.111 301.3C317.611 300.4 317.711 298.6 316.711 297.6C316.211 297.1 314.311 295.8 314.011 295.2C311.711 291 310.411 289.9 307.311 287.7C304.311 285.7 297.711 281 281.011 284.5C279.611 284.8 275.011 286.7 271.311 289.6C270.211 290.5 268.911 291 268.011 292.5C267.411 293.5 266.411 296.2 269.111 296.6ZM318.511 332.7C320.811 327.9 322.711 322.7 322.311 317.3C322.111 314.8 321.611 312.4 321.111 310C320.811 308.3 321.011 305.6 319.711 304.4C318.411 303.1 316.111 302.8 314.611 303.9C314.211 304.2 314.011 304.5 313.811 304.8C313.411 305.4 313.011 305.9 312.411 306.4C311.711 307 310.911 307.5 310.011 307.9C308.911 308.4 307.211 309 307.511 310.4C308.011 312.3 308.411 313.3 308.511 314.5C308.611 314.9 308.611 315.8 308.411 318.7C308.211 322.3 306.411 324.2 306.311 325.2C306.211 326.6 306.511 327.1 307.611 328.3C308.111 328.8 308.711 329.3 309.411 329.7C310.111 330.1 311.111 330.1 311.711 330.6C312.411 331.2 312.411 332.2 312.711 333C313.411 334.4 316.011 338.1 318.511 332.7ZM311.311 335.6C309.411 334.9 308.711 332.2 307.411 330.6C306.811 329.9 305.811 329.3 304.811 329.2C303.511 329 302.511 330.1 301.611 330.9C299.911 332.4 298.511 334.3 296.711 335.6C295.311 336.6 291.811 337.9 288.611 337.7C283.411 337.3 279.211 334.3 277.811 331.1C277.811 331 277.811 331 277.811 331C277.811 331 277.811 331 277.711 330.9C277.011 329.8 276.511 328 274.811 328.3C273.111 328.6 273.111 330.8 271.911 331.7C270.711 332.6 269.111 333.1 267.711 333.6C266.111 334 264.611 333.7 263.011 334.1C261.111 334.5 260.711 336 261.811 337.7C262.311 338.6 262.811 338.9 263.611 339.4C267.011 341.6 267.311 343.1 270.211 345.5C279.811 353.4 294.611 353.6 301.911 349.8C306.111 347.8 309.111 345.1 312.011 342.2C312.011 342.1 312.011 342.1 312.111 342.1C312.811 341 313.911 340.1 313.711 338.6C313.511 337.3 312.611 336.1 311.311 335.6Z" fill="white"/>
<path d="M444.8 300.8C444.5 300.6 444.1 300.5 443.8 300.4C443.6 300.3 443 300.2 442.9 300.5C442.9 300.6 442.9 300.7 443 300.8C443 300.9 443 301 443.1 301.1C443.4 301.7 443.7 302.2 444.2 302.6C444.4 302.8 444.6 303 444.9 303.1C445.3 303.2 445.7 303.4 446.1 303.4H446.2V303.3C446 302.6 445.8 302 445.4 301.5C445.3 301.2 445.1 301 444.8 300.8ZM446.1 304.4C446.1 304.4 446.1 304.4 446 304.4C446 304.3 446 304.3 445.9 304.3V304.2C444.8 304.3 443.8 304.5 442.9 304.9C441.9 305.4 441.2 306.2 440.8 307.2C440.7 307.5 440.4 308.2 440.9 308.4C441.2 308.4 441.6 308.3 441.9 308.2C442.7 308 443.6 307.6 444.3 307.1C445.1 306.5 445.8 305.6 446.1 304.6C446.1 304.5 446.1 304.5 446.1 304.5V304.4ZM460.5 325.8C460 325.7 459.5 325.9 459.1 326.1C458.6 326.4 458.1 326.6 457.5 326.7C455.1 327.2 452 327.5 449.6 326.9C448.6 326.6 447.6 326 446.9 327.1C446.3 328 446.2 329.3 446.4 330.2C446.7 331.4 447.1 332.4 447.3 333.5C447.5 335.1 447.5 336.7 447.5 338.3C447.4 341.6 447.2 345.1 446.3 348.2C445.6 351 449.4 351.1 451.2 351.1C452.6 351.2 453.9 351.2 455.3 351.2C456.4 351.2 457.5 351.3 458.6 351.1C460.6 350.8 461.4 349.2 461.2 347.3C461.1 346.6 460.9 345.9 460.7 345.2C460.4 344 460.7 342.1 460.7 340.7C460.7 338.6 460.7 336.4 460.7 334.3C460.7 333.2 460.9 332.2 461.2 331.2C461.5 330.4 461.9 329.6 461.9 328.7C461.9 327.7 461.5 326.2 460.5 325.8ZM460.9 314.7C460.9 314.1 461 313.4 461 312.7C461.1 311.7 461.2 310.7 461.3 309.8C461.3 309.8 461.3 309.8 461.3 309.7C461.4 309.3 461.5 309 461.6 308.6C461.8 308.1 462 307.7 462 307.2C462 306.7 461.9 306.3 461.6 305.9C461.3 305.4 460.7 305.3 460.1 305.4C459.4 305.5 458.8 305.8 458.2 306C458.1 306.1 458.1 306.1 458 306.1C457.9 306.1 458 306.1 458 306.1C457.8 306.1 457.7 306.1 457.5 306.1C456.5 306.2 455.5 306.3 454.5 306.3C454.4 306.3 454.2 306.3 454.1 306.3C453.1 306.4 452.1 306.4 451.1 306.4C450.5 306.3 449.9 306.3 449.4 306.1C449.1 306 449 305.7 448.7 305.6C448.4 305.4 448.1 305.4 447.8 305.4C446.3 305.7 446.3 308.1 446.5 309.2C446.6 309.7 446.8 310 447.1 310.3C447.4 310.6 447.4 310.9 447.5 311.2C447.6 311.5 447.6 311.9 447.6 312.2C447.6 313.9 447.9 315.7 447.5 317.4C447.1 319.1 445.5 321.3 446.8 323C446.9 323 446.9 323.1 447 323.1C448 324.1 449.5 324.2 450.8 324.2C451.9 324.3 453.1 324.3 454.2 324.2C455.5 324.2 456.8 324.1 458.2 323.9C459 323.8 459.9 323.6 460.6 323.3C460.7 323.2 460.7 323.3 460.8 323.2C460.9 323.2 460.9 323.1 461 323.1C461 323.1 461 323 461.1 323L461.2 322.9C461.8 322.2 462.1 321.3 462 320.4C461.9 319 461.1 317.7 460.8 316.3C460.7 315.8 460.8 315.3 460.9 314.7ZM447.5 302.3C447.5 302.3 447.5 302.3 447.5 302.4C449.1 303.5 451.5 303.7 453.4 303.7C455.4 303.8 457.8 303.7 459.6 302.8C460.6 302.3 461.4 301.5 461.4 300.3C461.4 299.2 460.7 298.2 460.5 297.1C460.3 294.9 460.2 292.5 460.4 290.4C460.6 289.1 461 287.8 461.3 286.6C461.5 285.3 462 283.8 461.1 282.7C459.8 281.1 457.2 281.1 455.4 281.1C453.3 281 450.9 281 449 281.6C447.8 282 447 282.9 447.1 284.2C447.1 284.9 447.4 285.6 447.6 286.3C447.9 287.3 447.9 288.3 447.9 289.4C447.9 291.6 447.8 293.8 447.7 296C447.7 296.5 447.7 297 447.7 297.5C447.6 298 447.3 298.4 447.1 298.9C446.6 300 446.5 301.4 447.4 302.3H447.5ZM478.4 316.1C478.3 315.3 478.3 314.5 478.3 313.8C478.4 312.9 479.1 311.7 478.5 310.9C477.9 310.1 476.5 310.9 475.9 311.3C475.2 311.6 474.6 312.1 473.9 312.3C473.1 312.7 472.3 312.8 471.5 312.9C469.7 313 468 312.9 466.3 312.1C465.1 311.5 463.7 311.6 463.3 313C463.2 313 463.3 313.1 463.3 313.1C463.3 313.2 463.2 313.2 463.2 313.3C463 315.2 464.1 318.1 464.2 320C464.3 321.4 463.4 322.2 463.9 323.6C464.3 324.3 464.8 325 465.7 325C466.8 325.1 467.6 324.2 468.6 324C469.3 323.9 470.1 323.9 470.8 323.9C471.4 323.9 472 323.9 472.6 323.9C473.3 324 473.9 324 474.6 324.2C475.3 324.4 476 324.7 476.8 324.7C478.4 324.6 480.6 323.7 479.6 321.7C478.7 320 478.6 317.9 478.4 316.1ZM481.8 296C482 295.1 482 294.1 482.4 293.3C482.8 292.3 482.8 291.5 484.2 290.7C484.8 290.3 485.2 290.5 485.8 290.5C486.4 290.4 486.8 290.1 487.1 289.7C488.7 287.4 486.2 284.5 483.9 284.2C480.5 283.7 477.5 282 474 281.8C473.1 281.7 472.1 281.8 471.2 281.8C470.7 281.8 470.1 281.9 469.6 281.9C469.2 282 468.6 282.2 468.2 282C467.7 281.9 467.3 281.5 466.9 281.3C466.3 281 465.7 281.1 465 281.3C463.9 281.5 463.5 282.8 463.7 283.9C463.8 284.5 464.2 285.1 464.3 285.8C464.4 286.4 464.1 287.1 464 287.7C463.6 289.2 462.6 290.8 462.6 292.4C462.6 294.2 464.2 294.5 465.7 294.2C466.9 293.9 468 293.1 469.3 292.8C470.6 292.5 472.5 292.9 473.8 293.4C474.7 293.6 475.8 294.1 476.4 294.9C476.8 295.5 477 296.1 477.3 296.7C477.9 297.6 478.8 298.2 479.9 298C481.1 297.9 481.5 297 481.8 296ZM489.5 290.1C488.6 292.3 484.3 293.2 484.7 296.1C484.9 297.9 481.5 299.1 482.4 301C482.9 302.1 484.1 304.3 484.2 305.4C484.2 305.9 484.1 308.2 482.9 309.6C482.5 310.2 481.9 310.4 481.4 310.7C479.7 311.6 480.8 313.1 480.9 314.8C481 316.5 480.8 316.6 480.7 318.3C480.5 320.3 481.9 321.7 482.8 322.2C483.9 322.8 485.2 322.6 486.3 322.3C489 321.8 490.2 319.8 492 317.8C494.4 315.2 495.8 312.7 496.2 306.4C496.8 297.3 491 286 489.5 290.1ZM506.528 295.1C506.728 295.4 507.028 295.7 507.328 295.9C507.328 296 507.328 295.9 507.328 296C507.428 296 507.428 296 507.428 296C507.428 295.9 507.428 295.9 507.528 295.9C507.628 295.3 507.728 294.6 507.728 293.9C507.728 293.6 507.628 293.3 507.528 293.1C507.328 292.7 507.128 292.4 506.828 292.1C506.728 292 506.328 291.6 506.028 291.8C506.028 291.9 505.928 292 505.928 292.1C505.928 292.2 505.928 292.3 505.928 292.5C505.828 293.1 505.928 293.7 506.128 294.3C506.228 294.6 506.328 294.8 506.528 295.1ZM501.228 298C502.128 298.2 503.028 298.3 503.828 298.2C504.928 298.2 505.928 297.6 506.728 296.9C506.728 296.8 506.728 296.8 506.828 296.8C506.828 296.8 506.828 296.8 506.828 296.7C506.828 296.7 506.828 296.6 506.728 296.6V296.5C505.728 296.1 504.828 295.7 503.728 295.6C502.728 295.5 501.728 295.9 500.828 296.5C500.628 296.7 499.928 297.2 500.328 297.6C500.528 297.8 500.928 297.9 501.228 298ZM561.228 336.7C560.928 336.5 560.528 336.4 560.128 336.3C559.828 336.3 559.528 336.4 559.228 336.4C558.628 336.6 558.028 336.9 557.528 337.3C557.528 337.3 557.528 337.3 557.428 337.3C557.428 337.3 557.428 337.3 557.428 337.4C557.428 337.4 557.428 337.4 557.528 337.4C557.528 337.4 557.528 337.4 557.528 337.5C557.828 337.7 558.228 337.8 558.628 338C558.928 338.1 559.228 338.1 559.428 338.1C560.128 338.1 560.728 337.9 561.228 337.7C561.328 337.6 561.528 337.6 561.628 337.5C561.728 337.5 561.828 337.4 561.828 337.3C562.028 337 561.428 336.8 561.228 336.7ZM557.128 338.3C557.128 338.2 557.128 338.3 557.128 338.2C557.128 338.2 557.128 338.2 557.028 338.2H556.928C556.928 338.2 556.928 338.2 556.828 338.3C556.828 338.3 556.828 338.3 556.728 338.4C556.328 339.3 556.228 340.5 556.428 341.5C556.628 342.3 557.028 343.1 557.528 343.9C557.728 344.1 557.928 344.5 558.228 344.6C558.728 344.9 559.028 344.1 559.128 343.8C559.428 342.7 559.428 341.7 558.928 340.7C558.528 339.8 557.828 339 557.128 338.3ZM514.728 325C514.628 323.5 513.628 322.3 513.428 320.8C513.128 319.2 512.928 317.5 513.128 315.9C513.328 312.7 514.728 309.6 517.128 307.4C518.428 306.7 519.528 305.2 519.328 303.7C519.128 302.8 518.928 302 518.228 301.5C517.628 301.1 517.028 301.3 516.428 301.4C515.328 301.5 514.328 301.7 513.328 301.3C512.528 301 511.928 300.4 511.228 299.9C509.928 298.9 508.328 298.3 506.628 298.9C505.028 299.4 503.428 301.1 503.428 302.9C500.328 307.2 498.728 312.3 498.628 317.7C498.628 320.2 498.928 322.8 499.428 325.3C499.728 326.6 500.028 327.9 500.128 329.2C500.228 330.2 500.928 332.3 501.828 332.2C505.328 331.1 507.228 332.1 509.528 331C511.628 330.1 515.028 327.7 514.728 325ZM510.528 296.6C512.328 296.8 513.228 299 514.128 299.1C517.228 299.6 517.628 298.3 518.828 298.5C520.028 298.7 520.128 301.5 521.328 301.2C522.728 300.9 523.128 300.9 524.028 299.7C525.228 298 531.228 296 535.228 296.9C538.628 297.7 542.928 300.2 545.428 303.8C546.028 304.8 546.428 306.1 547.328 306.9C548.128 307.5 549.828 307.2 550.528 306.6C551.028 306.1 551.428 305.4 551.728 304.7C551.928 304 551.928 303.3 552.728 303C553.428 302.7 554.228 302.4 555.028 302.2C555.928 301.9 556.828 301.8 557.528 301.3C559.028 300.4 559.128 298.6 558.128 297.6C557.628 297.1 555.728 295.8 555.428 295.2C553.128 291 551.828 289.9 548.728 287.7C545.728 285.7 539.128 281 522.428 284.5C521.028 284.8 516.428 286.7 512.728 289.6C511.628 290.5 510.328 291 509.428 292.5C508.828 293.5 507.828 296.2 510.528 296.6ZM559.928 332.7C562.228 327.9 564.128 322.7 563.728 317.3C563.528 314.8 563.028 312.4 562.528 310C562.228 308.3 562.428 305.6 561.128 304.4C559.828 303.1 557.528 302.8 556.028 303.9C555.628 304.2 555.428 304.5 555.228 304.8C554.828 305.4 554.428 305.9 553.828 306.4C553.128 307 552.328 307.5 551.428 307.9C550.328 308.4 548.628 309 548.928 310.4C549.428 312.3 549.828 313.3 549.928 314.5C550.028 314.9 550.028 315.8 549.828 318.7C549.628 322.3 547.828 324.2 547.728 325.2C547.628 326.6 547.928 327.1 549.028 328.3C549.528 328.8 550.128 329.3 550.828 329.7C551.528 330.1 552.528 330.1 553.128 330.6C553.828 331.2 553.828 332.2 554.128 333C554.828 334.4 557.428 338.1 559.928 332.7ZM552.728 335.6C550.828 334.9 550.128 332.2 548.828 330.6C548.228 329.9 547.228 329.3 546.228 329.2C544.928 329 543.928 330.1 543.028 330.9C541.328 332.4 539.928 334.3 538.128 335.6C536.728 336.6 533.228 337.9 530.028 337.7C524.828 337.3 520.628 334.3 519.228 331.1C519.228 331 519.228 331 519.228 331C519.228 331 519.228 331 519.128 330.9C518.428 329.8 517.928 328 516.228 328.3C514.528 328.6 514.528 330.8 513.328 331.7C512.128 332.6 510.528 333.1 509.128 333.6C507.528 334 506.028 333.7 504.428 334.1C502.528 334.5 502.128 336 503.228 337.7C503.728 338.6 504.228 338.9 505.028 339.4C508.428 341.6 508.728 343.1 511.628 345.5C521.228 353.4 536.028 353.6 543.328 349.8C547.528 347.8 550.528 345.1 553.428 342.2C553.428 342.1 553.428 342.1 553.528 342.1C554.228 341 555.328 340.1 555.128 338.6C554.928 337.3 554.028 336.1 552.728 335.6ZM570.848 299.2C571.148 299.8 571.448 300.3 571.948 300.7C572.148 300.9 572.448 301 572.648 301.2C573.048 301.3 573.448 301.5 573.848 301.5H573.948C573.948 301.5 573.948 301.5 573.948 301.4C573.748 300.7 573.548 300.1 573.148 299.6C573.048 299.3 572.848 299.1 572.548 298.9C572.248 298.7 571.848 298.5 571.548 298.5C571.348 298.4 570.748 298.2 570.648 298.6C570.648 298.7 570.648 298.8 570.748 298.9C570.748 299 570.848 299.1 570.848 299.2ZM572.048 305.2C572.848 304.6 573.548 303.6 573.848 302.6V302.5C573.848 302.5 573.848 302.5 573.748 302.4C573.748 302.4 573.748 302.4 573.648 302.4C573.648 302.4 573.648 302.4 573.648 302.3C572.548 302.4 571.548 302.6 570.648 303C569.648 303.5 568.948 304.3 568.548 305.2C568.448 305.5 568.148 306.3 568.648 306.5C568.948 306.5 569.348 306.4 569.648 306.3C570.448 306.1 571.348 305.7 572.048 305.2ZM640.548 323.4C640.548 323.4 640.548 323.4 640.548 323.5C640.548 323.5 640.548 323.5 640.648 323.5C641.048 323.5 641.448 323.3 641.848 323.2C642.148 323.1 642.348 322.9 642.548 322.7C643.048 322.3 643.348 321.8 643.648 321.2C643.748 321.1 643.748 321 643.848 320.9C643.848 320.8 643.948 320.7 643.848 320.6C643.848 320.3 643.248 320.4 642.948 320.5C642.648 320.6 642.248 320.7 641.948 320.9C641.748 321.1 641.548 321.3 641.348 321.6C640.948 322.1 640.748 322.7 640.548 323.4ZM645.948 327.3C645.548 326.3 644.948 325.5 643.948 325C642.948 324.6 641.948 324.4 640.948 324.3C640.848 324.3 640.848 324.4 640.848 324.4C640.748 324.4 640.748 324.4 640.748 324.5L640.648 324.6C640.648 324.6 640.648 324.6 640.648 324.7C640.948 325.7 641.648 326.6 642.448 327.2C643.248 327.7 644.048 328.1 644.848 328.3C645.148 328.4 645.548 328.5 645.848 328.5C646.448 328.3 646.148 327.6 645.948 327.3ZM599.348 315.5C600.448 315.3 601.348 315.8 602.448 315.7C603.248 315.7 603.348 315 603.548 314.3C603.648 313.5 603.748 312.7 604.148 312.1C604.548 311.3 605.248 310.7 605.548 309.9C606.048 308.6 605.648 307.5 605.048 306.4C604.348 305.2 603.548 304.1 603.048 302.8C602.548 301.6 602.048 300.4 601.648 299.2C600.648 296.8 599.248 293.9 599.348 291.3C599.348 290.3 599.848 289.5 599.448 288.5C599.048 287.6 598.348 286.9 597.348 286.9C596.248 287 595.048 287.5 594.048 287.9C593.248 288.2 592.348 288.5 591.648 288.9C590.948 289.4 590.948 290 591.048 290.8C591.248 292.7 591.348 294.1 590.748 295.9C590.248 297.4 590.948 298.6 591.148 300.1C591.248 300.9 590.948 301 590.848 301.7C590.748 302.2 590.948 302.9 591.148 303.4C591.848 305.1 592.948 306.6 593.148 308.5C593.348 310.6 593.048 312.6 593.248 314.7C593.048 315.7 592.948 317.1 593.948 317.8C595.048 318.7 595.948 317.3 596.748 316.7C597.548 316.2 598.348 315.7 599.348 315.5ZM621.548 290.3C621.148 289.6 620.048 289.4 619.348 289.2C618.248 288.9 616.748 288.4 615.648 288.8C613.148 289.5 614.248 292.2 614.048 293.9C613.548 296.7 612.448 299.5 611.448 302.2C610.448 304.7 609.448 307.1 608.448 309.6C607.448 312 604.848 314 605.448 316.9C605.748 318.2 607.048 318 608.148 318C609.948 318.1 611.848 318.4 613.648 318.9C614.548 319.2 615.448 319.5 616.248 320C616.748 320.3 617.148 320.8 617.748 320.7C619.248 320.5 619.248 318.4 618.948 317.3C619.748 313.7 621.648 310.7 620.848 306.9C620.548 305.8 620.648 305.4 621.148 304.4C621.348 303.9 621.748 303.4 621.748 302.8C621.748 302.3 621.548 302.2 621.448 301.9C621.248 301 621.748 300.1 621.948 299.3C622.348 297.4 621.348 296.1 621.348 294.3C621.248 293.1 622.048 291.4 621.548 290.3ZM616.548 321.9C615.148 321.3 613.648 321.5 612.248 320.9C612.248 320.9 612.248 320.9 612.148 320.9V320.8C610.548 320.2 608.848 320.2 607.348 321C606.848 321.3 606.348 321.7 605.948 322.1C605.748 322.3 605.548 322.4 605.448 322.6C605.348 322.6 605.248 322.6 605.248 322.7C605.148 322.5 605.048 322.2 604.948 322C604.848 321.6 604.748 321.2 604.648 320.8C604.548 320.4 604.648 319.8 604.348 319.4C603.748 318.2 601.748 317.8 600.548 317.6C598.648 317.4 596.648 317.9 595.848 319.9C595.848 320 595.748 320 595.748 320C594.248 323.8 598.048 327.2 598.748 330.6C598.948 331.5 599.048 332.2 599.748 332.9C600.448 333.6 601.448 334.1 602.348 334.3C608.948 336.1 615.448 330.8 617.448 324.9C617.848 323.7 617.848 322.4 616.548 321.9ZM587.148 328.3C586.548 325.3 583.548 326.8 581.448 326.9C579.948 327 578.448 326.9 576.948 326.4C575.848 326 574.748 324.9 573.448 325.4C572.448 325.7 571.848 326.7 571.648 327.6C571.348 329 572.048 330.2 572.748 331.4C573.248 332.2 573.048 333.1 572.948 334.1C572.848 335.1 572.748 336.2 572.648 337.3L572.148 343.1C572.148 343.6 572.148 344.1 572.048 344.5C571.948 345.2 571.548 345.2 570.948 345.4C570.448 345.6 570.048 345.9 569.848 346.4C569.448 347.2 569.748 348 570.348 348.6C572.248 350.4 575.848 351.1 578.348 351.2C579.948 351.2 586.548 351.5 585.748 348.4C584.848 346 584.648 343.4 584.648 340.9C584.648 338.3 584.848 335.7 585.548 333.3C586.048 331.5 587.448 330.2 587.148 328.3ZM587.648 304.6C587.148 304.5 586.648 304.6 586.148 304.9C585.748 305.1 585.348 305.2 584.848 305.2C584.148 305.3 583.448 305.3 582.748 305.3C582.748 305.3 582.748 305.2 582.648 305.2C581.548 305.2 580.348 305 579.248 304.6C578.548 304.4 577.848 304.1 577.048 304C576.248 303.8 575.148 303.8 574.448 304.3C573.848 304.8 573.748 305.6 573.848 306.3C573.948 306.7 574.148 307.1 574.248 307.5C574.448 308 574.548 308.5 574.548 309.1C574.648 310.2 574.648 311.3 574.748 312.4C574.748 313.9 574.948 315.2 574.148 316.5C573.548 317.7 572.448 318.7 572.548 320.2C572.548 321.3 573.248 322.5 574.348 323C574.448 323.1 574.448 323 574.548 323C576.448 324 578.648 324.1 580.748 324.2C582.848 324.2 585.448 324.5 587.348 323.2C589.348 321.8 587.448 319.5 586.948 317.8C586.248 315.8 587.148 313.8 587.248 311.7C587.348 311.2 587.548 310.7 587.848 310.2C588.148 309.6 588.748 309.2 589.148 308.6C589.448 308.1 589.848 307.5 589.748 306.8C589.748 305.6 588.848 304.7 587.648 304.6ZM585.748 285.4C583.448 284.9 581.048 284.9 578.748 285.5C577.948 285.7 576.948 286.1 576.348 286.8C575.748 287.7 576.048 288.6 576.148 289.6C576.348 290.7 576.448 291.7 576.748 292.8C576.948 293.6 577.348 294.4 577.148 295.3C576.848 296.2 576.248 297.1 575.648 297.9C575.148 298.6 574.848 299.4 575.248 300.2C575.648 301.2 576.748 301.7 577.648 302C578.748 302.5 579.948 302.8 581.148 302.9C583.548 303.2 586.048 302.9 588.248 301.9C590.248 300.9 589.248 298.9 588.648 297.4C588.148 296.1 588.448 294.5 588.648 293.2C588.748 292.4 588.848 291.6 589.148 290.8C589.348 290 590.048 289.3 590.148 288.4C590.448 286.1 587.348 285.6 585.748 285.4ZM641.548 345.3C640.948 345.1 640.848 344.9 640.748 344.3C640.748 343.8 640.748 343.3 640.648 342.9C640.548 341.8 640.448 340.8 640.348 339.8C640.248 337.8 640.048 335.9 639.848 334C639.748 333.1 639.748 332.3 639.948 331.4C640.148 330.6 640.548 330 640.848 329.2C641.148 328.1 640.948 326.9 640.248 326C639.548 325.1 638.548 324.8 637.548 325.2C636.848 325.5 636.148 326 635.448 326.2C634.648 326.5 633.848 326.6 633.048 326.6C631.448 326.8 629.848 326.6 628.248 326.3C627.348 326.1 626.548 326.1 625.848 326.9C625.348 327.6 625.248 328.7 625.448 329.5C625.548 330.4 626.148 330.9 626.548 331.7C627.748 334.1 627.948 337.2 628.048 339.8C628.148 342.6 628.148 345.7 627.148 348.4C626.448 351.1 631.548 351.1 632.948 351.2C635.848 351.3 638.848 350.8 641.448 349.4C642.148 349 643.048 348.3 643.248 347.4C643.448 346.2 642.548 345.7 641.548 345.3ZM625.548 323.2C627.348 324.5 630.048 324.2 632.148 324.2C634.248 324.1 636.448 323.9 638.348 323C638.448 323 638.448 323.1 638.548 323C639.648 322.5 640.248 321.3 640.348 320.1C640.448 318.7 639.348 317.7 638.648 316.5C637.948 315.2 638.148 313.9 638.148 312.4C638.248 311.3 638.248 310.2 638.348 309.1C638.348 308.6 638.348 308.1 638.548 307.7C638.648 307.3 638.848 306.9 638.948 306.6C639.148 305.9 639.148 305.2 638.748 304.6C638.148 303.9 637.048 303.8 636.148 303.9C635.348 304 634.748 304.3 634.048 304.5C633.448 304.7 632.848 304.9 632.248 305C632.048 305 631.948 305 631.848 305C631.248 305.1 630.748 305.2 630.148 305.2C629.648 305.3 629.048 305.3 628.448 305.2C627.948 305.2 627.448 305.2 626.948 305C626.448 304.8 626.148 304.6 625.548 304.5C624.448 304.5 623.448 305.2 623.148 306.3C623.048 307 623.148 307.6 623.448 308.2C623.848 308.8 624.348 309.3 624.748 309.8C625.248 310.3 625.448 310.9 625.648 311.5C625.648 311.6 625.648 311.8 625.648 311.9C625.748 313.9 626.548 315.9 625.948 317.8C625.448 319.5 623.548 321.8 625.548 323.2ZM623.048 299.5C622.948 300.5 623.448 301.2 624.248 301.7C627.848 303.2 632.748 303.3 636.148 301.2C636.848 300.7 637.548 300 637.448 299.1C637.348 298.2 636.648 297.6 636.248 296.9C635.248 294.9 636.148 292.6 636.548 290.5C636.748 289.6 637.048 288.5 636.848 287.5C636.648 286.7 635.948 286.2 635.148 285.8C633.248 285 630.748 284.9 628.648 285.1C627.548 285.3 626.348 285.5 625.248 285.8C624.448 286 623.448 286.3 622.948 287.1C622.448 287.9 622.748 288.8 623.148 289.6C623.548 290.3 623.848 291 623.948 291.8C624.248 293.3 624.448 295.1 624.148 296.5C623.848 297.6 623.248 298.4 623.048 299.5ZM659.556 295.1C659.756 295.4 660.056 295.7 660.356 295.9C660.356 296 660.356 295.9 660.356 296C660.456 296 660.456 296 660.456 296C660.456 295.9 660.456 295.9 660.556 295.9C660.656 295.3 660.756 294.6 660.756 293.9C660.756 293.6 660.656 293.3 660.556 293.1C660.356 292.7 660.156 292.4 659.856 292.1C659.756 292 659.356 291.6 659.056 291.8C659.056 291.9 658.956 292 658.956 292.1C658.956 292.2 658.956 292.3 658.956 292.5C658.856 293.1 658.956 293.7 659.156 294.3C659.256 294.6 659.356 294.8 659.556 295.1ZM654.256 298C655.156 298.2 656.056 298.3 656.856 298.2C657.956 298.2 658.956 297.6 659.756 296.9C659.756 296.8 659.756 296.8 659.856 296.8C659.856 296.8 659.856 296.8 659.856 296.7C659.856 296.7 659.856 296.6 659.756 296.6V296.5C658.756 296.1 657.856 295.7 656.756 295.6C655.756 295.5 654.756 295.9 653.856 296.5C653.656 296.7 652.956 297.2 653.356 297.6C653.556 297.8 653.956 297.9 654.256 298ZM714.256 336.7C713.956 336.5 713.556 336.4 713.156 336.3C712.856 336.3 712.556 336.4 712.256 336.4C711.656 336.6 711.056 336.9 710.556 337.3C710.556 337.3 710.556 337.3 710.456 337.3C710.456 337.3 710.456 337.3 710.456 337.4C710.456 337.4 710.456 337.4 710.556 337.4C710.556 337.4 710.556 337.4 710.556 337.5C710.856 337.7 711.256 337.8 711.656 338C711.956 338.1 712.256 338.1 712.456 338.1C713.156 338.1 713.756 337.9 714.256 337.7C714.356 337.6 714.556 337.6 714.656 337.5C714.756 337.5 714.856 337.4 714.856 337.3C715.056 337 714.456 336.8 714.256 336.7ZM710.156 338.3C710.156 338.2 710.156 338.3 710.156 338.2C710.156 338.2 710.156 338.2 710.056 338.2H709.956C709.956 338.2 709.956 338.2 709.856 338.3C709.856 338.3 709.856 338.3 709.756 338.4C709.356 339.3 709.256 340.5 709.456 341.5C709.656 342.3 710.056 343.1 710.556 343.9C710.756 344.1 710.956 344.5 711.256 344.6C711.756 344.9 712.056 344.1 712.156 343.8C712.456 342.7 712.456 341.7 711.956 340.7C711.556 339.8 710.856 339 710.156 338.3ZM667.756 325C667.656 323.5 666.656 322.3 666.456 320.8C666.156 319.2 665.956 317.5 666.156 315.9C666.356 312.7 667.756 309.6 670.156 307.4C671.456 306.7 672.556 305.2 672.356 303.7C672.156 302.8 671.956 302 671.256 301.5C670.656 301.1 670.056 301.3 669.456 301.4C668.356 301.5 667.356 301.7 666.356 301.3C665.556 301 664.956 300.4 664.256 299.9C662.956 298.9 661.356 298.3 659.656 298.9C658.056 299.4 656.456 301.1 656.456 302.9C653.356 307.2 651.756 312.3 651.656 317.7C651.656 320.2 651.956 322.8 652.456 325.3C652.756 326.6 653.056 327.9 653.156 329.2C653.256 330.2 653.956 332.3 654.856 332.2C658.356 331.1 660.256 332.1 662.556 331C664.656 330.1 668.056 327.7 667.756 325ZM663.556 296.6C665.356 296.8 666.256 299 667.156 299.1C670.256 299.6 670.656 298.3 671.856 298.5C673.056 298.7 673.156 301.5 674.356 301.2C675.756 300.9 676.156 300.9 677.056 299.7C678.256 298 684.256 296 688.256 296.9C691.656 297.7 695.956 300.2 698.456 303.8C699.056 304.8 699.456 306.1 700.356 306.9C701.156 307.5 702.856 307.2 703.556 306.6C704.056 306.1 704.456 305.4 704.756 304.7C704.956 304 704.956 303.3 705.756 303C706.456 302.7 707.256 302.4 708.056 302.2C708.956 301.9 709.856 301.8 710.556 301.3C712.056 300.4 712.156 298.6 711.156 297.6C710.656 297.1 708.756 295.8 708.456 295.2C706.156 291 704.856 289.9 701.756 287.7C698.756 285.7 692.156 281 675.456 284.5C674.056 284.8 669.456 286.7 665.756 289.6C664.656 290.5 663.356 291 662.456 292.5C661.856 293.5 660.856 296.2 663.556 296.6ZM712.956 332.7C715.256 327.9 717.156 322.7 716.756 317.3C716.556 314.8 716.056 312.4 715.556 310C715.256 308.3 715.456 305.6 714.156 304.4C712.856 303.1 710.556 302.8 709.056 303.9C708.656 304.2 708.456 304.5 708.256 304.8C707.856 305.4 707.456 305.9 706.856 306.4C706.156 307 705.356 307.5 704.456 307.9C703.356 308.4 701.656 309 701.956 310.4C702.456 312.3 702.856 313.3 702.956 314.5C703.056 314.9 703.056 315.8 702.856 318.7C702.656 322.3 700.856 324.2 700.756 325.2C700.656 326.6 700.956 327.1 702.056 328.3C702.556 328.8 703.156 329.3 703.856 329.7C704.556 330.1 705.556 330.1 706.156 330.6C706.856 331.2 706.856 332.2 707.156 333C707.856 334.4 710.456 338.1 712.956 332.7ZM705.756 335.6C703.856 334.9 703.156 332.2 701.856 330.6C701.256 329.9 700.256 329.3 699.256 329.2C697.956 329 696.956 330.1 696.056 330.9C694.356 332.4 692.956 334.3 691.156 335.6C689.756 336.6 686.256 337.9 683.056 337.7C677.856 337.3 673.656 334.3 672.256 331.1C672.256 331 672.256 331 672.256 331C672.256 331 672.256 331 672.156 330.9C671.456 329.8 670.956 328 669.256 328.3C667.556 328.6 667.556 330.8 666.356 331.7C665.156 332.6 663.556 333.1 662.156 333.6C660.556 334 659.056 333.7 657.456 334.1C655.556 334.5 655.156 336 656.256 337.7C656.756 338.6 657.256 338.9 658.056 339.4C661.456 341.6 661.756 343.1 664.656 345.5C674.256 353.4 689.056 353.6 696.356 349.8C700.556 347.8 703.556 345.1 706.456 342.2C706.456 342.1 706.456 342.1 706.556 342.1C707.256 341 708.356 340.1 708.156 338.6C707.956 337.3 707.056 336.1 705.756 335.6ZM722.873 300.9C723.173 301.4 723.673 301.8 724.173 302.1C724.473 302.3 724.673 302.4 724.973 302.5C725.373 302.5 725.873 302.6 726.273 302.5C726.373 302.4 726.373 302.4 726.373 302.4C726.273 302.4 726.373 302.4 726.273 302.4C726.273 302.4 726.373 302.4 726.273 302.4C725.973 301.8 725.673 301.2 725.173 300.8C724.973 300.6 724.673 300.4 724.373 300.3C724.073 300.1 723.673 300.1 723.273 300.1C723.073 300 722.473 300 722.473 300.3C722.473 300.4 722.573 300.5 722.573 300.6C722.673 300.7 722.773 300.8 722.873 300.9ZM726.373 303.5C726.373 303.4 726.273 303.4 726.273 303.4C726.273 303.4 726.273 303.4 726.173 303.4C725.173 303.7 724.173 304.1 723.373 304.7C722.473 305.4 722.073 306.3 721.873 307.3C721.773 307.6 721.673 308.5 722.173 308.5C722.473 308.5 722.873 308.3 723.173 308.1C723.873 307.7 724.673 307.2 725.273 306.6C725.973 305.8 726.373 304.7 726.473 303.7C726.473 303.6 726.473 303.6 726.473 303.6C726.473 303.6 726.373 303.6 726.373 303.5ZM763.973 301C763.973 300.9 763.973 300.9 763.973 300.9C763.973 300.9 763.973 300.9 763.973 300.8C763.973 300.8 763.973 300.8 763.873 300.8C763.273 300.6 762.673 300.4 761.973 300.4C761.673 300.4 761.373 300.4 761.073 300.5C760.773 300.6 760.373 300.9 760.073 301.1C759.973 301.2 759.473 301.6 759.673 301.9C759.773 301.9 759.873 302 759.973 302C760.073 302 760.173 302.1 760.373 302.1C760.973 302.2 761.573 302.2 762.173 302.1C762.473 302 762.773 301.9 762.973 301.7C763.373 301.5 763.673 301.3 763.973 301ZM764.873 308.1C765.173 307.9 765.273 307.5 765.373 307.2C765.673 306.4 765.873 305.5 765.873 304.7C765.873 303.6 765.473 302.5 764.873 301.7C764.873 301.7 764.773 301.7 764.773 301.6C764.673 301.6 764.673 301.6 764.673 301.6H764.573C764.573 301.6 764.573 301.6 764.573 301.7C764.473 301.7 764.473 301.7 764.473 301.7C763.973 302.6 763.473 303.5 763.273 304.5C763.073 305.6 763.373 306.6 763.873 307.5C764.073 307.8 764.473 308.5 764.873 308.1ZM740.873 345.1C740.873 344.1 740.873 343.1 740.873 342.1C740.973 340 740.973 337.9 740.973 335.9C740.973 335 740.973 334.1 740.973 333.2C741.073 332 741.573 331 741.873 329.8C742.273 328.6 742.273 327.1 741.473 326.1C740.673 325.1 739.873 325.6 738.873 326.1C737.673 326.6 736.073 326.7 734.773 326.8C733.573 326.8 732.473 326.9 731.273 326.8C730.373 326.8 729.573 326.4 728.673 326.2C728.273 326.1 727.973 326.1 727.573 326.3C725.773 327.5 726.873 330.2 727.273 331.7C727.873 334.7 727.773 337.9 727.673 340.9C727.573 344 727.373 347.2 726.473 350.2C725.873 353 729.573 353.1 731.473 353.2C733.873 353.3 736.573 353.6 738.873 352.8C740.973 352 743.673 350 741.473 347.9C740.673 347.1 740.873 346.2 740.873 345.1ZM727.073 322.6C727.073 322.7 727.173 322.8 727.273 322.8C728.273 323.8 729.773 323.9 731.073 323.9C732.173 323.9 733.273 323.9 734.373 323.9C735.773 323.9 737.073 323.8 738.473 323.6C739.173 323.5 740.073 323.3 740.873 322.9C740.873 322.9 740.973 323 740.973 322.9C741.073 322.9 741.173 322.8 741.173 322.8C741.273 322.7 741.273 322.7 741.273 322.7C741.373 322.7 741.373 322.6 741.473 322.5C742.073 321.9 742.273 321 742.273 320.1C742.173 318.6 741.373 317.4 741.073 316C740.973 315.5 741.073 314.9 741.073 314.4C741.173 313.7 741.173 313.1 741.273 312.4C741.373 311.4 741.473 310.4 741.573 309.4C741.573 309 741.673 308.6 741.873 308.2C742.073 307.8 742.273 307.3 742.273 306.9C742.273 306.4 742.173 305.9 741.873 305.6C741.473 305.1 740.873 305 740.273 305.1C739.673 305.2 739.073 305.5 738.473 305.7C738.373 305.7 738.273 305.8 738.273 305.8C738.173 305.8 738.273 305.8 738.173 305.8C738.073 305.8 737.973 305.8 737.773 305.8C736.773 305.9 735.773 306 734.773 306C734.573 306 734.473 306 734.373 306C733.273 306 732.273 306.1 731.273 306C730.773 306 730.173 306 729.673 305.8C729.373 305.7 729.173 305.4 728.973 305.3C728.673 305.1 728.373 305.1 728.073 305.1C726.473 305.4 726.473 307.8 726.773 308.9C726.873 309.4 727.073 309.7 727.373 310C727.573 310.2 727.673 310.6 727.773 310.9C727.873 311.2 727.873 311.5 727.873 311.9C727.873 313.6 728.173 315.4 727.773 317.1C727.373 318.8 725.673 321 727.073 322.6ZM727.673 302C727.773 302 727.773 302 727.773 302.1C729.173 303.1 731.173 303.3 732.873 303.4C734.873 303.5 736.973 303.5 738.873 302.9C739.673 302.6 740.473 302.3 740.973 301.6C741.873 300.7 741.673 299.6 741.173 298.5C740.673 297.2 740.373 295.7 740.673 294.3C740.873 293.3 741.173 292.4 741.273 291.4C741.373 290.3 741.473 289.2 741.573 288C741.673 287.1 742.073 286 741.673 285.1C740.873 283.2 738.573 283 736.873 282.9C734.773 282.8 732.673 282.8 730.573 283.1C729.673 283.3 728.773 283.5 728.073 284.1C727.073 285 727.273 286.2 727.673 287.3C728.273 289.6 728.173 292.2 728.073 294.6C728.073 295.3 728.073 296.1 727.973 296.9C727.873 297.6 727.473 298.1 727.273 298.8C726.873 299.8 726.773 301.2 727.673 302ZM744.473 296C745.373 296 746.173 295.6 746.973 295.4C747.873 295.2 749.473 295.4 750.573 295.4C752.173 295.5 753.873 295.5 755.373 295.8C756.473 295.9 757.573 296.2 758.573 296.8C759.573 297.4 760.273 298.3 761.373 298.9C762.673 299.5 764.673 300 765.173 298.1C765.273 297.5 765.173 296.8 765.073 296.1C765.073 295 765.173 294 765.473 293C765.773 291.8 766.073 290.2 767.273 289.7C768.373 289.3 768.873 288.9 768.773 287.5C768.773 286.4 768.173 285.5 767.173 285C765.673 284.2 763.973 284.7 762.373 284.7C761.173 284.7 759.973 284.4 758.873 284.3C755.073 283.8 751.173 283.4 747.373 283.7C746.773 283.2 746.173 282.8 745.373 282.9C744.373 283.1 743.473 284.3 743.273 285.3C742.973 286.2 743.473 287.3 743.673 288.2C743.873 289 743.973 289.7 743.873 290.4C743.873 291.6 743.373 292.4 742.973 293.4C742.573 294.5 743.373 295.8 744.473 296ZM785.073 309.4C784.673 308.8 784.173 308.3 783.873 307.6C783.473 306.8 783.373 305.7 783.173 304.8C782.373 301.7 781.073 298.8 779.173 296.4C777.973 294.9 776.273 293.6 775.173 292C774.673 291.4 774.573 290.6 774.073 289.9C773.473 289 772.473 288.1 771.373 288.5C770.173 288.9 770.373 289.7 770.373 290.7C770.273 291.8 769.573 291.8 768.873 292.3C768.373 292.7 767.973 293.1 767.773 293.6C767.173 294.8 767.273 296.3 767.173 297.6C767.173 298.2 767.173 299 766.873 299.5C766.573 300.1 766.273 300.3 766.373 301.1C766.573 303 768.573 303.9 769.573 305.4C770.473 306.7 770.673 308.2 771.173 309.6C771.673 311.9 772.473 313.9 772.073 316.3C771.773 317.7 772.173 319.3 773.373 320.2C774.273 320.8 775.873 320.9 776.673 320.2C777.773 319.3 777.973 317.7 778.773 316.6C779.673 315.6 781.873 316.6 783.073 316.4C784.373 316.1 785.773 314.7 786.073 313.4C786.473 312 785.773 310.6 785.073 309.4ZM781.973 318.9C780.873 319 779.673 319.4 778.973 320.2C778.573 320.8 778.373 321.5 777.773 322.1C777.173 322.6 776.373 322.9 775.573 323C773.673 323.2 770.073 321.7 770.173 324.7C770.273 326.6 769.873 328.2 768.573 329.6C767.273 331 765.773 332.2 764.473 333.5C763.173 334.3 762.873 336.5 763.173 337.8C763.273 338.7 763.873 339.5 764.673 339.9C765.873 340.4 767.373 339.7 768.073 341C768.973 342.6 768.673 346.7 771.473 346.3C772.773 346.1 774.073 345.2 774.773 344.1C775.373 343.3 775.373 342.2 775.873 341.5C776.373 340.8 777.173 340.2 777.773 339.6C778.373 338.8 778.973 338 779.473 337.2C780.473 335.8 781.273 334.2 781.873 332.6C782.973 330.1 783.573 327.3 784.573 324.7C785.173 323.3 785.873 321.4 784.873 320C784.173 319.1 782.973 318.9 781.973 318.9ZM766.073 343.6C765.873 343.5 765.673 343.6 765.473 343.5C764.973 343.4 764.473 343.1 764.173 342.7C763.073 341.8 762.173 340.6 761.873 339.2C761.773 338.6 761.973 338 761.673 337.5C761.373 337 760.873 336.6 760.373 336.4C757.773 335.2 756.473 338 754.573 339C751.673 340.6 748.673 341.7 745.373 341.1C744.273 341 743.673 341.2 743.073 342C742.573 342.6 742.073 343.5 742.673 344.3C743.073 344.8 743.773 345 744.073 345.5C744.473 346.1 744.473 346.7 744.373 347.4C744.273 348.3 743.873 349.2 743.873 350.1C743.873 352.6 746.773 353.4 748.773 353C749.273 352.9 749.773 352.7 750.273 352.6C751.073 352.5 751.973 352.6 752.773 352.5C754.073 352.4 755.473 352.2 756.673 351.8C758.373 351.3 759.973 350.4 761.573 350.1C762.973 349.9 764.373 350.4 765.673 350.1C767.873 349.7 767.873 347 767.173 345.4C766.973 344.8 766.573 343.9 766.073 343.6ZM799.204 295.1C799.404 295.4 799.704 295.7 800.004 295.9C800.004 296 800.004 295.9 800.004 296C800.104 296 800.104 296 800.104 296C800.104 295.9 800.104 295.9 800.204 295.9C800.304 295.3 800.404 294.6 800.404 293.9C800.404 293.6 800.304 293.3 800.204 293.1C800.004 292.7 799.804 292.4 799.504 292.1C799.404 292 799.004 291.6 798.704 291.8C798.704 291.9 798.604 292 798.604 292.1C798.604 292.2 798.604 292.3 798.604 292.5C798.504 293.1 798.604 293.7 798.804 294.3C798.904 294.6 799.004 294.8 799.204 295.1ZM793.904 298C794.804 298.2 795.704 298.3 796.504 298.2C797.604 298.2 798.604 297.6 799.404 296.9C799.404 296.8 799.404 296.8 799.504 296.8C799.504 296.8 799.504 296.8 799.504 296.7C799.504 296.7 799.504 296.6 799.404 296.6V296.5C798.404 296.1 797.504 295.7 796.404 295.6C795.404 295.5 794.404 295.9 793.504 296.5C793.304 296.7 792.604 297.2 793.004 297.6C793.204 297.8 793.604 297.9 793.904 298ZM853.904 336.7C853.604 336.5 853.204 336.4 852.804 336.3C852.504 336.3 852.204 336.4 851.904 336.4C851.304 336.6 850.704 336.9 850.204 337.3C850.204 337.3 850.204 337.3 850.104 337.3C850.104 337.3 850.104 337.3 850.104 337.4C850.104 337.4 850.104 337.4 850.204 337.4C850.204 337.4 850.204 337.4 850.204 337.5C850.504 337.7 850.904 337.8 851.304 338C851.604 338.1 851.904 338.1 852.104 338.1C852.804 338.1 853.404 337.9 853.904 337.7C854.004 337.6 854.204 337.6 854.304 337.5C854.404 337.5 854.504 337.4 854.504 337.3C854.704 337 854.104 336.8 853.904 336.7ZM849.804 338.3C849.804 338.2 849.804 338.3 849.804 338.2C849.804 338.2 849.804 338.2 849.704 338.2H849.604C849.604 338.2 849.604 338.2 849.504 338.3C849.504 338.3 849.504 338.3 849.404 338.4C849.004 339.3 848.904 340.5 849.104 341.5C849.304 342.3 849.704 343.1 850.204 343.9C850.404 344.1 850.604 344.5 850.904 344.6C851.404 344.9 851.704 344.1 851.804 343.8C852.104 342.7 852.104 341.7 851.604 340.7C851.204 339.8 850.504 339 849.804 338.3ZM807.404 325C807.304 323.5 806.304 322.3 806.104 320.8C805.804 319.2 805.604 317.5 805.804 315.9C806.004 312.7 807.404 309.6 809.804 307.4C811.104 306.7 812.204 305.2 812.004 303.7C811.804 302.8 811.604 302 810.904 301.5C810.304 301.1 809.704 301.3 809.104 301.4C808.004 301.5 807.004 301.7 806.004 301.3C805.204 301 804.604 300.4 803.904 299.9C802.604 298.9 801.004 298.3 799.304 298.9C797.704 299.4 796.104 301.1 796.104 302.9C793.004 307.2 791.404 312.3 791.304 317.7C791.304 320.2 791.604 322.8 792.104 325.3C792.404 326.6 792.704 327.9 792.804 329.2C792.904 330.2 793.604 332.3 794.504 332.2C798.004 331.1 799.904 332.1 802.204 331C804.304 330.1 807.704 327.7 807.404 325ZM803.204 296.6C805.004 296.8 805.904 299 806.804 299.1C809.904 299.6 810.304 298.3 811.504 298.5C812.704 298.7 812.804 301.5 814.004 301.2C815.404 300.9 815.804 300.9 816.704 299.7C817.904 298 823.904 296 827.904 296.9C831.304 297.7 835.604 300.2 838.104 303.8C838.704 304.8 839.104 306.1 840.004 306.9C840.804 307.5 842.504 307.2 843.204 306.6C843.704 306.1 844.104 305.4 844.404 304.7C844.604 304 844.604 303.3 845.404 303C846.104 302.7 846.904 302.4 847.704 302.2C848.604 301.9 849.504 301.8 850.204 301.3C851.704 300.4 851.804 298.6 850.804 297.6C850.304 297.1 848.404 295.8 848.104 295.2C845.804 291 844.504 289.9 841.404 287.7C838.404 285.7 831.804 281 815.104 284.5C813.704 284.8 809.104 286.7 805.404 289.6C804.304 290.5 803.004 291 802.104 292.5C801.504 293.5 800.504 296.2 803.204 296.6ZM852.604 332.7C854.904 327.9 856.804 322.7 856.404 317.3C856.204 314.8 855.704 312.4 855.204 310C854.904 308.3 855.104 305.6 853.804 304.4C852.504 303.1 850.204 302.8 848.704 303.9C848.304 304.2 848.104 304.5 847.904 304.8C847.504 305.4 847.104 305.9 846.504 306.4C845.804 307 845.004 307.5 844.104 307.9C843.004 308.4 841.304 309 841.604 310.4C842.104 312.3 842.504 313.3 842.604 314.5C842.704 314.9 842.704 315.8 842.504 318.7C842.304 322.3 840.504 324.2 840.404 325.2C840.304 326.6 840.604 327.1 841.704 328.3C842.204 328.8 842.804 329.3 843.504 329.7C844.204 330.1 845.204 330.1 845.804 330.6C846.504 331.2 846.504 332.2 846.804 333C847.504 334.4 850.104 338.1 852.604 332.7ZM845.404 335.6C843.504 334.9 842.804 332.2 841.504 330.6C840.904 329.9 839.904 329.3 838.904 329.2C837.604 329 836.604 330.1 835.704 330.9C834.004 332.4 832.604 334.3 830.804 335.6C829.404 336.6 825.904 337.9 822.704 337.7C817.504 337.3 813.304 334.3 811.904 331.1C811.904 331 811.904 331 811.904 331C811.904 331 811.904 331 811.804 330.9C811.104 329.8 810.604 328 808.904 328.3C807.204 328.6 807.204 330.8 806.004 331.7C804.804 332.6 803.204 333.1 801.804 333.6C800.204 334 798.704 333.7 797.104 334.1C795.204 334.5 794.804 336 795.904 337.7C796.404 338.6 796.904 338.9 797.704 339.4C801.104 341.6 801.404 343.1 804.304 345.5C813.904 353.4 828.704 353.6 836.004 349.8C840.204 347.8 843.204 345.1 846.104 342.2C846.104 342.1 846.104 342.1 846.204 342.1C846.904 341 848.004 340.1 847.804 338.6C847.604 337.3 846.704 336.1 845.404 335.6ZM865.005 300.8C864.605 300.6 864.305 300.5 863.905 300.4C863.705 300.3 863.105 300.2 863.005 300.5C863.005 300.6 863.105 300.7 863.105 300.8C863.205 301 863.205 301.1 863.305 301.2C863.605 301.7 864.005 302.2 864.505 302.6C864.705 302.8 864.905 302.9 865.205 303C865.605 303.1 866.005 303.3 866.405 303.3C866.405 303.3 866.405 303.3 866.405 303.2C866.505 303.2 866.505 303.2 866.505 303.2V303.1C866.305 302.5 866.005 301.9 865.605 301.4C865.405 301.1 865.205 300.9 865.005 300.8ZM866.405 304.3V304.2L866.305 304.1H866.205C865.205 304.3 864.205 304.5 863.305 305C862.305 305.5 861.705 306.3 861.405 307.3C861.205 307.6 861.005 308.4 861.505 308.5C861.805 308.6 862.205 308.4 862.505 308.3C863.305 308.1 864.105 307.7 864.805 307.1C865.605 306.5 866.205 305.4 866.505 304.4C866.505 304.4 866.505 304.4 866.505 304.3H866.405ZM908.805 289.4H908.905C908.905 289.5 908.905 289.4 908.905 289.4H909.005C909.305 289.2 909.605 288.9 909.805 288.6C910.005 288.3 910.105 288.1 910.205 287.8C910.405 287.2 910.505 286.6 910.405 286C910.405 285.8 910.405 285.7 910.405 285.6C910.305 285.5 910.305 285.3 910.305 285.3C910.005 285 909.605 285.5 909.405 285.6C909.205 285.9 908.905 286.2 908.805 286.5C908.705 286.8 908.605 287.1 908.605 287.4C908.505 288.1 908.705 288.7 908.805 289.4ZM909.605 290.1C909.505 290.1 909.505 290.2 909.505 290.2V290.3C909.505 290.3 909.505 290.3 909.605 290.4C910.305 291.1 911.405 291.7 912.405 291.7C913.305 291.8 914.205 291.7 915.005 291.5C915.305 291.4 915.805 291.3 916.005 291.1C916.405 290.7 915.705 290.2 915.505 290C914.605 289.4 913.605 289 912.605 289.1C911.505 289.2 910.505 289.6 909.605 290V290.1ZM881.105 326C880.605 325.8 880.205 326 879.705 326.3C879.205 326.5 878.705 326.7 878.205 326.8C875.705 327.3 872.705 327.6 870.305 327C869.205 326.7 868.305 326.1 867.505 327.2C867.005 328.1 866.905 329.4 867.105 330.4C867.305 331.5 867.805 332.5 867.905 333.6C868.105 335.2 868.105 336.8 868.105 338.4C868.105 341.7 867.905 345.2 866.905 348.4C866.305 351.2 870.005 351.2 871.805 351.3C873.205 351.3 874.605 351.3 876.005 351.3C877.005 351.3 878.205 351.4 879.205 351.2C881.205 350.9 882.105 349.3 881.905 347.4C881.805 346.7 881.505 346 881.405 345.3C881.105 344.1 881.305 342.3 881.305 340.9C881.305 338.7 881.405 336.5 881.405 334.4C881.405 333.3 881.505 332.4 881.905 331.4C882.205 330.5 882.505 329.7 882.505 328.8C882.505 327.8 882.205 326.3 881.105 326ZM881.505 314.8C881.605 314.2 881.605 313.5 881.705 312.8C881.805 311.8 881.905 310.9 882.005 309.9C882.005 309.5 882.105 309.1 882.305 308.7C882.505 308.2 882.605 307.8 882.705 307.3C882.705 306.9 882.505 306.4 882.305 306C881.905 305.5 881.305 305.4 880.705 305.5C880.105 305.6 879.505 305.9 878.905 306.2C878.805 306.2 878.705 306.2 878.705 306.2C878.505 306.2 878.705 306.2 878.605 306.2C878.505 306.2 878.305 306.3 878.205 306.3C877.205 306.4 876.205 306.4 875.205 306.4C875.005 306.4 874.905 306.4 874.705 306.5C873.705 306.5 872.705 306.5 871.705 306.5C871.205 306.5 870.505 306.4 870.005 306.2C869.805 306.1 869.605 305.9 869.405 305.7C869.105 305.6 868.805 305.5 868.405 305.5C866.905 305.8 866.905 308.2 867.205 309.3C867.305 309.8 867.505 310.1 867.805 310.4C868.005 310.7 868.105 311 868.205 311.3C868.205 311.7 868.305 312 868.305 312.3C868.305 314 868.605 315.8 868.205 317.5C867.805 319.2 866.105 321.4 867.505 323.1C867.505 323.2 867.605 323.2 867.705 323.2C868.705 324.2 870.105 324.3 871.505 324.4C872.605 324.4 873.705 324.4 874.805 324.3C876.205 324.3 877.505 324.2 878.805 324C879.605 323.9 880.505 323.7 881.305 323.4H881.405C881.505 323.3 881.605 323.2 881.605 323.2C881.705 323.2 881.705 323.2 881.705 323.1C881.805 323.1 881.805 323 881.905 323C882.505 322.3 882.705 321.4 882.705 320.5C882.605 319.1 881.805 317.8 881.505 316.4C881.405 315.9 881.505 315.4 881.505 314.8ZM868.105 302.4C868.205 302.4 868.205 302.5 868.205 302.5C869.805 303.6 872.105 303.8 874.005 303.8C876.005 303.9 878.405 303.9 880.305 302.9C881.205 302.5 882.005 301.6 882.005 300.5C882.005 299.3 881.305 298.3 881.205 297.2C880.905 295 880.805 292.7 881.105 290.5C881.205 289.2 881.705 288 881.905 286.7C882.105 285.4 882.605 283.9 881.705 282.8C880.405 281.2 877.905 281.2 876.005 281.2C874.005 281.2 871.605 281.1 869.605 281.8C868.505 282.2 867.705 283 867.805 284.3C867.805 285 868.105 285.7 868.305 286.4C868.505 287.4 868.505 288.5 868.505 289.5C868.505 291.7 868.505 293.9 868.405 296.1C868.405 296.6 868.405 297.1 868.305 297.6C868.205 298.1 867.905 298.5 867.705 299C867.305 300.1 867.105 301.5 868.105 302.4ZM916.905 345.6C915.705 344.4 909.905 329.3 909.205 327.8C908.805 327 908.705 326.3 908.605 325.5C908.605 324.4 908.305 323.4 907.605 322.5C907.105 321.9 906.205 321.8 905.305 321.7C903.905 321.5 902.805 323.2 902.205 323.4C900.405 324.4 897.605 323.3 895.905 324.4C895.905 324.5 895.805 324.4 895.805 324.5C895.105 325.1 894.805 325.9 894.905 326.9C895.105 327.9 896.305 329.4 896.805 329.9C897.905 331.1 899.505 337.6 899.805 338.4C900.205 339.1 902.005 345.2 902.205 346C902.305 346.7 902.305 346.9 902.205 347.6C902.105 348.6 902.605 349.4 903.305 350.1C903.305 350.2 903.305 350.1 903.305 350.2C903.405 350.2 903.405 350.2 903.405 350.2C904.205 350.8 905.405 350.8 906.305 350.9C907.905 351 909.505 351 911.105 350.9C912.705 350.8 914.305 350.7 915.805 350.3C916.805 350.1 918.005 349.9 918.705 349.1C918.705 349 918.705 349 918.805 348.9C918.805 348.9 918.805 348.9 918.805 348.8C919.105 347.6 917.705 346.4 916.905 345.6ZM885.505 295.1C886.605 295 887.705 294.5 888.705 294.2C890.005 293.8 891.005 293.7 892.405 293.8C893.805 294 895.005 294.5 895.905 295.8C896.505 296.7 896.705 298.2 897.905 298.5C900.205 299.1 901.105 295.8 901.605 294.3C902.005 293.4 902.205 292.4 902.805 291.6C903.405 290.9 904.005 290.5 905.005 290.6C905.605 290.6 906.205 290.6 906.705 290.2C907.705 289.3 907.605 287.8 907.105 286.7C906.505 285.5 905.405 284.6 904.105 284.4C902.605 284.1 901.105 283.9 899.705 283.3C898.005 282.6 896.205 282.1 894.305 282.1C893.405 282.1 892.405 282.1 891.405 282.2C891.005 282.3 890.505 282.3 890.005 282.4C889.605 282.4 888.905 282.6 888.505 282.5C888.005 282.3 887.705 281.8 887.205 281.6C886.605 281.2 886.005 281.2 885.305 281.4C884.505 281.6 884.505 282.8 884.405 283.4C884.305 284.5 884.605 285.6 884.605 286.7C884.605 288.6 883.405 290.3 883.305 292.2C883.105 293.7 883.805 295.2 885.505 295.1ZM909.505 313.5C911.105 311.1 911.905 307.7 912.305 304.9C912.705 301.7 912.705 298.3 911.405 295.3C910.905 294.2 911.105 292.8 909.905 292.2C908.805 291.7 907.505 292 906.305 292.5C905.405 292.7 904.605 293.2 904.005 293.9C903.105 295 902.905 296.6 902.105 297.9C901.405 299.1 899.505 300.5 899.705 302.1C899.805 303.3 899.605 304.2 899.505 305.5C899.505 306.4 899.205 307.4 898.805 308.2C898.605 308.7 897.605 310.1 896.605 310.6C894.305 311.7 888.105 312.3 887.505 312.3C886.805 312.3 886.405 312 885.905 311.6C884.905 311 883.805 311.5 883.605 312.6C883.605 312.7 883.605 312.7 883.605 312.7C883.605 312.8 883.605 312.9 883.605 312.9C883.605 314.7 883.805 316.2 884.205 317.9C884.505 319.1 883.805 320.6 884.505 321.7C885.405 323.1 887.205 321.5 888.305 321.5C888.905 321.5 892.805 321.9 894.205 321.8C896.605 321.7 901.105 320.9 903.205 319.9C906.205 318.3 908.105 315.6 909.505 313.5ZM929.966 295.1C930.166 295.4 930.466 295.7 930.766 295.9C930.766 296 930.766 295.9 930.766 296C930.866 296 930.866 296 930.866 296C930.866 295.9 930.866 295.9 930.966 295.9C931.066 295.3 931.166 294.6 931.166 293.9C931.166 293.6 931.066 293.3 930.966 293.1C930.766 292.7 930.566 292.4 930.266 292.1C930.166 292 929.766 291.6 929.466 291.8C929.466 291.9 929.366 292 929.366 292.1C929.366 292.2 929.366 292.3 929.366 292.5C929.266 293.1 929.366 293.7 929.566 294.3C929.666 294.6 929.766 294.8 929.966 295.1ZM924.666 298C925.566 298.2 926.466 298.3 927.266 298.2C928.366 298.2 929.366 297.6 930.166 296.9C930.166 296.8 930.166 296.8 930.266 296.8C930.266 296.8 930.266 296.8 930.266 296.7C930.266 296.7 930.266 296.6 930.166 296.6V296.5C929.166 296.1 928.266 295.7 927.166 295.6C926.166 295.5 925.166 295.9 924.266 296.5C924.066 296.7 923.366 297.2 923.766 297.6C923.966 297.8 924.366 297.9 924.666 298ZM984.666 336.7C984.366 336.5 983.966 336.4 983.566 336.3C983.266 336.3 982.966 336.4 982.666 336.4C982.066 336.6 981.466 336.9 980.966 337.3C980.966 337.3 980.966 337.3 980.866 337.3C980.866 337.3 980.866 337.3 980.866 337.4C980.866 337.4 980.866 337.4 980.966 337.4C980.966 337.4 980.966 337.4 980.966 337.5C981.266 337.7 981.666 337.8 982.066 338C982.366 338.1 982.666 338.1 982.866 338.1C983.566 338.1 984.166 337.9 984.666 337.7C984.766 337.6 984.966 337.6 985.066 337.5C985.166 337.5 985.266 337.4 985.266 337.3C985.466 337 984.866 336.8 984.666 336.7ZM980.566 338.3C980.566 338.2 980.566 338.3 980.566 338.2C980.566 338.2 980.566 338.2 980.466 338.2H980.366C980.366 338.2 980.366 338.2 980.266 338.3C980.266 338.3 980.266 338.3 980.166 338.4C979.766 339.3 979.666 340.5 979.866 341.5C980.066 342.3 980.466 343.1 980.966 343.9C981.166 344.1 981.366 344.5 981.666 344.6C982.166 344.9 982.466 344.1 982.566 343.8C982.866 342.7 982.866 341.7 982.366 340.7C981.966 339.8 981.266 339 980.566 338.3ZM938.166 325C938.066 323.5 937.066 322.3 936.866 320.8C936.566 319.2 936.366 317.5 936.566 315.9C936.766 312.7 938.166 309.6 940.566 307.4C941.866 306.7 942.966 305.2 942.766 303.7C942.566 302.8 942.366 302 941.666 301.5C941.066 301.1 940.466 301.3 939.866 301.4C938.766 301.5 937.766 301.7 936.766 301.3C935.966 301 935.366 300.4 934.666 299.9C933.366 298.9 931.766 298.3 930.066 298.9C928.466 299.4 926.866 301.1 926.866 302.9C923.766 307.2 922.166 312.3 922.066 317.7C922.066 320.2 922.366 322.8 922.866 325.3C923.166 326.6 923.466 327.9 923.566 329.2C923.666 330.2 924.366 332.3 925.266 332.2C928.766 331.1 930.666 332.1 932.966 331C935.066 330.1 938.466 327.7 938.166 325ZM933.966 296.6C935.766 296.8 936.666 299 937.566 299.1C940.666 299.6 941.066 298.3 942.266 298.5C943.466 298.7 943.566 301.5 944.766 301.2C946.166 300.9 946.566 300.9 947.466 299.7C948.666 298 954.666 296 958.666 296.9C962.066 297.7 966.366 300.2 968.866 303.8C969.466 304.8 969.866 306.1 970.766 306.9C971.566 307.5 973.266 307.2 973.966 306.6C974.466 306.1 974.866 305.4 975.166 304.7C975.366 304 975.366 303.3 976.166 303C976.866 302.7 977.666 302.4 978.466 302.2C979.366 301.9 980.266 301.8 980.966 301.3C982.466 300.4 982.566 298.6 981.566 297.6C981.066 297.1 979.166 295.8 978.866 295.2C976.566 291 975.266 289.9 972.166 287.7C969.166 285.7 962.566 281 945.866 284.5C944.466 284.8 939.866 286.7 936.166 289.6C935.066 290.5 933.766 291 932.866 292.5C932.266 293.5 931.266 296.2 933.966 296.6ZM983.366 332.7C985.666 327.9 987.566 322.7 987.166 317.3C986.966 314.8 986.466 312.4 985.966 310C985.666 308.3 985.866 305.6 984.566 304.4C983.266 303.1 980.966 302.8 979.466 303.9C979.066 304.2 978.866 304.5 978.666 304.8C978.266 305.4 977.866 305.9 977.266 306.4C976.566 307 975.766 307.5 974.866 307.9C973.766 308.4 972.066 309 972.366 310.4C972.866 312.3 973.266 313.3 973.366 314.5C973.466 314.9 973.466 315.8 973.266 318.7C973.066 322.3 971.266 324.2 971.166 325.2C971.066 326.6 971.366 327.1 972.466 328.3C972.966 328.8 973.566 329.3 974.266 329.7C974.966 330.1 975.966 330.1 976.566 330.6C977.266 331.2 977.266 332.2 977.566 333C978.266 334.4 980.866 338.1 983.366 332.7ZM976.166 335.6C974.266 334.9 973.566 332.2 972.266 330.6C971.666 329.9 970.666 329.3 969.666 329.2C968.366 329 967.366 330.1 966.466 330.9C964.766 332.4 963.366 334.3 961.566 335.6C960.166 336.6 956.666 337.9 953.466 337.7C948.266 337.3 944.066 334.3 942.666 331.1C942.666 331 942.666 331 942.666 331C942.666 331 942.666 331 942.566 330.9C941.866 329.8 941.366 328 939.666 328.3C937.966 328.6 937.966 330.8 936.766 331.7C935.566 332.6 933.966 333.1 932.566 333.6C930.966 334 929.466 333.7 927.866 334.1C925.966 334.5 925.566 336 926.666 337.7C927.166 338.6 927.666 338.9 928.466 339.4C931.866 341.6 932.166 343.1 935.066 345.5C944.666 353.4 959.466 353.6 966.766 349.8C970.966 347.8 973.966 345.1 976.866 342.2C976.866 342.1 976.866 342.1 976.966 342.1C977.666 341 978.766 340.1 978.566 338.6C978.366 337.3 977.466 336.1 976.166 335.6Z" fill="white"/>
</svg>
